<?xml version="1.0" encoding="utf-8"?>
<!-- Generator: Adobe Illustrator 19.0.0, SVG Export Plug-In . SVG Version: 6.00 Build 0)  -->
<svg version="1.1" id="Layer_1" xmlns="http://www.w3.org/2000/svg" xmlns:xlink="http://www.w3.org/1999/xlink" x="0px" y="0px"
	 viewBox="0 0 25.6 14.9" style="enable-background:new 0 0 25.6 14.9;" xml:space="preserve">
<style type="text/css">
	.st0{clip-path:url(#SVGID_2_);fill:#FFFFFF;}
	.st1{clip-path:url(#SVGID_2_);fill:#7EA1D3;}
	.st2{clip-path:url(#SVGID_2_);}
	.st3{clip-path:url(#SVGID_4_);fill:#ECB951;}
	.st4{clip-path:url(#SVGID_4_);}
	.st5{fill:#7C381D;}
	.st6{clip-path:url(#SVGID_4_);fill:#7C381D;}
</style>
<g>
	<g>
		<defs>
			<rect id="SVGID_1_" x="0" y="0" width="25.6" height="14.9"/>
		</defs>
		<clipPath id="SVGID_2_">
			<use xlink:href="#SVGID_1_"  style="overflow:visible;"/>
		</clipPath>
		<rect x="0" y="5" class="st0" width="25.6" height="5"/>
		<rect x="0" y="0" class="st1" width="25.6" height="5"/>
		<rect x="0" y="10" class="st1" width="25.6" height="5"/>
		<g class="st2">
			<defs>
				<rect id="SVGID_3_" x="0" y="0" width="25.6" height="14.9"/>
			</defs>
			<clipPath id="SVGID_4_">
				<use xlink:href="#SVGID_3_"  style="overflow:visible;"/>
			</clipPath>
			<path class="st3" d="M12.7,7.5l0.1,2c0,0,0,0,0,0c0,0,0,0,0,0l0.1-2H12.7z"/>
			<g class="st4">
				<path class="st5" d="M12.8,9.6C12.8,9.6,12.8,9.5,12.8,9.6l-0.1-2.1l0,0L12.8,9.6C12.8,9.5,12.8,9.5,12.8,9.6
					C12.8,9.5,12.8,9.5,12.8,9.6l0.1-2.1L12.8,9.6C12.8,9.5,12.8,9.6,12.8,9.6L12.8,9.6z"/>
			</g>
			<polygon class="st6" points="12.8,7.5 12.8,8.9 12.9,7.5 			"/>
			<path class="st3" d="M12.6,8.1c-0.1,0.3,0,0.5-0.1,0.7c-0.1,0.2,0,0.4-0.1,0.5c0,0.1-0.1,0.1-0.1,0.2c0,0,0.1,0,0.1-0.2
				c0-0.1,0-0.2,0.1-0.5c0.1-0.3,0-0.4,0.2-0.6L12.6,8.1z"/>
			<g class="st4">
				<path class="st5" d="M12.4,9.5L12.4,9.5C12.3,9.5,12.4,9.5,12.4,9.5c0-0.1,0-0.1,0-0.2c0,0,0-0.1,0-0.1c0-0.1,0-0.2,0.1-0.4
					c0.1-0.1,0.1-0.2,0.1-0.3c0-0.1,0-0.2,0.1-0.4l0,0c-0.1,0.1-0.1,0.2-0.1,0.4c0,0.1,0,0.2-0.1,0.3c-0.1,0.2-0.1,0.3-0.1,0.4
					c0,0,0,0.1,0,0.1C12.4,9.4,12.4,9.4,12.4,9.5C12.4,9.5,12.4,9.5,12.4,9.5c0,0,0.1-0.1,0.1-0.2c0,0,0-0.1,0-0.1
					c0-0.1,0-0.2,0.1-0.4c0.1-0.1,0.1-0.2,0.1-0.3c0-0.1,0-0.2,0.1-0.3c-0.1,0.1-0.1,0.2-0.1,0.3c0,0.1,0,0.2-0.1,0.3
					c-0.1,0.2-0.1,0.3-0.1,0.4c0,0,0,0.1,0,0.1C12.5,9.4,12.4,9.5,12.4,9.5L12.4,9.5L12.4,9.5z"/>
			</g>
			<path class="st6" d="M12.6,8.2c-0.1,0.3,0,0.4-0.1,0.6C12.7,8.7,12.6,8.5,12.6,8.2L12.6,8.2z"/>
			<path class="st3" d="M12.9,7.5l-0.1-2c0,0,0,0,0,0c0,0,0,0,0,0l-0.1,2H12.9z"/>
			<g class="st4">
				<path class="st5" d="M12.9,7.5l-0.1-2c0,0,0,0,0,0c0,0,0,0,0,0l-0.1,2l0.1-2c0,0,0,0,0,0c0,0,0,0,0,0L12.9,7.5L12.9,7.5
					L12.9,7.5z"/>
			</g>
			<polygon class="st6" points="12.9,7.5 12.8,6.1 12.8,7.5 			"/>
			<path class="st3" d="M13,6.8c0.1-0.3,0-0.5,0.1-0.7c0.1-0.2,0-0.4,0.1-0.5c0-0.1,0.1-0.1,0.1-0.2c0,0-0.1,0-0.1,0.2
				c0,0.1,0,0.2-0.1,0.5c-0.1,0.3,0,0.4-0.2,0.6L13,6.8z"/>
			<g class="st4">
				<path class="st5" d="M13,6.8L13,6.8c0-0.1,0-0.2,0.1-0.4c0-0.1,0-0.2,0.1-0.3c0.1-0.2,0.1-0.3,0.1-0.4c0,0,0-0.1,0-0.1
					c0-0.1,0-0.1,0.1-0.1c0,0,0,0,0,0c0,0-0.1,0.1-0.1,0.2c0,0,0,0.1,0,0.1c0,0.1,0,0.2-0.1,0.4c-0.1,0.1-0.1,0.2-0.1,0.3
					c0,0.1,0,0.2-0.1,0.3c0.1-0.1,0.1-0.2,0.1-0.3c0-0.1,0-0.2,0.1-0.3c0.1-0.2,0.1-0.3,0.1-0.4c0,0,0-0.1,0-0.1
					c0-0.1,0.1-0.2,0.1-0.2l0,0l0,0c0,0,0,0,0,0c0,0,0,0.1-0.1,0.1c0,0,0,0.1,0,0.1c0,0.1,0,0.2-0.1,0.4c-0.1,0.1-0.1,0.2-0.1,0.3
					C13.1,6.6,13.1,6.7,13,6.8L13,6.8z"/>
			</g>
			<path class="st6" d="M13,6.7c0.1-0.3,0-0.4,0.1-0.6C13,6.3,13,6.5,13,6.7L13,6.7z"/>
			<path class="st3" d="M12.8,7.4l-2,0.1c0,0,0,0,0,0c0,0,0,0,0,0l2,0.1V7.4z"/>
			<g class="st4">
				<path class="st5" d="M12.8,7.6l-2-0.1c0,0,0,0,0,0c0,0,0,0,0,0l2-0.1l0,0l-2,0.1c0,0,0,0,0,0c0,0,0,0,0,0L12.8,7.6L12.8,7.6z"/>
			</g>
			<polygon class="st6" points="12.8,7.4 11.4,7.5 12.8,7.5 			"/>
			<path class="st3" d="M12.2,7.3c-0.3-0.1-0.5,0-0.7-0.1c-0.2-0.1-0.4,0-0.5-0.1c-0.1,0-0.1-0.1-0.2-0.1c0,0,0,0.1,0.2,0.1
				c0.1,0,0.2,0,0.5,0.1c0.3,0.1,0.4,0,0.6,0.2L12.2,7.3z"/>
			<g class="st4">
				<path class="st5" d="M12.1,7.4c-0.1-0.1-0.2-0.1-0.3-0.1c-0.1,0-0.2,0-0.3-0.1c-0.2-0.1-0.3-0.1-0.4-0.1c0,0-0.1,0-0.1,0
					c-0.1,0-0.2-0.1-0.2-0.1l0,0l0,0c0,0,0,0,0,0c0,0,0.1,0,0.1,0.1c0,0,0.1,0,0.1,0c0.1,0,0.2,0,0.4,0.1c0.1,0.1,0.2,0.1,0.3,0.1
					c0.1,0,0.2,0,0.4,0.1l0,0c-0.1-0.1-0.2-0.1-0.4-0.1c-0.1,0-0.2,0-0.3-0.1c-0.2-0.1-0.3-0.1-0.4-0.1c0,0-0.1,0-0.1,0
					c-0.1,0-0.1,0-0.1-0.1c0,0,0,0,0,0c0,0.1,0.1,0.1,0.2,0.1c0,0,0.1,0,0.1,0c0.1,0,0.2,0,0.4,0.1c0.1,0.1,0.2,0.1,0.3,0.1
					C11.9,7.3,12,7.4,12.1,7.4L12.1,7.4z"/>
			</g>
			<path class="st6" d="M12.1,7.3c-0.3-0.1-0.4,0-0.6-0.1C11.6,7.3,11.8,7.2,12.1,7.3L12.1,7.3z"/>
			<path class="st3" d="M12.8,7.6l2-0.1c0,0,0,0,0,0c0,0,0,0,0,0l-2-0.1V7.6z"/>
			<g class="st4">
				<path class="st5" d="M12.8,7.6L12.8,7.6l2-0.1c0,0,0,0,0,0c0,0,0,0,0,0l-2-0.1l2,0.1c0,0,0,0,0,0c0,0,0,0,0,0L12.8,7.6L12.8,7.6
					z"/>
			</g>
			<polygon class="st6" points="12.8,7.5 14.2,7.5 12.8,7.4 			"/>
			<path class="st3" d="M13.5,7.7c0.3,0.1,0.5,0,0.7,0.1c0.2,0.1,0.4,0,0.5,0.1c0.1,0,0.1,0.1,0.2,0.1c0,0,0-0.1-0.2-0.1
				c-0.1,0-0.2,0-0.5-0.1c-0.3-0.1-0.4,0-0.6-0.2L13.5,7.7z"/>
			<g class="st4">
				<path class="st5" d="M14.8,7.9C14.8,7.9,14.8,7.9,14.8,7.9c-0.1,0-0.1-0.1-0.1-0.1c0,0-0.1,0-0.1,0c-0.1,0-0.2,0-0.4-0.1
					c-0.1-0.1-0.2-0.1-0.3-0.1c-0.1,0-0.2,0-0.4-0.1l0,0c0.1,0.1,0.2,0.1,0.4,0.1c0.1,0,0.2,0,0.3,0.1c0.2,0.1,0.3,0.1,0.4,0.1
					c0,0,0.1,0,0.1,0C14.7,7.8,14.8,7.9,14.8,7.9C14.8,7.9,14.8,7.9,14.8,7.9c0-0.1,0-0.1-0.2-0.1c0,0-0.1,0-0.1,0
					c-0.1,0-0.2,0-0.4-0.1c-0.1-0.1-0.2-0.1-0.3-0.1c-0.1,0-0.2,0-0.3-0.1c0.1,0.1,0.2,0.1,0.3,0.1c0.1,0,0.2,0,0.3,0.1
					c0.2,0.1,0.3,0.1,0.4,0.1c0,0,0.1,0,0.1,0C14.8,7.8,14.8,7.9,14.8,7.9L14.8,7.9L14.8,7.9C14.8,7.9,14.8,7.9,14.8,7.9L14.8,7.9z"
					/>
			</g>
			<path class="st6" d="M13.5,7.6c0.3,0.1,0.4,0,0.6,0.1C14,7.6,13.8,7.7,13.5,7.6L13.5,7.6z"/>
			<path class="st3" d="M12.7,7.4l-1.4,1.5c0,0,0,0,0,0c0,0,0,0,0,0l1.5-1.4L12.7,7.4z"/>
			<g class="st4">
				<path class="st5" d="M11.4,9C11.3,8.9,11.3,8.9,11.4,9l1.4-1.6l0,0L11.4,9C11.4,8.9,11.3,8.9,11.4,9C11.4,8.9,11.4,8.9,11.4,9
					l1.5-1.4L11.4,9C11.4,8.9,11.4,9,11.4,9L11.4,9z"/>
			</g>
			<polygon class="st6" points="12.8,7.4 11.8,8.5 12.8,7.5 			"/>
			<path class="st3" d="M12.2,7.8c-0.3,0.1-0.3,0.3-0.6,0.4c-0.2,0.1-0.3,0.3-0.4,0.3c-0.1,0.1-0.2,0-0.2,0.1c0,0,0.1,0.1,0.2,0
				c0.1-0.1,0.1-0.2,0.4-0.3C12,8.2,12,8,12.3,8L12.2,7.8z"/>
			<g class="st4">
				<path class="st5" d="M11.1,8.6C11.1,8.6,11.1,8.6,11.1,8.6L11.1,8.6C11.1,8.6,11.1,8.6,11.1,8.6c0-0.1,0-0.1,0.1-0.1
					c0,0,0,0,0.1-0.1c0.1-0.1,0.2-0.2,0.3-0.3c0.1,0,0.2-0.1,0.3-0.2c0.1-0.1,0.2-0.2,0.3-0.2l0,0c-0.1,0-0.2,0.1-0.3,0.2
					c-0.1,0.1-0.2,0.2-0.3,0.2c-0.2,0.1-0.3,0.2-0.3,0.2C11.3,8.5,11.3,8.5,11.1,8.6C11.2,8.6,11.1,8.6,11.1,8.6
					C11.1,8.6,11.1,8.6,11.1,8.6c0,0,0.1,0,0.1-0.1c0,0,0.1-0.1,0.1-0.1c0.1-0.1,0.1-0.1,0.3-0.2c0.1,0,0.2-0.1,0.3-0.2
					C12.1,8,12.1,8,12.3,7.9c-0.1,0-0.2,0.1-0.3,0.2c-0.1,0.1-0.1,0.1-0.3,0.2c-0.2,0.1-0.3,0.1-0.3,0.2c0,0-0.1,0.1-0.1,0.1
					C11.2,8.6,11.2,8.6,11.1,8.6L11.1,8.6z"/>
			</g>
			<path class="st6" d="M12.2,7.9c-0.2,0.1-0.3,0.3-0.5,0.4C11.9,8.2,11.9,8,12.2,7.9L12.2,7.9z"/>
			<path class="st3" d="M12.9,7.5L14.3,6c0,0,0,0,0,0c0,0,0,0,0,0l-1.5,1.4L12.9,7.5z"/>
			<g class="st4">
				<path class="st5" d="M12.9,7.5L12.9,7.5L14.3,6c0,0,0,0,0,0c0,0,0,0,0,0l-1.5,1.4L14.2,6c0,0,0,0,0.1,0c0,0,0,0,0,0.1L12.9,7.5
					L12.9,7.5z"/>
			</g>
			<polygon class="st6" points="12.8,7.5 13.8,6.5 12.8,7.4 			"/>
			<path class="st3" d="M13.4,7.1C13.7,7,13.8,6.8,14,6.7c0.2-0.1,0.3-0.3,0.4-0.3c0.1-0.1,0.2,0,0.2-0.1c0,0-0.1-0.1-0.2,0
				c-0.1,0.1-0.1,0.2-0.4,0.3c-0.3,0.1-0.3,0.3-0.6,0.3L13.4,7.1z"/>
			<g class="st4">
				<path class="st5" d="M13.4,7.1L13.4,7.1c0.1-0.1,0.2-0.1,0.3-0.2c0.1-0.1,0.2-0.2,0.3-0.2c0.2-0.1,0.3-0.2,0.3-0.2
					c0,0,0-0.1,0.1-0.1c0,0,0.1,0,0.1,0c0,0,0,0,0,0c0,0-0.1,0-0.2,0c0,0-0.1,0.1-0.1,0.1c-0.1,0.1-0.1,0.1-0.3,0.2
					c-0.1,0-0.2,0.1-0.3,0.2C13.6,6.9,13.5,7,13.4,7c0.1,0,0.2-0.1,0.3-0.2c0.1-0.1,0.1-0.1,0.3-0.2c0.2-0.1,0.3-0.1,0.3-0.2
					c0,0,0.1-0.1,0.1-0.1c0.1-0.1,0.2-0.1,0.2,0l0,0c0,0,0,0,0,0c0,0-0.1,0-0.1,0c0,0,0,0-0.1,0.1c-0.1,0.1-0.2,0.2-0.3,0.3
					c-0.1,0-0.2,0.1-0.3,0.2C13.6,7,13.5,7.1,13.4,7.1L13.4,7.1z"/>
			</g>
			<path class="st6" d="M13.4,7.1C13.7,7,13.7,6.8,14,6.7C13.8,6.7,13.7,6.9,13.4,7.1L13.4,7.1z"/>
			<path class="st3" d="M12.9,7.4L11.4,6c0,0,0,0,0,0c0,0,0,0,0,0l1.4,1.5L12.9,7.4z"/>
			<g class="st4">
				<path class="st5" d="M12.7,7.5l-1.4-1.5c0,0,0,0,0-0.1c0,0,0,0,0.1,0l1.5,1.4l0,0L11.4,6c0,0,0,0,0,0c0,0,0,0,0,0L12.7,7.5
					L12.7,7.5z"/>
			</g>
			<polygon class="st6" points="12.8,7.4 11.8,6.5 12.8,7.5 			"/>
			<path class="st3" d="M12.5,6.9c-0.1-0.3-0.3-0.3-0.4-0.6C12,6,11.8,6,11.8,5.9c-0.1-0.1,0-0.2-0.1-0.2c0,0-0.1,0.1,0,0.2
				c0.1,0.1,0.2,0.1,0.3,0.4c0.1,0.3,0.3,0.3,0.3,0.6L12.5,6.9z"/>
			<g class="st4">
				<path class="st5" d="M12.3,6.9c0-0.1-0.1-0.2-0.2-0.3C12.1,6.6,12,6.5,12,6.4c-0.1-0.2-0.1-0.3-0.2-0.3c0,0-0.1-0.1-0.1-0.1
					c-0.1-0.1-0.1-0.2,0-0.2l0,0c0,0,0,0,0,0c0,0,0,0.1,0,0.1c0,0,0,0,0.1,0.1C11.9,6,12,6.1,12.1,6.3c0,0.1,0.1,0.2,0.2,0.3
					c0.1,0.1,0.2,0.2,0.2,0.3l0,0c0-0.1-0.1-0.2-0.2-0.3c-0.1-0.1-0.2-0.2-0.2-0.3C12,6.1,11.9,6,11.8,6c0,0-0.1,0-0.1-0.1
					c0,0,0-0.1,0-0.1c0,0,0,0,0,0c0,0,0,0.1,0,0.2c0,0,0.1,0.1,0.1,0.1c0.1,0.1,0.1,0.1,0.2,0.3c0,0.1,0.1,0.2,0.2,0.3
					C12.2,6.7,12.3,6.8,12.3,6.9L12.3,6.9z"/>
			</g>
			<path class="st6" d="M12.4,6.8c-0.1-0.2-0.3-0.3-0.4-0.5C12.1,6.5,12.3,6.6,12.4,6.8L12.4,6.8z"/>
			<path class="st3" d="M12.7,7.5l1.5,1.4c0,0,0,0,0,0c0,0,0,0,0,0l-1.4-1.5L12.7,7.5z"/>
			<g class="st4">
				<path class="st5" d="M14.3,8.9C14.2,8.9,14.2,8.9,14.3,8.9l-1.5-1.4l0,0L14.3,8.9C14.2,8.9,14.3,8.9,14.3,8.9
					C14.3,8.9,14.3,8.9,14.3,8.9l-1.4-1.5L14.3,8.9C14.3,8.9,14.3,8.9,14.3,8.9C14.3,8.9,14.3,8.9,14.3,8.9L14.3,8.9z"/>
			</g>
			<polygon class="st6" points="12.8,7.5 13.8,8.5 12.8,7.4 			"/>
			<path class="st3" d="M13.1,8.1c0.1,0.3,0.3,0.3,0.4,0.6c0.1,0.2,0.3,0.3,0.3,0.4c0.1,0.1,0,0.2,0.1,0.2c0,0,0.1-0.1,0-0.2
				c-0.1-0.1-0.2-0.1-0.3-0.4c-0.1-0.3-0.3-0.3-0.3-0.6L13.1,8.1z"/>
			<g class="st4">
				<path class="st5" d="M13.9,9.2C13.9,9.2,13.9,9.2,13.9,9.2c0-0.1,0-0.1-0.1-0.2c0,0,0,0-0.1-0.1c-0.1-0.1-0.2-0.2-0.3-0.3
					c0-0.1-0.1-0.2-0.2-0.3c-0.1-0.1-0.2-0.2-0.2-0.3l0,0c0,0.1,0.1,0.2,0.2,0.3c0.1,0.1,0.2,0.2,0.2,0.3c0.1,0.2,0.2,0.3,0.2,0.3
					c0,0,0.1,0,0.1,0.1C13.9,9.1,13.9,9.1,13.9,9.2C13.9,9.2,13.9,9.2,13.9,9.2c0-0.1,0-0.1,0-0.2c0,0-0.1-0.1-0.1-0.1
					c-0.1-0.1-0.1-0.1-0.2-0.3c0-0.1-0.1-0.2-0.2-0.3c-0.1-0.1-0.1-0.1-0.2-0.3c0,0.1,0.1,0.2,0.2,0.3c0.1,0.1,0.1,0.1,0.2,0.3
					c0.1,0.2,0.1,0.3,0.2,0.3c0,0,0.1,0.1,0.1,0.1C14,9.1,14,9.2,13.9,9.2L13.9,9.2L13.9,9.2z"/>
			</g>
			<path class="st6" d="M13.2,8.1c0.1,0.2,0.3,0.3,0.4,0.5C13.6,8.4,13.4,8.3,13.2,8.1L13.2,8.1z"/>
			<path class="st3" d="M12.7,7.4L12,9.3c0,0,0,0,0,0c0,0,0,0,0,0l0.9-1.9L12.7,7.4z"/>
			<g class="st4">
				<path class="st5" d="M12,9.4C12,9.4,12,9.4,12,9.4l0.7-2l0,0L12,9.4C12,9.3,12,9.4,12,9.4L12,9.4l0.9-1.9L12,9.4
					C12.1,9.4,12,9.4,12,9.4L12,9.4z"/>
			</g>
			<polygon class="st6" points="12.8,7.5 12.3,8.8 12.9,7.5 			"/>
			<path class="st3" d="M12.4,8c-0.2,0.2-0.2,0.4-0.4,0.6C11.8,8.8,11.8,9,11.7,9c0,0.1-0.1,0.1-0.1,0.1c0,0,0.1,0,0.2-0.1
				c0.1-0.1,0-0.2,0.3-0.4c0.2-0.2,0.2-0.4,0.4-0.5L12.4,8z"/>
			<g class="st4">
				<path class="st5" d="M11.7,9.2C11.7,9.2,11.6,9.2,11.7,9.2L11.7,9.2C11.6,9.1,11.6,9.1,11.7,9.2c0-0.1,0.1-0.1,0.1-0.1
					c0,0,0-0.1,0-0.1c0-0.1,0.1-0.2,0.2-0.4c0.1-0.1,0.1-0.2,0.2-0.3c0-0.1,0.1-0.2,0.2-0.3l0,0c-0.1,0.1-0.1,0.2-0.2,0.3
					c0,0.1-0.1,0.2-0.2,0.3c-0.1,0.1-0.2,0.3-0.2,0.4c0,0,0,0.1,0,0.1C11.7,9.1,11.7,9.1,11.7,9.2C11.6,9.1,11.6,9.2,11.7,9.2
					c0,0,0.1,0,0.2-0.1c0,0,0-0.1,0.1-0.1c0-0.1,0.1-0.2,0.2-0.3c0.1-0.1,0.2-0.2,0.2-0.3c0-0.1,0.1-0.2,0.2-0.3
					c-0.1,0.1-0.1,0.2-0.2,0.3c0,0.1-0.1,0.2-0.2,0.3c-0.2,0.1-0.2,0.2-0.2,0.3c0,0,0,0.1-0.1,0.1C11.8,9.1,11.7,9.2,11.7,9.2
					L11.7,9.2z"/>
			</g>
			<path class="st6" d="M12.4,8.1c-0.2,0.2-0.2,0.4-0.4,0.5C12.2,8.5,12.2,8.3,12.4,8.1L12.4,8.1z"/>
			<path class="st3" d="M12.9,7.5l0.7-1.9c0,0,0,0,0,0c0,0,0,0,0,0l-0.9,1.9L12.9,7.5z"/>
			<g class="st4">
				<path class="st5" d="M12.9,7.5L12.9,7.5l0.7-1.9c0,0,0,0,0,0l0,0l-0.8,1.9l0.8-1.9c0,0,0,0,0,0l0,0c0,0,0,0,0,0L12.9,7.5
					L12.9,7.5z"/>
			</g>
			<polygon class="st6" points="12.9,7.5 13.3,6.2 12.8,7.5 			"/>
			<path class="st3" d="M13.2,6.9c0.2-0.2,0.2-0.4,0.4-0.6c0.2-0.2,0.2-0.4,0.2-0.5c0-0.1,0.1-0.1,0.1-0.1c0,0-0.1,0-0.2,0.1
				c-0.1,0.1,0,0.2-0.3,0.4c-0.2,0.2-0.2,0.4-0.4,0.5L13.2,6.9z"/>
			<g class="st4">
				<path class="st5" d="M13.2,6.9L13.2,6.9c0.1-0.1,0.1-0.2,0.2-0.3c0-0.1,0.1-0.2,0.2-0.3c0.1-0.1,0.2-0.3,0.2-0.4
					c0,0,0-0.1,0-0.1c0-0.1,0.1-0.1,0.1-0.1c0,0,0,0,0,0c0,0-0.1,0-0.2,0.1c0,0,0,0.1-0.1,0.1c0,0.1-0.1,0.2-0.2,0.3
					c-0.1,0.1-0.2,0.2-0.2,0.3c0,0.1-0.1,0.2-0.2,0.3c0.1-0.1,0.1-0.2,0.2-0.3c0-0.1,0.1-0.2,0.2-0.3c0.2-0.1,0.2-0.2,0.2-0.3
					c0,0,0-0.1,0.1-0.1c0.1-0.1,0.1-0.1,0.2-0.1l0,0c0,0,0,0,0,0c0,0-0.1,0-0.1,0.1c0,0,0,0.1,0,0.1c0,0.1-0.1,0.2-0.2,0.4
					c-0.1,0.1-0.1,0.2-0.2,0.3C13.4,6.7,13.3,6.8,13.2,6.9L13.2,6.9z"/>
			</g>
			<path class="st6" d="M13.2,6.9c0.2-0.2,0.2-0.4,0.4-0.5C13.4,6.4,13.4,6.6,13.2,6.9L13.2,6.9z"/>
			<path class="st3" d="M12.8,7.4l-1.9-0.7c0,0,0,0,0,0c0,0,0,0,0,0l1.9,0.8L12.8,7.4z"/>
			<g class="st4">
				<path class="st5" d="M12.8,7.6l-1.9-0.8c0,0,0,0,0,0c0,0,0,0,0.1,0l1.9,0.7l0,0l-1.9-0.7c0,0,0,0,0,0c0,0,0,0,0,0L12.8,7.6
					L12.8,7.6z"/>
			</g>
			<polygon class="st6" points="12.8,7.4 11.5,6.9 12.8,7.5 			"/>
			<path class="st3" d="M12.3,7c-0.2-0.2-0.4-0.2-0.6-0.4c-0.2-0.2-0.4-0.2-0.5-0.2c-0.1,0-0.1-0.1-0.1-0.1c0,0,0,0.1,0.1,0.2
				c0.1,0.1,0.2,0,0.4,0.3C11.8,7,12,6.9,12.2,7.2L12.3,7z"/>
			<g class="st4">
				<path class="st5" d="M12.2,7.2C12.1,7,12,7,11.9,7c-0.1,0-0.2-0.1-0.3-0.2c-0.1-0.2-0.2-0.2-0.3-0.2c0,0-0.1,0-0.1-0.1
					c-0.1-0.1-0.1-0.1-0.1-0.2l0,0c0,0,0,0,0,0c0,0,0,0.1,0.1,0.1c0,0,0.1,0,0.1,0c0.1,0,0.2,0.1,0.4,0.2c0.1,0.1,0.2,0.1,0.3,0.2
					c0.1,0,0.2,0.1,0.3,0.2l0,0c-0.1-0.1-0.2-0.2-0.3-0.2c-0.1,0-0.2-0.1-0.3-0.2c-0.1-0.1-0.3-0.2-0.4-0.2c0,0-0.1,0-0.1,0
					c-0.1,0-0.1-0.1-0.1-0.1c0,0,0,0,0,0c0,0,0,0.1,0.1,0.2c0,0,0.1,0,0.1,0.1c0.1,0,0.2,0.1,0.3,0.2c0.1,0.1,0.2,0.2,0.3,0.2
					C12,7,12.1,7,12.2,7.2L12.2,7.2z"/>
			</g>
			<path class="st6" d="M12.2,7c-0.2-0.2-0.4-0.2-0.5-0.4C11.7,6.9,12,6.9,12.2,7L12.2,7z"/>
			<path class="st3" d="M12.8,7.6l1.9,0.7c0,0,0,0,0,0c0,0,0,0,0,0l-1.9-0.9L12.8,7.6z"/>
			<g class="st4">
				<path class="st5" d="M14.7,8.3C14.7,8.3,14.7,8.3,14.7,8.3l-1.9-0.7l0,0L14.7,8.3C14.7,8.3,14.7,8.3,14.7,8.3
					C14.7,8.2,14.7,8.2,14.7,8.3l-1.9-0.9L14.7,8.3C14.7,8.2,14.7,8.2,14.7,8.3C14.7,8.3,14.7,8.3,14.7,8.3L14.7,8.3z"/>
			</g>
			<polygon class="st6" points="12.8,7.5 14.1,8 12.8,7.4 			"/>
			<path class="st3" d="M13.3,7.9c0.2,0.2,0.4,0.2,0.6,0.4c0.2,0.2,0.4,0.2,0.5,0.2c0.1,0,0.1,0.1,0.1,0.1c0,0,0-0.1-0.1-0.2
				c-0.1-0.1-0.2,0-0.4-0.3C13.8,8,13.6,8,13.5,7.8L13.3,7.9z"/>
			<g class="st4">
				<path class="st5" d="M14.5,8.7C14.5,8.7,14.5,8.6,14.5,8.7c0-0.1-0.1-0.1-0.1-0.1c0,0-0.1,0-0.1,0c-0.1,0-0.2-0.1-0.4-0.2
					c-0.1-0.1-0.2-0.1-0.3-0.2c-0.1,0-0.2-0.1-0.3-0.2l0,0C13.4,8,13.5,8,13.6,8.1c0.1,0,0.2,0.1,0.3,0.2c0.1,0.1,0.3,0.2,0.4,0.2
					c0,0,0.1,0,0.1,0C14.4,8.6,14.5,8.6,14.5,8.7C14.5,8.6,14.5,8.7,14.5,8.7c0-0.1,0-0.1-0.1-0.2c0,0-0.1,0-0.1-0.1
					c-0.1,0-0.2-0.1-0.3-0.2C13.9,8.1,13.8,8,13.7,8c-0.1,0-0.2-0.1-0.3-0.2c0.1,0.1,0.2,0.1,0.3,0.2c0.1,0,0.2,0.1,0.3,0.2
					c0.1,0.2,0.2,0.2,0.3,0.2c0,0,0.1,0,0.1,0.1C14.5,8.5,14.5,8.6,14.5,8.7L14.5,8.7C14.5,8.7,14.5,8.7,14.5,8.7L14.5,8.7z"/>
			</g>
			<path class="st6" d="M13.4,7.9c0.2,0.2,0.4,0.2,0.5,0.4C13.9,8.1,13.7,8.1,13.4,7.9L13.4,7.9z"/>
			<path class="st3" d="M12.8,7.4l-1.9,0.9c0,0,0,0,0,0c0,0,0,0,0,0l1.9-0.7L12.8,7.4z"/>
			<g class="st4">
				<path class="st5" d="M10.9,8.3C10.9,8.3,10.9,8.3,10.9,8.3C10.9,8.2,10.9,8.2,10.9,8.3l1.9-0.9l0,0L10.9,8.3
					C10.9,8.2,10.9,8.2,10.9,8.3C10.9,8.3,10.9,8.3,10.9,8.3l1.9-0.7L10.9,8.3C10.9,8.3,10.9,8.3,10.9,8.3L10.9,8.3z"/>
			</g>
			<polygon class="st6" points="12.8,7.4 11.5,8 12.8,7.5 			"/>
			<path class="st3" d="M12.1,7.5c-0.3,0-0.4,0.2-0.7,0.1c-0.3,0-0.4,0.1-0.5,0.1c-0.1,0-0.2,0-0.2,0c0,0,0.1,0.1,0.2,0.1
				c0.1,0,0.2-0.1,0.5-0.1c0.3,0,0.4-0.1,0.7-0.1V7.5z"/>
			<g class="st4">
				<path class="st5" d="M10.9,7.9c-0.1,0-0.1,0-0.1-0.1l0,0c0,0,0,0,0,0C10.8,7.8,10.9,7.8,10.9,7.9C11,7.8,11,7.8,11,7.8
					c0.1-0.1,0.2-0.1,0.4-0.1c0.1,0,0.2,0,0.3-0.1c0.1,0,0.2-0.1,0.4-0.1l0,0c-0.1,0-0.2,0-0.4,0.1c-0.1,0-0.2,0.1-0.3,0.1
					c-0.2,0-0.3,0.1-0.4,0.1C11,7.8,11,7.8,10.9,7.9c0-0.1-0.1-0.1-0.1-0.1c0,0,0,0,0,0C10.8,7.9,10.9,7.9,10.9,7.9
					c0.1,0,0.1,0,0.2-0.1c0.1,0,0.2-0.1,0.4-0.1c0.2,0,0.2,0,0.3,0c0.1,0,0.2-0.1,0.3,0c-0.1,0-0.2,0-0.3,0.1c-0.1,0-0.2,0.1-0.3,0
					c-0.2,0-0.3,0-0.4,0.1C11.1,7.9,11,7.9,10.9,7.9C11,7.9,10.9,7.9,10.9,7.9L10.9,7.9z"/>
			</g>
			<path class="st6" d="M12.1,7.6c-0.3,0-0.4,0.2-0.6,0.1C11.6,7.8,11.8,7.6,12.1,7.6L12.1,7.6z"/>
			<path class="st3" d="M12.8,7.6l1.9-0.8c0,0,0,0,0,0c0,0,0,0,0,0l-1.9,0.7L12.8,7.6z"/>
			<g class="st4">
				<path class="st5" d="M12.8,7.6L12.8,7.6l1.8-0.9c0,0,0,0,0,0c0,0,0,0,0,0l-1.9,0.7l1.9-0.7c0,0,0,0,0.1,0c0,0,0,0,0,0L12.8,7.6
					L12.8,7.6z"/>
			</g>
			<polygon class="st6" points="12.8,7.5 14.1,6.9 12.8,7.4 			"/>
			<path class="st3" d="M13.5,7.4c0.3,0,0.4-0.2,0.7-0.1c0.3,0,0.4-0.1,0.5-0.1c0.1,0,0.2,0,0.2,0c0,0-0.1-0.1-0.2-0.1
				c-0.1,0-0.2,0.1-0.5,0.1c-0.3,0-0.4,0.1-0.7,0.1V7.4z"/>
			<g class="st4">
				<path class="st5" d="M13.5,7.4C13.5,7.4,13.5,7.4,13.5,7.4L13.5,7.4c0.1,0,0.2,0,0.3-0.1c0.1,0,0.2-0.1,0.3-0.1
					c0.2,0,0.3-0.1,0.4-0.1c0,0,0.1,0,0.1,0c0.1,0,0.1,0,0.1,0c0,0,0,0,0,0c0,0-0.1-0.1-0.2-0.1c0,0-0.1,0-0.1,0
					c-0.1,0-0.2,0.1-0.4,0.1c-0.2,0-0.2,0-0.3,0c-0.1,0-0.2,0.1-0.3,0c0.1,0,0.2,0,0.3-0.1c0.1,0,0.2-0.1,0.3,0c0.2,0,0.3,0,0.4-0.1
					c0,0,0.1,0,0.1,0c0.1,0,0.2,0,0.2,0l0,0c0,0,0,0,0,0c0,0-0.1,0-0.1,0c0,0-0.1,0-0.1,0c-0.1,0.1-0.2,0.1-0.4,0.1
					c-0.1,0-0.2,0-0.3,0.1C13.7,7.4,13.6,7.4,13.5,7.4L13.5,7.4z"/>
			</g>
			<path class="st6" d="M13.5,7.3c0.3,0,0.4-0.2,0.6-0.1C14,7.1,13.8,7.3,13.5,7.3L13.5,7.3z"/>
			<path class="st3" d="M12.9,7.4l-0.9-1.9c0,0,0,0,0,0c0,0,0,0,0,0l0.7,1.9L12.9,7.4z"/>
			<g class="st4">
				<path class="st5" d="M12.7,7.5L12,5.6c0,0,0,0,0,0l0,0c0,0,0,0,0,0l0.9,1.9l0,0L12,5.6l0,0l0,0L12.7,7.5L12.7,7.5z"/>
			</g>
			<polygon class="st6" points="12.9,7.5 12.3,6.2 12.8,7.5 			"/>
			<path class="st3" d="M12.7,6.8c0-0.3-0.2-0.4-0.1-0.7c0-0.3-0.1-0.4-0.1-0.5c0-0.1,0-0.2,0-0.2c0,0-0.1,0.1-0.1,0.2
				c0,0.1,0.1,0.2,0.1,0.5c0,0.3,0.1,0.4,0.1,0.7L12.7,6.8z"/>
			<g class="st4">
				<path class="st5" d="M12.7,6.8L12.7,6.8c0-0.1,0-0.2-0.1-0.4c0-0.1-0.1-0.2-0.1-0.3c0-0.2-0.1-0.3-0.1-0.4c0,0,0-0.1,0-0.1
					c0-0.1,0-0.1,0-0.1c0,0,0,0,0,0c0,0-0.1,0.1-0.1,0.2c0,0,0,0.1,0,0.1c0,0.1,0.1,0.2,0.1,0.4c0,0.2,0,0.2,0,0.3
					c0,0.1,0.1,0.2,0,0.3c0-0.1,0-0.2-0.1-0.3c0-0.1-0.1-0.2,0-0.3c0-0.2,0-0.3-0.1-0.4c0,0,0-0.1,0-0.1c0-0.1,0-0.2,0-0.2l0,0
					c0,0,0,0,0,0c0,0,0,0.1,0,0.1c0,0,0,0.1,0,0.1c0.1,0.1,0.1,0.2,0.1,0.4c0,0.1,0,0.2,0.1,0.3C12.7,6.5,12.7,6.6,12.7,6.8
					L12.7,6.8z"/>
			</g>
			<path class="st6" d="M12.7,6.7c0-0.3-0.2-0.4-0.1-0.6C12.5,6.3,12.6,6.5,12.7,6.7L12.7,6.7z"/>
			<path class="st3" d="M12.7,7.5l0.9,1.9c0,0,0,0,0,0c0,0,0,0,0,0l-0.7-1.9L12.7,7.5z"/>
			<g class="st4">
				<path class="st5" d="M13.6,9.4C13.6,9.4,13.6,9.4,13.6,9.4l-0.9-1.9l0,0L13.6,9.4C13.6,9.4,13.6,9.4,13.6,9.4
					C13.6,9.4,13.6,9.3,13.6,9.4l-0.7-2L13.6,9.4C13.6,9.4,13.6,9.4,13.6,9.4L13.6,9.4z"/>
			</g>
			<polygon class="st6" points="12.8,7.5 13.3,8.8 12.9,7.5 			"/>
			<path class="st3" d="M12.9,8.2c0,0.3,0.2,0.4,0.1,0.7c0,0.3,0.1,0.4,0.1,0.5c0,0.1,0,0.2,0,0.2c0,0,0.1-0.1,0.1-0.2
				c0-0.1-0.1-0.2-0.1-0.5c0-0.3-0.1-0.4-0.1-0.7L12.9,8.2z"/>
			<g class="st4">
				<path class="st5" d="M13.2,9.5C13.1,9.5,13.2,9.5,13.2,9.5c0-0.1,0-0.1,0-0.2c0,0,0-0.1,0-0.1C13.1,9.2,13,9,13,8.8
					c0-0.1,0-0.2-0.1-0.3c0-0.1-0.1-0.2-0.1-0.4l0,0c0,0.1,0,0.2,0.1,0.4C13,8.6,13,8.7,13,8.8c0,0.2,0.1,0.3,0.1,0.4
					c0,0,0,0.1,0,0.1C13.2,9.4,13.2,9.4,13.2,9.5C13.2,9.5,13.2,9.5,13.2,9.5c0.1,0,0.1-0.1,0.1-0.2c0,0,0-0.1,0-0.1
					c0-0.1-0.1-0.2-0.1-0.4c0-0.2,0-0.2,0-0.3c0-0.1-0.1-0.2,0-0.3c0,0.1,0,0.2,0.1,0.3c0,0.1,0.1,0.2,0,0.3c0,0.2,0,0.3,0.1,0.4
					c0,0,0,0.1,0,0.1C13.3,9.4,13.2,9.5,13.2,9.5L13.2,9.5L13.2,9.5z"/>
			</g>
			<path class="st6" d="M12.9,8.2c0,0.3,0.2,0.4,0.1,0.6C13.1,8.6,13,8.5,12.9,8.2L12.9,8.2z"/>
			<path class="st3" d="M12.8,6.6c0.5,0,0.8,0.4,0.8,0.8c0,0.5-0.4,0.8-0.8,0.8c-0.5,0-0.8-0.4-0.8-0.8C12,7,12.4,6.6,12.8,6.6
				L12.8,6.6z"/>
			<g class="st4">
				<path class="st5" d="M12.8,8.3c-0.5,0-0.8-0.4-0.8-0.8c0-0.5,0.4-0.8,0.8-0.8c0.5,0,0.8,0.4,0.8,0.8C13.6,7.9,13.3,8.3,12.8,8.3
					L12.8,8.3z M12.8,6.6C12.4,6.6,12,7,12,7.5c0,0.5,0.4,0.8,0.8,0.8c0.5,0,0.8-0.4,0.8-0.8C13.6,7,13.3,6.6,12.8,6.6L12.8,6.6z"/>
			</g>
			<path class="st6" d="M13.3,7.3c-0.1-0.1-0.3-0.1-0.4-0.1c-0.1,0.1-0.1,0.2,0,0.3c0,0,0,0,0,0c-0.1-0.1-0.1-0.2,0-0.4
				C13,7.1,13.2,7.1,13.3,7.3L13.3,7.3z"/>
			<path class="st6" d="M13.1,7.3c-0.1,0-0.1,0-0.1,0.1c0,0-0.1,0-0.1,0c0,0,0,0,0,0c0,0,0,0,0.1-0.1C13,7.3,13.1,7.3,13.1,7.3
				c0.1,0,0.2,0.1,0.2,0.1C13.3,7.4,13.2,7.3,13.1,7.3L13.1,7.3z"/>
			<path class="st6" d="M13.2,7.4c-0.1-0.1-0.2-0.1-0.3,0h0C13,7.3,13.2,7.3,13.2,7.4L13.2,7.4L13.2,7.4z"/>
			<path class="st6" d="M13.1,7.3C13.1,7.3,13.1,7.3,13.1,7.3c0.1,0.1,0,0.1,0,0.1C13.1,7.4,13,7.4,13.1,7.3
				C13,7.3,13.1,7.3,13.1,7.3L13.1,7.3z"/>
			<path class="st6" d="M12.9,7.4c0.1,0.1,0.2,0.1,0.3,0l0,0C13.1,7.4,13,7.4,12.9,7.4L12.9,7.4L12.9,7.4z"/>
			<path class="st6" d="M13.3,7.4c-0.1,0.1-0.2,0.1-0.3,0c-0.1,0-0.1-0.1-0.1-0.1c0,0,0,0,0.1,0C13.1,7.4,13.1,7.4,13.3,7.4
				L13.3,7.4z"/>
			<path class="st6" d="M12.9,7.6C13,7.6,13,7.6,12.9,7.6C13,7.7,12.9,7.7,12.9,7.6C12.9,7.7,12.9,7.6,12.9,7.6
				c-0.1,0.1-0.1,0.1-0.1,0.1h0l0,0C12.8,7.7,12.9,7.7,12.9,7.6c0,0.1,0,0.1,0,0.1C13,7.7,13,7.6,12.9,7.6C13,7.6,13,7.6,12.9,7.6
				L12.9,7.6z"/>
			<path class="st6" d="M13,7.9c-0.1,0-0.1-0.1-0.1-0.1c0,0,0,0-0.1,0h0l0,0c0,0,0.1,0,0.1,0C13,7.8,13,7.8,13,7.9L13,7.9z"/>
			<path class="st6" d="M13,7.9c-0.1,0-0.2,0-0.2,0h0l0,0C12.9,7.9,12.9,7.8,13,7.9L13,7.9z"/>
			<path class="st6" d="M13,7.9c-0.1,0-0.1,0.1-0.2,0.1h0l0,0C12.9,7.9,12.9,7.9,13,7.9L13,7.9z"/>
			<path class="st6" d="M12.9,8.1c0-0.1-0.1-0.1-0.1-0.1c-0.1,0-0.1,0.1-0.1,0.1C12.7,8,12.8,8,12.9,8.1C12.9,8,12.9,8,12.9,8.1
				L12.9,8.1z"/>
			<path class="st6" d="M12.3,7.3c0.1-0.1,0.3-0.1,0.4-0.1c0.1,0.1,0.1,0.2,0,0.3c0,0,0,0,0,0c0.1-0.1,0.1-0.2,0-0.4
				C12.6,7.1,12.4,7.1,12.3,7.3L12.3,7.3z"/>
			<path class="st6" d="M12.5,7.3c0.1,0,0.1,0,0.1,0.1c0,0,0.1,0,0.1,0c0,0,0,0,0,0c0,0,0,0-0.1-0.1C12.6,7.3,12.6,7.3,12.5,7.3
				c-0.1,0-0.2,0.1-0.2,0.1C12.3,7.4,12.4,7.3,12.5,7.3L12.5,7.3z"/>
			<path class="st6" d="M12.4,7.4c0.1-0.1,0.2-0.1,0.3,0h0C12.6,7.3,12.4,7.3,12.4,7.4L12.4,7.4L12.4,7.4z"/>
			<path class="st6" d="M12.5,7.3C12.5,7.3,12.5,7.3,12.5,7.3c-0.1,0.1,0,0.1,0,0.1C12.6,7.4,12.6,7.4,12.5,7.3
				C12.6,7.3,12.6,7.3,12.5,7.3L12.5,7.3z"/>
			<path class="st6" d="M12.7,7.4c-0.1,0.1-0.2,0.1-0.3,0l0,0C12.5,7.4,12.6,7.4,12.7,7.4L12.7,7.4L12.7,7.4z"/>
			<path class="st6" d="M12.4,7.4c0.1,0.1,0.2,0.1,0.3,0c0.1,0,0.1-0.1,0.1-0.1c0,0,0,0-0.1,0C12.6,7.4,12.5,7.4,12.4,7.4L12.4,7.4z
				"/>
			<path class="st6" d="M12.7,7.6C12.7,7.6,12.6,7.6,12.7,7.6C12.7,7.7,12.7,7.7,12.7,7.6C12.7,7.7,12.7,7.6,12.7,7.6
				c0.1,0.1,0.1,0.1,0.1,0.1h0l0,0C12.8,7.7,12.8,7.7,12.7,7.6c0,0.1,0,0.1,0,0.1C12.6,7.7,12.6,7.6,12.7,7.6
				C12.6,7.6,12.7,7.6,12.7,7.6L12.7,7.6z"/>
			<path class="st6" d="M12.6,7.9c0.1,0,0.1-0.1,0.1-0.1c0,0,0,0,0.1,0h0l0,0c0,0-0.1,0-0.1,0C12.7,7.8,12.6,7.8,12.6,7.9L12.6,7.9z
				"/>
			<path class="st6" d="M12.6,7.9c0.1,0,0.2,0,0.2,0h0l0,0C12.8,7.9,12.7,7.8,12.6,7.9L12.6,7.9z"/>
			<path class="st6" d="M12.6,7.9c0.1,0,0.1,0.1,0.2,0.1h0l0,0C12.7,7.9,12.7,7.9,12.6,7.9L12.6,7.9z"/>
			<path class="st6" d="M12.7,8.1c0-0.1,0.1-0.1,0.1-0.1c0.1,0,0.1,0.1,0.1,0.1C12.9,8,12.8,8,12.7,8.1C12.7,8,12.7,8,12.7,8.1
				L12.7,8.1z"/>
		</g>
	</g>
</g>
</svg>
