<?xml version="1.0" encoding="utf-8"?>
<!-- Generator: Adobe Illustrator 19.0.0, SVG Export Plug-In . SVG Version: 6.00 Build 0)  -->
<svg version="1.1" id="Layer_1" xmlns="http://www.w3.org/2000/svg" xmlns:xlink="http://www.w3.org/1999/xlink" x="0px" y="0px"
	 viewBox="-249 342.8 111.1 108.2" style="enable-background:new -249 342.8 111.1 108.2;" xml:space="preserve">
<style type="text/css">
	.st0{fill:none;stroke:#1D1D1B;stroke-width:2.951200e-002;stroke-miterlimit:10;}
	.st1{fill:#1F307A;}
	.st2{fill:#BCBCBB;}
	.st3{fill:#0AADD9;}
	.st4{fill:#FFFFFF;}
	.st5{fill:url(#SVGID_1_);}
	.st6{fill:url(#SVGID_2_);}
	.st7{fill:url(#SVGID_3_);}
	.st8{fill:url(#SVGID_4_);}
	.st9{fill:url(#SVGID_5_);}
	.st10{fill:url(#SVGID_6_);}
</style>
<g>
	<path class="st0" d="M-198.6,406.2"/>
	<path class="st0" d="M-207.1,413.3"/>
	<g>
		<g>
			<g id="XMLID_100_">
				<path id="XMLID_110_" class="st1" d="M-235,381.2c-0.4,0.1-0.7,0.2-1.1,0.2c-0.9,0-1.7-0.5-1.7-1.5c0-0.4,0.1-0.8,0.3-1.8
					c0.2-0.9,0.4-1.8,0.6-2.7c-0.3,0-0.5,0-0.9,0c0.1-0.2,0.1-0.3,0.1-0.7c0.4,0,0.7,0,0.9,0c0.1-0.4,0.1-0.9,0.2-1.5
					c0.9-0.3,1.2-0.4,2-0.9l0.1,0.1c-0.3,0.9-0.4,1.3-0.6,2.3c0.3,0,0.6,0,1.2,0c-0.1,0.3-0.1,0.5-0.1,0.7c-0.5,0-0.9,0-1.2,0
					c-0.1,0.7-0.7,3.4-0.8,3.8s-0.1,0.7-0.1,0.9c0,0.5,0.3,0.7,0.7,0.7c0.1,0,0.3,0,0.4-0.1V381.2z"/>
				<path id="XMLID_107_" class="st1" d="M-227.9,381c-0.3,0.2-0.5,0.4-1.1,0.4c-1,0-1.2-0.7-1.3-1c-0.4,0.7-1,1.1-1.8,1.1
					c-1.1,0-1.8-0.7-1.8-1.8c0-0.9,0.5-1.7,1.5-2c0.4-0.1,1.1-0.2,1.7-0.3c0.8-0.1,1-0.1,1-0.9c0-0.8-0.6-1-1.2-1
					c-0.6,0-1,0.2-1.4,0.5h-0.1c0-0.4,0.1-0.5,0.1-0.8c0.7-0.4,1.5-0.6,2.4-0.6c1,0,2.1,0.4,2.1,1.7c0,0.4-0.1,0.9-0.2,1.2l-0.4,1.7
					c-0.1,0.6-0.2,0.9-0.2,1.1s0.1,0.5,0.4,0.5c0.1,0,0.1,0,0.2-0.1L-227.9,381z M-231.3,380.5c0.8,0,1-1,1.2-1.7l0.2-1
					c-0.8,0.1-1.2,0.2-1.5,0.4c-0.4,0.3-0.6,0.9-0.6,1.4C-232.1,380-231.9,380.5-231.3,380.5z"/>
				<path id="XMLID_104_" class="st1" d="M-223.5,381.4c-0.8,0-1.5-0.4-1.9-1c-0.4,1.4-0.7,2.9-0.9,4.3c-0.2,0-0.5-0.1-0.9-0.1
					c-0.3,0-0.7,0-1,0.1c0.6-2.3,1.8-8,2.1-10c0.2,0,0.5,0.1,0.9,0.1c0.4,0,0.7,0,1-0.1c-0.1,0.3-0.2,0.6-0.3,0.9
					c0.5-0.7,1.1-1.1,2-1.1c0.8,0,2.3,0.5,2.3,2.6C-220.3,379.1-221.5,381.4-223.5,381.4z M-224.1,380.5c1.3,0,1.9-2.9,1.9-3.8
					c0-0.7-0.4-1.2-1-1.2c-1.4,0-1.9,2.8-1.9,3.7C-225.1,379.9-224.7,380.5-224.1,380.5z"/>
				<path id="XMLID_101_" class="st1" d="M-214.2,379.8c-0.1,0.2-0.2,0.4-0.3,0.9c-0.6,0.4-1.3,0.5-2,0.5c-2.1,0-3.1-1.5-3.1-3.1
					c0-1.8,1.2-3.7,3.6-3.7c1.7,0,2.6,1,2.6,2.4c0,0.3-0.1,0.7-0.1,1c-1.1,0-1.9-0.1-2.5-0.1c-0.4,0-0.8,0-1.6,0
					c0,0.2-0.1,0.5-0.1,0.7c0,1.1,0.5,1.8,1.6,1.8c0.5,0,1.2-0.2,1.7-0.7L-214.2,379.8z M-216,375.1c-0.9,0-1.3,1.1-1.5,2.2
					c0.3,0,0.6,0,1,0c0.3,0,0.7,0,1.3,0c0.1-0.2,0.1-0.7,0.1-1.1C-215.2,375.6-215.3,375.1-216,375.1z"/>
			</g>
		</g>
		<g>
			<path class="st2" d="M-203.2,377.3c0,1.8-1.3,4.1-4,4.1c-2.3,0-3-1.6-3-2.9c0-1.8,1.4-4,4-4
				C-204.6,374.5-203.2,375.5-203.2,377.3z M-207.2,380.9c2,0,2.7-2.4,2.7-3.8c0-0.9-0.4-2-1.8-2c-1.9,0-2.7,2.3-2.7,3.7
				C-209,380-208.4,380.9-207.2,380.9z"/>
			<path class="st2" d="M-198.3,375.8c-0.1-0.1-0.3-0.1-0.6-0.1c-1.1,0-1.5,1.3-1.7,1.9c-0.2,0.7-0.6,3-0.7,3.7
				c-0.2-0.1-0.5-0.1-0.7-0.1s-0.4,0-0.7,0.1c0.2-0.8,0.7-3,0.9-3.7c0.2-1,0.4-2,0.4-2.9c0.1,0,0.3,0.1,0.7,0.1c0.2,0,0.4,0,0.7-0.1
				c-0.2,0.4-0.3,1.2-0.4,1.5c0.3-0.4,1-1.5,1.9-1.5c0.1,0,0.3,0,0.5,0.1C-198.1,375.1-198.1,375.4-198.3,375.8L-198.3,375.8z"/>
			<path class="st2" d="M-196.6,374.5c0.1,0,0.3,0.1,0.7,0.1c0.2,0,0.5-0.1,0.7-0.1c-0.4,1.2-1.2,4.5-1.4,6.7
				c-0.2-0.1-0.4-0.1-0.7-0.1c-0.1,0-0.4,0-0.7,0.1C-197.7,380.2-196.7,376.3-196.6,374.5z M-194.9,372.3c0,0.4-0.3,0.7-0.7,0.7
				c-0.4,0-0.7-0.3-0.7-0.7s0.3-0.7,0.7-0.7C-195.2,371.6-194.9,371.9-194.9,372.3z"/>
			<path class="st2" d="M-190.8,374.5c0.7,0,1,0.1,1.5,0.3c0.8,0,1.2,0,1.8-0.1c-0.1,0.2-0.1,0.4-0.1,0.5s0,0.1,0,0.2
				c-0.9,0-0.9,0-1.3-0.1c0.2,0.1,0.5,0.5,0.5,1.2c0,0.9-0.6,2.3-2.9,2.3c-0.2,0-0.6,0-1.2-0.2c-0.3,0.1-0.7,0.4-0.7,0.8
				c0,0.6,0.6,0.6,1.5,0.7c1.6,0.1,2,0.3,2.4,0.6c0.4,0.3,0.6,0.8,0.6,1.2c0,1.3-1.3,2.9-3.6,2.9c-1.6,0-2.8-0.7-2.8-2
				s1.3-1.9,1.7-2c-0.4-0.1-0.7-0.5-0.7-1c0-0.8,1-1.3,1.3-1.4c-0.5-0.2-0.9-0.8-0.9-1.5C-193.7,376-193,374.5-190.8,374.5z
				 M-192.2,384.2c1.2,0,2.3-0.8,2.3-1.9c0-0.8-0.5-0.9-0.8-1c-0.4-0.1-1.2-0.3-2.3-0.3c-0.8,0.3-1.2,1.1-1.2,1.7
				C-194.1,383.8-193.1,384.2-192.2,384.2z M-191.2,378.4c1.5,0,1.7-1.7,1.7-2.1c0-0.6-0.3-1.3-1.2-1.3c-1.3,0-1.7,1.4-1.7,2
				C-192.5,377.7-192.2,378.4-191.2,378.4z"/>
			<path class="st2" d="M-186,374.5c0.1,0,0.3,0.1,0.7,0.1c0.2,0,0.5-0.1,0.7-0.1c-0.4,1.2-1.2,4.5-1.4,6.7
				c-0.2-0.1-0.4-0.1-0.7-0.1c-0.1,0-0.4,0-0.7,0.1C-187.2,380.2-186.1,376.3-186,374.5z M-184.3,372.3c0,0.4-0.3,0.7-0.7,0.7
				c-0.4,0-0.7-0.3-0.7-0.7s0.3-0.7,0.7-0.7C-184.6,371.6-184.3,371.9-184.3,372.3z"/>
			<path class="st2" d="M-177.5,378.6c-0.3,1.1-0.4,1.8-0.5,2.6c-0.2-0.1-0.5-0.1-0.7-0.1s-0.4,0-0.7,0.1c0.3-1.1,1.1-3.9,1.1-4.8
				c0-0.7-0.5-1.1-1.2-1.1c-0.5,0-1.9,0.3-2.5,2.1c-0.2,0.6-0.6,2.6-0.7,3.8c-0.2-0.1-0.4-0.1-0.7-0.1c-0.2,0-0.6,0-0.7,0.1
				c0.5-1.5,1.3-5,1.4-6.7c0.2,0.1,0.5,0.1,0.7,0.1c0.3,0,0.5,0,0.7-0.1c0,0.2-0.3,0.9-0.4,1.5c0.3-0.4,1.2-1.5,2.7-1.5
				c1,0,2,0.5,2,1.8C-177.1,376.7-177.1,376.9-177.5,378.6z"/>
			<path class="st2" d="M-171.3,380c0,0.1,0,0.2,0,0.3c0,0.3,0.2,0.4,0.4,0.4c0.2,0,0.4-0.2,0.5-0.3c0,0.2,0.1,0.3,0.2,0.4
				c-0.3,0.2-0.8,0.4-1.2,0.4c-0.9,0-0.9-0.8-1-1c-0.4,0.4-1,1-2,1s-1.7-0.6-1.7-1.6c0-1.6,1.5-1.9,2.3-2.1c1.6-0.3,1.8-0.4,2-0.4
				c0.2-0.1,0.2-1,0.2-1.1c0-0.5-0.2-1-1.2-1c-1.3,0-1.6,0.8-1.8,1.2c-0.1-0.1-0.2-0.1-0.5-0.1c0.2-0.5,0.3-0.7,0.3-1.2
				c0.7-0.4,1.4-0.6,2.2-0.6c0.5,0,1.3,0.1,1.7,0.6c0.4,0.3,0.4,0.8,0.4,1c0,0.2-0.1,0.5-0.1,0.6L-171.3,380z M-174.1,380.6
				c1,0,1.6-0.9,1.7-1.1c0-0.1,0.3-1.3,0.4-1.7c-2,0.3-3,0.6-3,1.8C-175,380.6-174.4,380.6-174.1,380.6z"/>
			<path class="st2" d="M-167.3,371.1c0.3,0.1,0.7,0.1,0.8,0.1c0.3,0,0.5-0.1,0.6-0.1c-0.5,1.4-0.5,1.4-1.7,7.2
				c-0.4,1.7-0.4,2.2-0.4,2.9c-0.2-0.1-0.4-0.1-0.7-0.1s-0.5,0-0.7,0.1c0.3-0.8,0.5-1.7,0.8-3.1C-168.1,375.4-167.5,373-167.3,371.1
				z"/>
		</g>
	</g>
	<g>
		<path class="st1" d="M-246.2,417.8h0.8l-0.6,3.5l3.5-3.5h0.9l-3.7,3.6l2.6,3.6h-1l-2.5-3.4l-0.6,3.4h-0.7L-246.2,417.8z"/>
		<path class="st1" d="M-239.3,417.8h0.8l-1.3,7.2h-0.8L-239.3,417.8z"/>
		<path class="st1" d="M-231.8,423.9l1.1-6h0.8l-1.3,7.2h-0.8l-3.2-6.1l-1.1,6.1h-0.8l1.3-7.2h0.8L-231.8,423.9z"/>
		<path class="st1" d="M-227.2,417.8h4l-0.1,0.7h-3.2l-0.5,2.6h3.2l-0.2,0.7h-3.2l-0.5,2.6h3.2l-0.1,0.7h-4L-227.2,417.8z"/>
		<path class="st1" d="M-221.3,423c-0.1,1.2,0.7,1.5,1.2,1.5c0.7,0,1.5-0.6,1.7-1.4c0.2-1-0.6-1.2-1.4-1.5c-0.5-0.2-1.7-0.5-1.5-1.9
			c0.2-1.3,1.4-2,2.5-2c0.9,0,1.8,0.5,1.7,1.9h-0.9c0-0.5-0.1-1.2-1.1-1.2c-0.7,0-1.4,0.5-1.5,1.2c-0.2,0.9,0.5,1.1,1.5,1.5
			c0.6,0.3,1.6,0.6,1.4,2c-0.2,1.2-1.3,2.1-2.6,2.1c-1.2,0-2.1-0.8-1.9-2.1L-221.3,423L-221.3,423z"/>
		<path class="st1" d="M-214.5,417.8h0.8l-1.3,7.2h-0.8L-214.5,417.8z"/>
		<path class="st1" d="M-212.1,421.5c0.4-2.2,2.4-3.8,4.5-3.8c2.1,0,3.5,1.6,3.1,3.7c-0.4,2.1-2.3,3.7-4.5,3.7
			C-211.2,425.2-212.5,423.5-212.1,421.5L-212.1,421.5z M-211.3,421.4c-0.3,1.7,0.7,3,2.4,3c1.7,0,3.2-1.4,3.5-3
			c0.3-1.6-0.7-3-2.4-3S-211,419.8-211.3,421.4L-211.3,421.4z"/>
		<path class="st1" d="M-201.7,417.8h0.8l-1.2,6.5h2.7l-0.1,0.7h-3.6L-201.7,417.8z"/>
		<path class="st1" d="M-197.4,421.5c0.4-2.2,2.4-3.8,4.5-3.8c2.1,0,3.5,1.6,3.1,3.7c-0.4,2.1-2.3,3.7-4.5,3.7
			C-196.5,425.2-197.8,423.5-197.4,421.5L-197.4,421.5z M-196.6,421.4c-0.3,1.7,0.7,3,2.4,3s3.2-1.4,3.5-3s-0.7-3-2.4-3
			C-194.8,418.4-196.3,419.8-196.6,421.4L-196.6,421.4z"/>
		<path class="st1" d="M-180.9,419.7c-0.2-0.3-0.4-0.6-0.7-0.8c-0.4-0.3-0.9-0.5-1.6-0.5c-1.6,0-3.2,1.2-3.5,3c-0.3,1.8,0.8,3,2.4,3
			c0.8,0,1.5-0.3,2-0.7c0.6-0.4,1-0.9,1.3-1.5h-3.6l0.1-0.7h4.5c-0.1,0.4-0.3,0.9-0.6,1.4c-0.9,1.4-2.5,2.1-3.9,2.1
			c-2.1,0-3.5-1.6-3.1-3.8c0.4-2.2,2.4-3.7,4.5-3.7c1.5,0,2.7,0.8,3,2h-0.8V419.7z"/>
		<path class="st1" d="M-176.7,417.8h0.8l-1.3,7.2h-0.8L-176.7,417.8z"/>
		<path class="st1" d="M-167.3,423.1c-0.7,1.1-2.1,2.1-3.7,2.1c-2.1,0-3.5-1.6-3.1-3.7c0.4-2.1,2.3-3.7,4.4-3.7
			c1.8,0,2.7,1.2,2.9,2.1h-0.9c-0.2-0.4-0.8-1.4-2.2-1.4c-1.7,0-3.2,1.3-3.5,3c-0.3,1.7,0.7,3,2.4,3c1.5,0,2.5-1.1,2.7-1.4H-167.3z"
			/>
	</g>
	<g>
		<path class="st3" d="M-247.2,428.8h-1.8l0.1-0.7h4.4l-0.1,0.7h-1.8l-1.2,6.5h-0.8L-247.2,428.8z"/>
		<path class="st3" d="M-244.2,435.3h-0.8l4.3-7.2h0.8l1.6,7.2h-0.8l-0.5-2h-3.4L-244.2,435.3z M-240.5,429l-2.1,3.6h2.9L-240.5,429
			z"/>
		<path class="st3" d="M-232.9,428.1c1,0,1.5,0.1,1.9,0.5c0.4,0.4,0.6,1,0.5,1.7s-0.6,1.4-1.1,1.7c-0.5,0.4-1.1,0.5-2,0.5h-1.2
			l-0.5,2.8h-0.8l1.3-7.2H-232.9z M-234.6,431.7h1.1c0.6,0,1-0.1,1.4-0.3c0.4-0.2,0.7-0.7,0.8-1.2c0.1-0.5,0-1-0.3-1.2
			c-0.4-0.1-0.7-0.2-1.4-0.2h-1.1L-234.6,431.7z"/>
		<path class="st3" d="M-227.9,428.1h4l-0.1,0.7h-3.2l-0.5,2.5h3.2l-0.1,0.7h-3.2l-0.5,2.6h3.2l-0.1,0.7h-4L-227.9,428.1z"/>
	</g>
	<path class="st2" d="M-208.6,437c3.5,0,70.7,0,70.7,0v14h-77.3l2.7-11.4C-212.4,439.7-212.1,437-208.6,437z"/>
	<g>
		<path class="st4" d="M-208.8,445c0,0.8,0.6,1,1,1c0.5,0,1-0.3,1-0.8c0-0.6-0.5-0.8-1.1-1c-0.3-0.2-1.1-0.3-1.1-1.3
			c0-0.8,0.6-1.3,1.3-1.3s1.3,0.3,1.3,1.1h-0.5c0-0.3-0.2-0.8-0.8-0.8c-0.5,0-0.8,0.3-0.8,0.8s0.5,0.6,1.1,1
			c0.5,0.2,1.1,0.5,1.1,1.3c0,0.8-0.5,1.3-1.5,1.3c-0.8,0-1.5-0.5-1.5-1.3C-209.3,445-208.8,445-208.8,445z"/>
		<path class="st4" d="M-203.5,441.8c0.6,0,1,0,1.3,0.3c0.3,0.2,0.5,0.6,0.5,1.1c0,0.5-0.2,0.8-0.5,1.1c-0.3,0.2-0.6,0.3-1.1,0.3
			h-0.8v1.8h-0.5v-4.5h1.1V441.8z M-204.3,444h0.8c0.3,0,0.6,0,0.8-0.2c0.2-0.2,0.3-0.5,0.3-0.8c0-0.3-0.2-0.6-0.3-0.8
			s-0.5-0.2-0.8-0.2h-0.6v1.9H-204.3z"/>
		<path class="st4" d="M-200.4,444c0-1.5,1.1-2.4,2.4-2.4c1.3,0,2.4,1,2.4,2.4c0,1.3-1,2.4-2.4,2.4
			C-199.4,446.5-200.4,445.3-200.4,444L-200.4,444z M-199.9,444c0,1.1,0.8,1.9,1.9,1.9c1.1,0,1.9-0.8,1.9-1.9c0-1-0.8-1.9-1.9-1.9
			C-199.1,442.1-199.9,442.9-199.9,444L-199.9,444z"/>
		<path class="st4" d="M-193.9,441.8h1.3c0.6,0,1.1,0.2,1.3,0.2c0.3,0.2,0.6,0.6,0.6,1.3c0,0.3,0,0.6-0.3,1c-0.3,0.3-0.6,0.5-1,0.5
			l1.1,1.8h-0.5l-1.3-1.9l0,0c0.3,0,0.8,0,1-0.2c0.2-0.2,0.3-0.5,0.3-0.8c0-0.3-0.2-0.6-0.5-0.8c-0.2-0.2-0.5-0.2-1-0.2h-0.6v4.2
			h-0.5V441.8z"/>
		<path class="st4" d="M-188.4,442.1h-1.1v-0.5h2.8v0.5h-1.1v4.2h-0.5V442.1z"/>
		<path class="st4" d="M-178.5,443.5l-0.8,1.6l1,1l-0.3,0.3l-1-1c-0.3,0.6-0.6,1-1.5,1s-1.5-0.6-1.5-1.3c0-0.8,0.6-1.1,1.1-1.5
			c-0.3-0.3-0.5-0.6-0.6-1c0-0.5,0.5-1,1.1-1s1.1,0.5,1.1,1c0,0.6-0.5,0.8-1,1.1l1,1l0.6-1.3L-178.5,443.5L-178.5,443.5z
			 M-180.9,444c-0.6,0.3-1,0.6-1,1.1c0,0.5,0.3,0.8,1,0.8c0.5,0,0.8-0.3,1-0.8L-180.9,444z M-180.8,442.1c-0.3,0-0.6,0.3-0.6,0.6
			c0,0.3,0.3,0.6,0.5,0.8c0.5-0.2,0.8-0.3,0.8-0.8C-180.1,442.4-180.4,442.1-180.8,442.1L-180.8,442.1z"/>
		<path class="st4" d="M-173.6,442.1h-1.1v-0.5h2.8v0.5h-1.1v4.2h-0.5V442.1z"/>
		<path class="st4" d="M-170.4,446.3v-4.5h0.5v2.1h2.3v-2.1h0.5v4.5h-0.5v-2.1h-2.3v2.1H-170.4z"/>
		<path class="st4" d="M-165.2,441.8h2.6v0.5h-2.1v1.6h2.1v0.5h-2.1v1.6h2.1v0.5h-2.6V441.8z"/>
		<path class="st4" d="M-160.6,441.8h1.1c0.6,0,1.1,0.2,1.3,0.2c0.3,0.2,0.6,0.6,0.6,1.3c0,0.3,0,0.6-0.3,1c-0.3,0.3-0.6,0.5-1,0.5
			l1.1,1.8h-0.5l-1.3-1.9h0.2c0.3,0,0.8,0,1-0.2c0.2-0.2,0.3-0.5,0.3-0.8c0-0.3-0.2-0.6-0.5-0.8c-0.2-0.2-0.5-0.2-1-0.2h-0.6v4.2
			h-0.5V441.8z"/>
		<path class="st4" d="M-155.8,446.3h-0.5l1.9-4.5h0.5l1.9,4.5h-0.5l-0.5-1.3h-2.4L-155.8,446.3z M-154.2,442.2l-1,2.3h1.8
			L-154.2,442.2z"/>
		<path class="st4" d="M-149.3,441.8c0.6,0,1,0,1.3,0.3c0.3,0.2,0.5,0.6,0.5,1.1c0,0.5-0.2,0.8-0.5,1.1c-0.3,0.2-0.6,0.3-1.1,0.3
			h-0.8v1.8h-0.5v-4.5h1.1V441.8z M-149.9,444h0.8c0.3,0,0.6,0,0.8-0.2c0.2-0.2,0.3-0.5,0.3-0.8c0-0.3-0.2-0.6-0.3-0.8
			c-0.2-0.2-0.5-0.2-0.8-0.2h-0.6v1.9H-149.9z"/>
		<path class="st4" d="M-145.9,441.8h0.5v4.5h-0.5V441.8z"/>
		<path class="st4" d="M-143.4,441.8h2.6v0.5h-2.1v1.6h2.1v0.5h-2.1v1.6h2.1v0.5h-2.6V441.8z"/>
	</g>
	
		<linearGradient id="SVGID_1_" gradientUnits="userSpaceOnUse" x1="-219.2432" y1="390.6621" x2="-240.0492" y2="409.9924" gradientTransform="matrix(1 0 0 -1 0 795.6)">
		<stop  offset="0" style="stop-color:#D2DEE6"/>
		<stop  offset="9.050883e-002" style="stop-color:#A6D3E3"/>
		<stop  offset="0.19" style="stop-color:#7CC9E0"/>
		<stop  offset="0.2955" style="stop-color:#59C0DE"/>
		<stop  offset="0.4062" style="stop-color:#3CB9DC"/>
		<stop  offset="0.524" style="stop-color:#26B4DB"/>
		<stop  offset="0.6519" style="stop-color:#16B0DA"/>
		<stop  offset="0.7976" style="stop-color:#0DAED9"/>
		<stop  offset="1" style="stop-color:#0AADD9"/>
	</linearGradient>
	<path class="st5" d="M-244.5,413.3c0,0,5.5,0,8.7,0s11.8-3.4,20.4-12.7c8.2-8.8,9.6-15,9.6-15h-33.5l-6,26.6L-244.5,413.3z"/>
	
		<linearGradient id="SVGID_2_" gradientUnits="userSpaceOnUse" x1="-245.2" y1="392.35" x2="-223.965" y2="392.35" gradientTransform="matrix(1 0 0 -1 0 795.6)">
		<stop  offset="0" style="stop-color:#FFFFFF"/>
		<stop  offset="4.087226e-002" style="stop-color:#F5FAFD"/>
		<stop  offset="0.2684" style="stop-color:#C3E2F0"/>
		<stop  offset="0.4675" style="stop-color:#9FD0E7"/>
		<stop  offset="0.6285" style="stop-color:#88C5E1"/>
		<stop  offset="0.7312" style="stop-color:#80C1DF"/>
		<stop  offset="0.7615" style="stop-color:#6DBAD9"/>
		<stop  offset="0.8326" style="stop-color:#45ACCE"/>
		<stop  offset="0.8977" style="stop-color:#28A2C5"/>
		<stop  offset="0.9539" style="stop-color:#169BC0"/>
		<stop  offset="0.9949" style="stop-color:#1099BE"/>
	</linearGradient>
	<path class="st6" d="M-235.8,413.3c0,0,7.8,0.1,10.7-9c2.3-7.2,0.5-11.1,0.5-11.1l-0.9,0.9c0,0,1.6,6.3-1.8,12.1
		c-3.3,5.8-7.5,6-10.7,6h-7.2l0.7,1.1H-235.8z"/>
	
		<linearGradient id="SVGID_3_" gradientUnits="userSpaceOnUse" x1="-235.8638" y1="396.15" x2="-205.8106" y2="396.15" gradientTransform="matrix(1 0 0 -1 0 795.6)">
		<stop  offset="7.646780e-002" style="stop-color:#D6E0E6"/>
		<stop  offset="0.1144" style="stop-color:#C3DBE5"/>
		<stop  offset="0.191" style="stop-color:#93CFE2"/>
		<stop  offset="0.2982" style="stop-color:#46BCDD"/>
		<stop  offset="0.3756" style="stop-color:#0AADD9"/>
		<stop  offset="0.4727" style="stop-color:#0CA2CA"/>
		<stop  offset="0.6651" style="stop-color:#0E90B3"/>
		<stop  offset="0.8454" style="stop-color:#0F85A5"/>
		<stop  offset="1" style="stop-color:#1081A0"/>
	</linearGradient>
	<path class="st7" d="M-205.8,385.6c0,0-1.5,6.2-9.6,15c-8.6,9.3-17.2,12.7-20.4,12.7l0,0c0,0,7.8,0.1,10.7-9
		c2.3-7.2,0.5-11.1,0.5-11.1s6.1,0.6,11.3-1.7C-206.8,388.6-205.8,385.6-205.8,385.6z"/>
	
		<linearGradient id="SVGID_4_" gradientUnits="userSpaceOnUse" x1="-235.7" y1="439.2526" x2="-196.055" y2="439.2526" gradientTransform="matrix(1 0 0 -1 0 795.6)">
		<stop  offset="0" style="stop-color:#ABD0E3"/>
		<stop  offset="4.407614e-002" style="stop-color:#95CBE2"/>
		<stop  offset="0.1315" style="stop-color:#70C3DF"/>
		<stop  offset="0.2265" style="stop-color:#51BCDD"/>
		<stop  offset="0.329" style="stop-color:#37B7DC"/>
		<stop  offset="0.4417" style="stop-color:#23B2DB"/>
		<stop  offset="0.5702" style="stop-color:#15AFDA"/>
		<stop  offset="0.7278" style="stop-color:#0CAED9"/>
		<stop  offset="1" style="stop-color:#0AADD9"/>
	</linearGradient>
	<path class="st8" d="M-202.5,369.9h-33.2c0,0,1.1-10.1,11.5-18.8c10.5-8.8,28.1-8.3,28.1-8.3L-202.5,369.9z"/>
	
		<linearGradient id="SVGID_5_" gradientUnits="userSpaceOnUse" x1="-202.4653" y1="438.75" x2="-195.186" y2="438.75" gradientTransform="matrix(1 0 0 -1 0 795.6)">
		<stop  offset="0" style="stop-color:#BAD5E4"/>
		<stop  offset="7.020921e-002" style="stop-color:#95CDE2"/>
		<stop  offset="0.1553" style="stop-color:#70C4DF"/>
		<stop  offset="0.2477" style="stop-color:#51BDDD"/>
		<stop  offset="0.3474" style="stop-color:#37B7DC"/>
		<stop  offset="0.457" style="stop-color:#23B3DB"/>
		<stop  offset="0.5819" style="stop-color:#15AFDA"/>
		<stop  offset="0.7353" style="stop-color:#0CAED9"/>
		<stop  offset="1" style="stop-color:#0AADD9"/>
	</linearGradient>
	<polygon class="st9" points="-195.2,343.9 -201.6,370.9 -202.5,369.9 -196.1,342.8 	"/>
	
		<linearGradient id="SVGID_6_" gradientUnits="userSpaceOnUse" x1="-235.7" y1="425.2" x2="-201.5618" y2="425.2" gradientTransform="matrix(1 0 0 -1 0 795.6)">
		<stop  offset="0" style="stop-color:#BAD5E4"/>
		<stop  offset="7.020921e-002" style="stop-color:#95CDE2"/>
		<stop  offset="0.1553" style="stop-color:#70C4DF"/>
		<stop  offset="0.2477" style="stop-color:#51BDDD"/>
		<stop  offset="0.3474" style="stop-color:#37B7DC"/>
		<stop  offset="0.457" style="stop-color:#23B3DB"/>
		<stop  offset="0.5819" style="stop-color:#15AFDA"/>
		<stop  offset="0.7353" style="stop-color:#0CAED9"/>
		<stop  offset="1" style="stop-color:#0AADD9"/>
	</linearGradient>
	<polygon class="st10" points="-234.8,370.9 -201.6,370.9 -202.5,369.9 -235.7,369.9 	"/>
</g>
</svg>
