<?xml version="1.0" encoding="utf-8"?>
<!-- Generator: Adobe Illustrator 21.0.0, SVG Export Plug-In . SVG Version: 6.00 Build 0)  -->
<svg version="1.1" id="Layer_1" xmlns="http://www.w3.org/2000/svg" xmlns:xlink="http://www.w3.org/1999/xlink" x="0px" y="0px"
	 viewBox="0 0 378.3 220.1" style="enable-background:new 0 0 378.3 220.1;" xml:space="preserve">
<style type="text/css">
	.st0{fill:#FFFFFF;}
	.st1{fill:url(#SVGID_1_);}
	.st2{fill:#0AAAD6;}
	.st3{fill:none;stroke:#1D1D1B;stroke-width:4.517900e-02;stroke-miterlimit:10;}
	.st4{fill:#1F307A;}
	.st5{fill:#B4B4B3;}
	.st6{fill:#0AA5D1;}
	.st7{fill:url(#SVGID_2_);}
	.st8{fill:url(#SVGID_3_);}
	.st9{fill:url(#SVGID_4_);}
	.st10{fill:url(#SVGID_5_);}
	.st11{fill:url(#SVGID_6_);}
	.st12{fill:url(#SVGID_7_);}
</style>
<path class="st0" d="M378.3,220.1v1L0,222.5V-1h219.6C219.6-1,354,56.8,378.3,220.1z"/>
<linearGradient id="SVGID_1_" gradientUnits="userSpaceOnUse" x1="219.6" y1="109.55" x2="378.3" y2="109.55">
	<stop  offset="0" style="stop-color:#A3C8DB"/>
	<stop  offset="2.873862e-02" style="stop-color:#95C5DA"/>
	<stop  offset="0.1177" style="stop-color:#70BCD8"/>
	<stop  offset="0.2142" style="stop-color:#51B5D6"/>
	<stop  offset="0.3182" style="stop-color:#37AFD4"/>
	<stop  offset="0.4327" style="stop-color:#23ABD3"/>
	<stop  offset="0.5632" style="stop-color:#15A7D2"/>
	<stop  offset="0.7235" style="stop-color:#0CA6D1"/>
	<stop  offset="1" style="stop-color:#0AA5D1"/>
</linearGradient>
<path class="st1" d="M378.3-1v221.1C354,56.8,219.6-1,219.6-1H378.3z"/>
<path id="XMLID_23_" class="st2" d="M592.3,477.2v10.2H214V267.3h219.6C433.6,267.3,568,313.9,592.3,477.2z"/>
<g>
	<path class="st3" d="M157.7,145.9"/>
	<path class="st3" d="M139.7,160.8"/>
	<g>
		<g>
			<g>
				<path class="st4" d="M81.3,93.5c-0.7,0.2-1.5,0.5-2.4,0.5c-1.9,0-3.6-1.2-3.6-3.1c0-1,0.2-1.7,0.6-3.7c0.5-1.9,0.8-3.8,1.3-5.8
					c-0.5,0-1.1,0-1.9,0.1c0.1-0.5,0.2-0.7,0.4-1.5c0.8,0.1,1.4,0.1,1.9,0.1c0.1-0.8,0.4-1.9,0.5-3.2c1.9-0.6,2.5-1,4.3-1.8l0.2,0.2
					C82.1,77,81.9,78,81.5,80c0.6,0,1.4,0,2.6-0.1c-0.2,0.5-0.4,1.1-0.4,1.5c-1.1-0.1-1.8-0.1-2.5-0.1c-0.4,1.4-1.6,7-1.7,8
					c-0.1,0.9-0.1,1.3-0.1,1.8c0,1.1,0.6,1.4,1.6,1.4c0.4,0,0.5,0,0.8-0.1L81.3,93.5z"/>
				<path class="st4" d="M96.2,92.9c-0.5,0.4-1.1,0.7-2.4,0.7c-2,0-2.5-1.5-2.6-2.1c-1,1.5-2,2.3-3.8,2.3c-2.3,0-3.7-1.5-3.7-3.7
					c0-1.8,1.1-3.6,3-4.2c0.8-0.2,2.4-0.5,3.4-0.6c1.7-0.2,2.1-0.2,2.1-1.8c0-1.7-1.3-2.1-2.5-2.1s-2.1,0.5-3,1.1h-0.1
					c0.1-0.7,0.1-1.1,0.1-1.6c1.5-0.8,3.2-1.3,5-1.3c2.1,0,4.4,0.7,4.4,3.4c0,0.8-0.2,1.9-0.4,2.6L94.9,89c-0.4,1.4-0.4,1.8-0.4,2.3
					c0,0.5,0.1,1.2,0.7,1.2c0.2,0,0.4-0.1,0.5-0.2L96.2,92.9z M89,91.8c1.8,0,2.1-2,2.5-3.6l0.5-2.1c-1.7,0.2-2.5,0.5-3.1,0.8
					c-1,0.5-1.3,1.9-1.3,2.9C87.5,90.9,87.8,91.8,89,91.8z"/>
				<path class="st4" d="M105.5,93.8c-1.7,0-3.2-0.7-4.1-2c-0.7,3-1.4,6-1.9,8.9c-0.5-0.1-1.2-0.1-1.9-0.1c-0.7,0-1.5,0.1-2,0.1
					c1.2-4.9,3.7-16.9,4.3-21c0.5,0.1,1.1,0.1,1.9,0.1s1.5-0.1,2-0.1c-0.2,0.6-0.5,1.3-0.5,1.9c1.1-1.4,2.4-2.3,4.1-2.3
					c1.6,0,4.8,1,4.8,5.6C112.2,89.1,109.6,93.8,105.5,93.8z M104.3,92c2.7,0,3.9-6,3.9-7.9c0-1.5-0.7-2.6-2.1-2.6
					c-2.9,0-3.9,5.8-3.9,7.9C102,90.8,103,92,104.3,92z"/>
				<path class="st4" d="M125,90.6c-0.2,0.5-0.4,0.8-0.6,1.9c-1.2,0.8-2.7,1.2-4.3,1.2c-4.5,0-6.4-3.1-6.4-6.4
					c0-3.7,2.6-7.9,7.5-7.9c3.6,0,5.4,2,5.4,5.1c0,0.7-0.1,1.5-0.2,2.1c-2.4-0.1-3.9-0.1-5.1-0.1c-0.7,0-1.6,0-3.3,0
					c-0.1,0.5-0.1,1-0.1,1.5c0,2.3,1.1,3.7,3.4,3.7c1.1,0,2.5-0.5,3.7-1.6L125,90.6z M121.1,80.8c-1.9,0-2.6,2.4-3.2,4.6
					c0.6,0.1,1.3,0.1,2,0.1c0.7,0,1.5,0,2.7-0.1c0.1-0.5,0.4-1.4,0.4-2.4C122.9,81.7,122.5,80.8,121.1,80.8z"/>
			</g>
		</g>
		<g>
			<path class="st5" d="M148.1,85.4c0,3.8-2.7,8.6-8.5,8.6c-4.9,0-6.3-3.4-6.3-6.1c0-3.7,2.9-8.2,8.5-8.2
				C145,79.5,148.1,81.5,148.1,85.4z M139.6,92.8c4.2,0,5.8-5.1,5.8-8c0-1.9-0.8-4.2-3.7-4.2c-3.9,0-5.8,4.8-5.8,7.9
				C135.9,91,137.1,92.8,139.6,92.8z"/>
			<path class="st5" d="M158.3,82.2c-0.4-0.1-0.6-0.4-1.2-0.4c-2.4,0-3.2,2.6-3.7,3.9c-0.5,1.4-1.3,6.4-1.4,7.7
				c-0.5-0.2-1-0.2-1.5-0.2c-0.5,0-0.7,0.1-1.4,0.2c0.5-1.7,1.6-6.3,1.9-7.9c0.5-2,1-4.2,1-6.2c0.2,0.1,0.7,0.2,1.4,0.2
				c0.5,0,1,0,1.4-0.2c-0.4,0.8-0.6,2.5-0.7,3.1c0.6-0.8,2-3.1,3.9-3.1c0.4,0,0.6,0.1,1,0.1c-0.4,1.1-0.5,1.8-0.5,2.4L158.3,82.2z"
				/>
			<path class="st5" d="M161.8,79.3c0.2,0.1,0.6,0.2,1.4,0.2c0.5,0,1.1-0.1,1.5-0.2c-0.7,2.5-2.5,9.4-3,14.2c-0.4-0.1-1-0.2-1.5-0.2
				c-0.2,0-1,0-1.5,0.2C159.5,91.4,161.7,83.1,161.8,79.3z M165.5,74.7c0,0.7-0.6,1.5-1.5,1.5c-0.7,0-1.5-0.6-1.5-1.5
				c0-0.7,0.6-1.5,1.5-1.5C164.9,73.3,165.5,73.9,165.5,74.7z"/>
			<path class="st5" d="M173.9,79.5c1.5,0,2.1,0.2,3.2,0.5c1.7,0,2.6,0,3.8-0.1c-0.2,0.5-0.2,0.8-0.2,1c0,0.2,0,0.2,0,0.5
				c-1.9-0.1-1.9-0.1-2.6-0.1c0.4,0.4,1.1,1.1,1.1,2.5c0,1.8-1.2,4.9-6,4.9c-0.5,0-1.3,0-2.5-0.4c-0.7,0.2-1.5,0.7-1.5,1.6
				c0,1.2,1.2,1.3,3.1,1.4c3.3,0.2,4.3,0.6,4.9,1.2c0.8,0.7,1.2,1.7,1.2,2.6c0,2.7-2.6,6.1-7.6,6.1c-3.3,0-5.8-1.5-5.8-4.2
				s2.7-3.9,3.6-4.2c-0.7-0.4-1.5-1.1-1.5-2c0-1.7,2-2.6,2.7-3c-1.2-0.5-1.9-1.7-1.9-3.2C168,82.6,169.3,79.5,173.9,79.5z
				 M171.2,99.8c2.6,0,4.8-1.7,4.8-3.9c0-1.6-1.1-1.9-1.6-2.1c-0.7-0.2-2.5-0.6-4.8-0.6c-1.6,0.7-2.5,2.3-2.5,3.6
				C167,98.9,169.1,99.8,171.2,99.8z M173.1,87.5c3.2,0,3.4-3.7,3.4-4.4c0-1.2-0.6-2.6-2.6-2.6c-2.6,0-3.6,2.9-3.6,4.3
				C170.5,86.1,171.1,87.5,173.1,87.5z"/>
			<path class="st5" d="M183.9,79.3c0.2,0.1,0.6,0.2,1.4,0.2c0.5,0,1.1-0.1,1.5-0.2c-0.7,2.5-2.5,9.4-3,14.2c-0.4-0.1-1-0.2-1.5-0.2
				c-0.2,0-1,0-1.5,0.2C181.5,91.4,183.8,83.1,183.9,79.3z M187.6,74.7c0,0.7-0.6,1.5-1.5,1.5c-0.7,0-1.5-0.6-1.5-1.5
				c0-0.7,0.6-1.5,1.5-1.5C186.9,73.3,187.6,73.9,187.6,74.7z"/>
			<path class="st5" d="M201.8,87.9c-0.5,2.4-0.8,3.8-1,5.6c-0.5-0.1-1.2-0.2-1.6-0.2c-0.5,0-1,0.1-1.4,0.2c0.7-2.3,2.4-8.2,2.4-10
				c0-1.6-1.1-2.4-2.6-2.4c-1.2,0-4.1,0.5-5.1,4.5c-0.4,1.3-1.3,5.6-1.5,7.9c-0.5-0.1-0.8-0.2-1.4-0.2c-0.5,0-1.2,0.1-1.5,0.2
				c1.1-3.2,2.7-10.5,3-14c0.5,0.2,1,0.2,1.4,0.2c0.6,0,1.1-0.1,1.4-0.2c-0.1,0.4-0.6,1.9-0.8,3c0.6-0.8,2.5-3.1,5.7-3.1
				c2,0,4.2,1.1,4.2,3.7C202.8,84.1,202.7,84.5,201.8,87.9z"/>
			<path class="st5" d="M214.8,90.9c0,0.1-0.1,0.5-0.1,0.7c0,0.5,0.5,0.8,0.8,0.8c0.5,0,0.8-0.4,1.1-0.5c0,0.5,0.1,0.6,0.4,1
				c-0.6,0.5-1.8,1-2.6,1c-1.8,0-1.9-1.6-2-2c-1,1-2.1,2-4.2,2s-3.7-1.3-3.7-3.3c0-3.3,3.1-3.9,4.9-4.4c3.4-0.6,3.7-0.7,4.1-1
				c0.5-0.4,0.5-2,0.5-2.3c0-1-0.4-2.1-2.5-2.1c-2.6,0-3.4,1.7-3.7,2.5c-0.4-0.1-0.5-0.2-1-0.1c0.5-1.1,0.5-1.4,0.6-2.5
				c1.4-0.8,2.9-1.2,4.5-1.2c1.2,0,2.6,0.2,3.7,1.2c0.7,0.7,0.8,1.6,0.8,2.1c0,0.5-0.1,1.1-0.2,1.3L214.8,90.9z M209.1,92.3
				c2,0,3.3-1.9,3.6-2.4c0.1-0.2,0.6-2.7,0.8-3.7c-4.2,0.6-6.3,1.3-6.3,3.8C207,92.1,208.5,92.3,209.1,92.3z"/>
			<path class="st5" d="M223.2,72.4c0.6,0.2,1.4,0.2,1.7,0.2c0.6,0,1.1-0.1,1.4-0.2c-1.1,2.9-1.1,3-3.7,15c-0.7,3.7-1,4.6-1,6.1
				c-0.5-0.1-0.8-0.2-1.5-0.2c-0.5,0-1,0-1.5,0.2c0.5-1.6,1.1-3.6,1.7-6.5C221.7,81.3,222.9,76.4,223.2,72.4z"/>
		</g>
	</g>
	<g>
		<path class="st4" d="M57.8,170.3h1.7l-1.4,7.3l7.5-7.3h1.8l-7.7,7.5l5.6,7.6h-2.1l-5.2-7.1l-1.3,7.1H55L57.8,170.3z"/>
		<path class="st4" d="M72.4,170.3h1.7l-2.7,15.1h-1.7L72.4,170.3z"/>
		<path class="st4" d="M88.1,182.9l2.4-12.6h1.6l-2.7,15.1h-1.7l-6.7-12.7l-2.4,12.7h-1.6l2.7-15.1h1.7L88.1,182.9z"/>
		<path class="st4" d="M97.7,170.3h8.3l-0.2,1.5H99l-1,5.2h6.7l-0.4,1.5h-6.7l-1,5.4h6.8l-0.4,1.5h-8.1L97.7,170.3z"/>
		<path class="st4" d="M110,181.2c-0.2,2.5,1.5,3,2.5,3c1.6,0,3.2-1.2,3.6-2.9c0.5-2.1-1.4-2.6-3-3.2c-1.2-0.4-3.7-1.2-3.1-3.9
			c0.5-2.6,3-4.2,5.2-4.2c1.9,0,3.8,1.1,3.6,3.8h-1.7c0-1-0.2-2.5-2.3-2.5c-1.5,0-3,1.1-3.2,2.6c-0.4,1.8,1.1,2.3,3.2,3.1
			c1.3,0.5,3.4,1.4,2.9,4.2c-0.5,2.5-2.6,4.4-5.5,4.4c-2.6,0-4.4-1.6-3.9-4.5L110,181.2C110,181,110,181.2,110,181.2z"/>
		<path class="st4" d="M124.3,170.3h1.7l-2.7,15.1h-1.7L124.3,170.3z"/>
		<path class="st4" d="M129.2,177.8c0.8-4.7,5.1-7.9,9.3-7.9c4.4,0,7.3,3.4,6.4,7.9c-0.8,4.4-4.9,7.9-9.3,7.9
			C131.3,185.7,128.5,182.2,129.2,177.8L129.2,177.8z M130.9,177.8c-0.6,3.6,1.5,6.3,5,6.3c3.6,0,6.8-2.9,7.4-6.3
			c0.6-3.4-1.5-6.3-5-6.3C134.8,171.5,131.5,174.4,130.9,177.8L130.9,177.8z"/>
		<path class="st4" d="M151.2,170.3h1.7l-2.6,13.6h5.8l-0.4,1.5h-7.5L151.2,170.3z"/>
		<path class="st4" d="M160.1,177.8c0.8-4.7,5.1-7.9,9.3-7.9c4.4,0,7.3,3.4,6.4,7.9c-0.8,4.4-4.9,7.9-9.3,7.9
			C162.1,185.7,159.4,182.2,160.1,177.8L160.1,177.8z M161.8,177.8c-0.6,3.6,1.5,6.3,5,6.3c3.6,0,6.8-2.9,7.4-6.3
			c0.6-3.4-1.5-6.3-5-6.3C165.7,171.5,162.5,174.4,161.8,177.8L161.8,177.8z"/>
		<path class="st4" d="M194.8,174.2c-0.4-0.6-0.8-1.2-1.4-1.6c-0.8-0.6-1.9-1.1-3.3-1.1c-3.3,0-6.7,2.6-7.4,6.3
			c-0.7,3.8,1.7,6.4,5,6.4c1.6,0,3.1-0.5,4.3-1.4c1.2-0.8,2.1-2,2.6-3.2h-7.5l0.2-1.4h9.5c-0.2,0.8-0.6,2-1.2,2.9
			c-1.8,2.9-5.1,4.5-8.2,4.5c-4.4,0-7.3-3.4-6.4-7.9c0.8-4.5,5-7.9,9.4-7.9c3.1,0,5.6,1.7,6.3,4.2L194.8,174.2L194.8,174.2z"/>
		<path class="st4" d="M203.6,170.3h1.7l-2.7,15.1h-1.7L203.6,170.3z"/>
		<path class="st4" d="M223.3,181.3c-1.4,2.4-4.4,4.3-7.7,4.3c-4.5,0-7.3-3.4-6.4-7.9c0.7-4.3,4.8-7.9,9.3-7.9
			c3.7,0,5.7,2.5,6.1,4.4h-1.8c-0.4-0.8-1.7-2.9-4.6-2.9c-3.6,0-6.8,2.7-7.4,6.3c-0.6,3.6,1.5,6.3,5,6.3c3.2,0,5.2-2.3,5.7-2.9h1.8
			C223.3,181.2,223.3,181.3,223.3,181.3z"/>
	</g>
	<g>
		<path class="st6" d="M55.7,193.3H52l0.2-1.5h9.2l-0.2,1.5h-3.8l-2.6,13.6H53L55.7,193.3z"/>
		<path class="st6" d="M62.1,206.9h-1.8l9.1-15.1h1.6l3.4,15.1h-1.8l-1-4.3h-7L62.1,206.9z M69.9,193.7l-4.4,7.6h6L69.9,193.7z"/>
		<path class="st6" d="M85.8,191.7c2.1,0,3.1,0.2,3.8,1c0.8,0.7,1.2,2.1,1,3.7c-0.2,1.4-1.2,2.9-2.3,3.7c-1.2,0.7-2.3,1.1-4.2,1.1
			h-2.5l-1.1,6h-1.7l2.7-15.1h4.2V191.7z M82,199.5h2.5c1.3,0,2-0.1,2.9-0.6c0.7-0.5,1.4-1.4,1.6-2.5c0.3-1.1-0.1-2-0.6-2.5
			c-0.6-0.5-1.4-0.6-2.6-0.6h-2.4L82,199.5z"/>
		<path class="st6" d="M96.2,191.7h8.3l-0.2,1.5h-6.8l-1,5.2h6.7l-0.4,1.5h-6.7l-1,5.4h6.8l-0.4,1.5h-8.3L96.2,191.7z"/>
	</g>
	
		<linearGradient id="SVGID_2_" gradientUnits="userSpaceOnUse" x1="114.362" y1="768.635" x2="70.7384" y2="728.1053" gradientTransform="matrix(1 0 0 1 0 -625.4)">
		<stop  offset="0" style="stop-color:#CAD6DE"/>
		<stop  offset="7.650602e-02" style="stop-color:#A5CDDC"/>
		<stop  offset="0.1775" style="stop-color:#7CC2D9"/>
		<stop  offset="0.2846" style="stop-color:#59B9D6"/>
		<stop  offset="0.3971" style="stop-color:#3CB2D4"/>
		<stop  offset="0.5166" style="stop-color:#26ACD3"/>
		<stop  offset="0.6465" style="stop-color:#16A8D2"/>
		<stop  offset="0.7944" style="stop-color:#0DA6D1"/>
		<stop  offset="1" style="stop-color:#0AA5D1"/>
	</linearGradient>
	<path class="st7" d="M61.4,160.8c0,0,11.4,0,18.2,0c6.8,0,24.7-7.1,42.8-26.7c17.1-18.4,20.2-31.4,20.2-31.4H72.5l-12.5,55.8
		L61.4,160.8z"/>
	
		<linearGradient id="SVGID_3_" gradientUnits="userSpaceOnUse" x1="59.9435" y1="765.1288" x2="104.4663" y2="765.1288" gradientTransform="matrix(1 0 0 1 0 -625.4)">
		<stop  offset="0" style="stop-color:#FFFFFF"/>
		<stop  offset="4.087226e-02" style="stop-color:#F5FAFC"/>
		<stop  offset="0.2684" style="stop-color:#C3DEEC"/>
		<stop  offset="0.4675" style="stop-color:#9FCAE1"/>
		<stop  offset="0.6285" style="stop-color:#88BDDA"/>
		<stop  offset="0.7312" style="stop-color:#80B9D7"/>
		<stop  offset="0.7615" style="stop-color:#6DB2D1"/>
		<stop  offset="0.8326" style="stop-color:#45A4C6"/>
		<stop  offset="0.8977" style="stop-color:#289ABD"/>
		<stop  offset="0.9539" style="stop-color:#1693B8"/>
		<stop  offset="0.9949" style="stop-color:#1091B6"/>
	</linearGradient>
	<path class="st8" d="M79.6,160.8c0,0,16.3,0.1,22.5-18.8c4.8-15,1.1-23.3,1.1-23.3l-1.8,1.8c0,0,3.3,13.2-3.7,25.5
		c-7,12.2-15.8,12.5-22.5,12.5H59.9l1.4,2.3H79.6z"/>
	
		<linearGradient id="SVGID_4_" gradientUnits="userSpaceOnUse" x1="79.4826" y1="757.1396" x2="142.4826" y2="757.1396" gradientTransform="matrix(1 0 0 1 0 -625.4)">
		<stop  offset="7.646780e-02" style="stop-color:#CED8DE"/>
		<stop  offset="0.1157" style="stop-color:#BBD3DD"/>
		<stop  offset="0.1949" style="stop-color:#8BC7DA"/>
		<stop  offset="0.306" style="stop-color:#3EB2D4"/>
		<stop  offset="0.3756" style="stop-color:#0AA5D1"/>
		<stop  offset="0.4727" style="stop-color:#0C9BC2"/>
		<stop  offset="0.6651" style="stop-color:#0E8CAB"/>
		<stop  offset="0.8454" style="stop-color:#0F839D"/>
		<stop  offset="1" style="stop-color:#108098"/>
	</linearGradient>
	<path class="st9" d="M142.5,102.7c0,0-3.1,13.1-20.2,31.4c-18.1,19.4-36.2,26.7-42.8,26.7l0,0c0,0,16.3,0.1,22.5-18.8
		c4.8-15,1.1-23.3,1.1-23.3s12.7,1.3,23.7-3.7C140.6,108.9,142.5,102.7,142.5,102.7z"/>
	
		<linearGradient id="SVGID_5_" gradientUnits="userSpaceOnUse" x1="79.8478" y1="666.6978" x2="162.9696" y2="666.6978" gradientTransform="matrix(1 0 0 1 0 -625.4)">
		<stop  offset="0" style="stop-color:#A3C8DB"/>
		<stop  offset="2.873862e-02" style="stop-color:#95C5DA"/>
		<stop  offset="0.1177" style="stop-color:#70BCD8"/>
		<stop  offset="0.2142" style="stop-color:#51B5D6"/>
		<stop  offset="0.3182" style="stop-color:#37AFD4"/>
		<stop  offset="0.4327" style="stop-color:#23ABD3"/>
		<stop  offset="0.5632" style="stop-color:#15A7D2"/>
		<stop  offset="0.7235" style="stop-color:#0CA6D1"/>
		<stop  offset="1" style="stop-color:#0AA5D1"/>
	</linearGradient>
	<path class="st10" d="M149.5,69.7H79.8c0,0,2.3-21.3,24.2-39.4C126.1,11.9,163.1,13,163.1,13L149.5,69.7z"/>
	
		<linearGradient id="SVGID_6_" gradientUnits="userSpaceOnUse" x1="149.5367" y1="667.7984" x2="164.7995" y2="667.7984" gradientTransform="matrix(1 0 0 1 0 -625.4)">
		<stop  offset="0" style="stop-color:#B2CDDC"/>
		<stop  offset="5.658817e-02" style="stop-color:#95C6DA"/>
		<stop  offset="0.143" style="stop-color:#70BDD8"/>
		<stop  offset="0.2367" style="stop-color:#51B6D6"/>
		<stop  offset="0.3378" style="stop-color:#37B0D4"/>
		<stop  offset="0.4491" style="stop-color:#23ABD3"/>
		<stop  offset="0.5758" style="stop-color:#15A8D2"/>
		<stop  offset="0.7314" style="stop-color:#0CA6D1"/>
		<stop  offset="1" style="stop-color:#0AA5D1"/>
	</linearGradient>
	<polygon class="st11" points="164.9,15.2 151.3,71.8 149.5,69.7 162.9,13 	"/>
	
		<linearGradient id="SVGID_7_" gradientUnits="userSpaceOnUse" x1="79.8478" y1="696.1484" x2="151.3391" y2="696.1484" gradientTransform="matrix(1 0 0 1 0 -625.4)">
		<stop  offset="0" style="stop-color:#B2CDDC"/>
		<stop  offset="5.658817e-02" style="stop-color:#95C6DA"/>
		<stop  offset="0.143" style="stop-color:#70BDD8"/>
		<stop  offset="0.2367" style="stop-color:#51B6D6"/>
		<stop  offset="0.3378" style="stop-color:#37B0D4"/>
		<stop  offset="0.4491" style="stop-color:#23ABD3"/>
		<stop  offset="0.5758" style="stop-color:#15A8D2"/>
		<stop  offset="0.7314" style="stop-color:#0CA6D1"/>
		<stop  offset="1" style="stop-color:#0AA5D1"/>
	</linearGradient>
	<polygon class="st12" points="81.8,71.8 151.3,71.8 149.5,69.7 79.8,69.7 	"/>
</g>
</svg>
