<?xml version="1.0" encoding="utf-8"?>
<!-- Generator: Adobe Illustrator 21.0.0, SVG Export Plug-In . SVG Version: 6.00 Build 0)  -->
<svg version="1.1" id="Layer_1" xmlns="http://www.w3.org/2000/svg" xmlns:xlink="http://www.w3.org/1999/xlink" x="0px" y="0px"
	 viewBox="0 0 378.3 220.1" style="enable-background:new 0 0 378.3 220.1;" xml:space="preserve">
<style type="text/css">
	.st0{fill:#FFFFFF;}
	.st1{fill:none;stroke:#1D1D1B;stroke-width:4.517900e-02;stroke-miterlimit:10;}
	.st2{fill:#1F307A;}
	.st3{fill:#B4B4B3;}
	.st4{fill:#0AA5D1;}
	.st5{fill:url(#SVGID_1_);}
	.st6{fill:url(#SVGID_2_);}
	.st7{fill:url(#SVGID_3_);}
	.st8{fill:url(#SVGID_4_);}
	.st9{fill:url(#SVGID_5_);}
	.st10{fill:url(#SVGID_6_);}
</style>
<path id="XMLID_23_" class="st0" d="M378.3,209.9v10.2H0V0h219.6C219.6,0,354,46.6,378.3,209.9z"/>
<path class="st1" d="M166.8,149.2"/>
<path class="st1" d="M147,165.5"/>
<g>
	<g>
		<g>
			<path class="st2" d="M83.1,91.8c-0.8,0.2-1.6,0.5-2.6,0.5c-2.1,0-3.9-1.3-3.9-3.4c0-1.1,0.2-1.9,0.7-4.1c0.5-2.1,0.9-4.2,1.4-6.3
				c-0.6,0-1.2,0-2.1,0.1c0.1-0.6,0.2-0.8,0.4-1.6c0.9,0.1,1.5,0.1,2.1,0.1c0.1-0.9,0.4-2.1,0.6-3.5c2.1-0.7,2.7-1.1,4.7-2l0.2,0.2
				c-0.6,2-0.8,3-1.3,5.2c0.7,0,1.5,0,2.8-0.1c-0.2,0.6-0.4,1.2-0.4,1.6c-1.2-0.1-2-0.1-2.7-0.1c-0.4,1.5-1.8,7.7-1.9,8.8
				C81,88.2,81,88.6,81,89.2c0,1.2,0.7,1.5,1.8,1.5c0.4,0,0.6,0,0.9-0.1L83.1,91.8z"/>
			<path class="st2" d="M99.4,91.2c-0.6,0.4-1.2,0.8-2.6,0.8c-2.2,0-2.7-1.6-2.9-2.3c-1.1,1.6-2.2,2.5-4.2,2.5
				c-2.5,0-4.1-1.6-4.1-4.1c0-2,1.2-3.9,3.3-4.6c0.9-0.2,2.6-0.5,3.7-0.7c1.9-0.2,2.3-0.2,2.3-2c0-1.9-1.4-2.3-2.7-2.3
				s-2.3,0.5-3.3,1.2h-0.1c0.1-0.8,0.1-1.2,0.1-1.8c1.6-0.9,3.5-1.4,5.5-1.4c2.3,0,4.8,0.8,4.8,3.7c0,0.9-0.2,2.1-0.4,2.8l-0.8,3.9
				c-0.4,1.5-0.4,2-0.4,2.5s0.1,1.3,0.8,1.3c0.2,0,0.4-0.1,0.5-0.2L99.4,91.2z M91.5,90c2,0,2.3-2.2,2.7-3.9l0.5-2.3
				c-1.9,0.2-2.7,0.5-3.4,0.9c-1.1,0.6-1.4,2.1-1.4,3.2C89.9,89,90.2,90,91.5,90z"/>
			<path class="st2" d="M109.6,92.2c-1.9,0-3.5-0.8-4.5-2.2c-0.8,3.3-1.5,6.6-2.1,9.8c-0.6-0.1-1.3-0.1-2.1-0.1
				c-0.8,0-1.6,0.1-2.2,0.1c1.3-5.4,4.1-18.5,4.7-23c0.6,0.1,1.2,0.1,2.1,0.1s1.6-0.1,2.2-0.1c-0.2,0.7-0.5,1.4-0.6,2.1
				c1.2-1.5,2.6-2.5,4.5-2.5c1.8,0,5.3,1.1,5.3,6.1C116.9,87,114.1,92.2,109.6,92.2z M108.3,90.2c3,0,4.3-6.6,4.3-8.7
				c0-1.6-0.8-2.8-2.3-2.8c-3.2,0-4.3,6.3-4.3,8.6C105.8,88.9,106.9,90.2,108.3,90.2z"/>
			<path class="st2" d="M130.9,88.6c-0.2,0.5-0.4,0.9-0.7,2.1c-1.3,0.9-3,1.3-4.7,1.3c-4.9,0-7-3.4-7-7c0-4.1,2.8-8.6,8.2-8.6
				c3.9,0,5.9,2.2,5.9,5.6c0,0.8-0.1,1.6-0.2,2.3c-2.6-0.1-4.3-0.1-5.6-0.1c-0.8,0-1.8,0-3.6,0c-0.1,0.5-0.1,1.1-0.1,1.6
				c0,2.5,1.2,4.1,3.7,4.1c1.2,0,2.7-0.5,4-1.8L130.9,88.6z M126.7,77.9c-2.1,0-2.9,2.6-3.5,5c0.7,0.1,1.4,0.1,2.2,0.1
				c0.8,0,1.6,0,3-0.1c0.1-0.6,0.4-1.5,0.4-2.6C128.7,78.9,128.2,77.9,126.7,77.9z"/>
		</g>
	</g>
	<g>
		<path class="st3" d="M156.2,82.9c0,4.2-3,9.4-9.3,9.4c-5.4,0-6.9-3.7-6.9-6.7c0-4,3.2-9,9.3-9C152.9,76.5,156.2,78.7,156.2,82.9z
			 M146.9,91c4.6,0,6.3-5.6,6.3-8.8c0-2.1-0.9-4.6-4-4.6c-4.3,0-6.3,5.3-6.3,8.6C142.9,89.1,144.2,91,146.9,91z"/>
		<path class="st3" d="M167.4,79.4c-0.4-0.1-0.7-0.4-1.3-0.4c-2.6,0-3.5,2.9-4,4.3c-0.5,1.5-1.4,7-1.5,8.4c-0.5-0.2-1.1-0.2-1.6-0.2
			c-0.6,0-0.8,0.1-1.5,0.2c0.6-1.9,1.8-6.9,2.1-8.6c0.5-2.2,1.1-4.6,1.1-6.8c0.2,0.1,0.8,0.2,1.5,0.2c0.6,0,1.1,0,1.5-0.2
			c-0.4,0.9-0.7,2.7-0.8,3.4c0.7-0.9,2.2-3.4,4.3-3.4c0.4,0,0.7,0.1,1.1,0.1c-0.4,1.2-0.5,2-0.6,2.6L167.4,79.4z"/>
		<path class="st3" d="M171.3,76.3c0.2,0.1,0.7,0.2,1.5,0.2c0.5,0,1.2-0.1,1.6-0.2c-0.8,2.7-2.7,10.3-3.3,15.5
			c-0.4-0.1-1.1-0.2-1.6-0.2c-0.2,0-1.1,0-1.6,0.2C168.7,89.5,171.1,80.4,171.3,76.3z M175.3,71.2c0,0.8-0.7,1.6-1.6,1.6
			c-0.8,0-1.6-0.7-1.6-1.6c0-0.8,0.7-1.6,1.6-1.6C174.6,69.7,175.3,70.4,175.3,71.2z"/>
		<path class="st3" d="M184.5,76.5c1.6,0,2.3,0.2,3.5,0.6c1.9,0,2.8,0,4.2-0.1c-0.2,0.5-0.2,0.9-0.2,1.1s0,0.2,0,0.5
			c-2.1-0.1-2.1-0.1-2.9-0.1c0.4,0.4,1.2,1.2,1.2,2.7c0,2-1.3,5.4-6.6,5.4c-0.5,0-1.4,0-2.7-0.4c-0.8,0.2-1.6,0.8-1.6,1.8
			c0,1.3,1.3,1.4,3.4,1.5c3.6,0.2,4.7,0.7,5.4,1.3c0.9,0.8,1.3,1.9,1.3,2.8c0,3-2.9,6.7-8.3,6.7c-3.6,0-6.4-1.6-6.4-4.6
			c0-3,3-4.3,3.9-4.6c-0.8-0.4-1.6-1.2-1.6-2.2c0-1.9,2.2-2.9,3-3.3c-1.3-0.6-2.1-1.9-2.1-3.5C178,79.9,179.5,76.5,184.5,76.5z
			 M181.5,98.7c2.8,0,5.3-1.9,5.3-4.3c0-1.8-1.2-2.1-1.8-2.3c-0.8-0.2-2.7-0.7-5.3-0.7c-1.8,0.8-2.7,2.5-2.7,3.9
			C177,97.7,179.3,98.7,181.5,98.7z M183.6,85.2c3.5,0,3.7-4,3.7-4.8c0-1.3-0.7-2.9-2.8-2.9c-2.9,0-3.9,3.2-3.9,4.7
			C180.8,83.7,181.4,85.2,183.6,85.2z"/>
		<path class="st3" d="M195.5,76.3c0.2,0.1,0.7,0.2,1.5,0.2c0.5,0,1.2-0.1,1.6-0.2c-0.8,2.7-2.7,10.3-3.3,15.5
			c-0.4-0.1-1.1-0.2-1.6-0.2c-0.2,0-1.1,0-1.6,0.2C192.8,89.5,195.3,80.4,195.5,76.3z M199.5,71.2c0,0.8-0.7,1.6-1.6,1.6
			c-0.8,0-1.6-0.7-1.6-1.6c0-0.8,0.7-1.6,1.6-1.6C198.7,69.7,199.5,70.4,199.5,71.2z"/>
		<path class="st3" d="M215.1,85.7c-0.6,2.6-0.9,4.2-1.1,6.1c-0.6-0.1-1.3-0.2-1.8-0.2c-0.6,0-1.1,0.1-1.5,0.2c0.8-2.5,2.6-9,2.6-11
			c0-1.8-1.2-2.6-2.8-2.6c-1.3,0-4.5,0.6-5.6,4.9c-0.4,1.4-1.4,6.1-1.6,8.7c-0.6-0.1-0.9-0.2-1.5-0.2s-1.3,0.1-1.6,0.2
			c1.2-3.5,3-11.5,3.3-15.3c0.5,0.2,1.1,0.2,1.5,0.2c0.7,0,1.2-0.1,1.5-0.2c-0.1,0.4-0.7,2.1-0.9,3.3c0.7-0.9,2.7-3.4,6.2-3.4
			c2.2,0,4.6,1.2,4.6,4.1C216.2,81.5,216,82,215.1,85.7z"/>
		<path class="st3" d="M229.3,89c0,0.1-0.1,0.5-0.1,0.8c0,0.6,0.5,0.9,0.9,0.9c0.6,0,0.9-0.4,1.2-0.6c0,0.5,0.1,0.7,0.4,1.1
			c-0.7,0.5-2,1.1-2.8,1.1c-2,0-2.1-1.8-2.2-2.2c-1.1,1.1-2.3,2.2-4.6,2.2c-2.3,0-4-1.4-4-3.6c0-3.6,3.4-4.3,5.4-4.8
			c3.7-0.7,4.1-0.8,4.5-1.1c0.6-0.4,0.6-2.2,0.6-2.5c0-1.1-0.4-2.3-2.7-2.3c-2.9,0-3.7,1.9-4.1,2.7c-0.4-0.1-0.6-0.2-1.1-0.1
			c0.6-1.2,0.6-1.5,0.7-2.7c1.5-0.9,3.2-1.3,4.9-1.3c1.3,0,2.9,0.2,4,1.3c0.8,0.8,0.9,1.8,0.9,2.3c0,0.5-0.1,1.2-0.2,1.4L229.3,89z
			 M223.1,90.5c2.2,0,3.6-2.1,3.9-2.6c0.1-0.2,0.7-3,0.9-4c-4.6,0.7-6.9,1.4-6.9,4.2C220.8,90.3,222.4,90.5,223.1,90.5z"/>
		<path class="st3" d="M238.5,68.7c0.7,0.2,1.5,0.2,1.9,0.2c0.7,0,1.2-0.1,1.5-0.2c-1.2,3.2-1.2,3.3-4,16.4c-0.8,4-1.1,5-1.1,6.7
			c-0.5-0.1-0.9-0.2-1.6-0.2c-0.6,0-1.1,0-1.6,0.2c0.6-1.8,1.2-3.9,1.9-7.1C236.9,78.5,238.2,73.1,238.5,68.7z"/>
	</g>
</g>
<g>
	<path class="st2" d="M57.3,175.9h1.9l-1.5,8l8.2-8h2l-8.4,8.2l6.1,8.3h-2.3l-5.7-7.8l-1.4,7.8h-1.9L57.3,175.9z"/>
	<path class="st2" d="M73.3,175.9h1.9l-3,16.5h-1.9L73.3,175.9z"/>
	<path class="st2" d="M90.5,189.7l2.6-13.8h1.8l-3,16.5H90l-7.3-13.9l-2.6,13.9h-1.8l3-16.5h1.9L90.5,189.7z"/>
	<path class="st2" d="M101,175.9h9.1l-0.2,1.6h-7.4l-1.1,5.7h7.3l-0.4,1.6h-7.3l-1.1,5.9h7.4l-0.4,1.6H98L101,175.9z"/>
	<path class="st2" d="M114.5,187.9c-0.2,2.7,1.6,3.3,2.7,3.3c1.8,0,3.5-1.3,3.9-3.2c0.5-2.3-1.5-2.8-3.3-3.5c-1.3-0.4-4-1.3-3.4-4.3
		c0.5-2.9,3.3-4.6,5.7-4.6c2.1,0,4.2,1.2,3.9,4.2h-1.9c0-1.1-0.2-2.7-2.5-2.7c-1.6,0-3.3,1.2-3.5,2.8c-0.4,2,1.2,2.5,3.5,3.4
		c1.4,0.6,3.7,1.5,3.2,4.6c-0.5,2.7-2.9,4.8-6,4.8c-2.8,0-4.8-1.8-4.3-4.9h2C114.5,187.7,114.5,187.9,114.5,187.9z"/>
	<path class="st2" d="M130.2,175.9h1.9l-3,16.5h-1.9L130.2,175.9z"/>
	<path class="st2" d="M135.6,184.2c0.9-5.2,5.6-8.7,10.2-8.7c4.8,0,8,3.7,7,8.6c-0.9,4.8-5.4,8.6-10.2,8.6
		C137.8,192.8,134.8,189,135.6,184.2L135.6,184.2z M137.4,184.2c-0.7,3.9,1.6,6.9,5.5,6.9c3.9,0,7.4-3.2,8.1-6.9
		c0.7-3.7-1.6-6.9-5.5-6.9C141.7,177.2,138.1,180.4,137.4,184.2L137.4,184.2z"/>
	<path class="st2" d="M159.6,175.9h1.9l-2.8,14.9h6.3l-0.4,1.6h-8.2L159.6,175.9z"/>
	<path class="st2" d="M169.4,184.2c0.9-5.2,5.6-8.7,10.2-8.7c4.8,0,8,3.7,7,8.6c-0.9,4.8-5.4,8.6-10.2,8.6
		C171.6,192.8,168.6,189,169.4,184.2L169.4,184.2z M171.3,184.2c-0.7,3.9,1.6,6.9,5.5,6.9c3.9,0,7.4-3.2,8.1-6.9
		c0.7-3.7-1.6-6.9-5.5-6.9C175.5,177.2,172,180.4,171.3,184.2L171.3,184.2z"/>
	<path class="st2" d="M207.4,180.2c-0.4-0.7-0.9-1.3-1.5-1.8c-0.9-0.7-2.1-1.2-3.6-1.2c-3.6,0-7.3,2.8-8.1,6.9c-0.8,4.2,1.9,7,5.5,7
		c1.8,0,3.4-0.6,4.7-1.5s2.3-2.2,2.9-3.5h-8.2l0.2-1.5h10.4c-0.2,0.9-0.7,2.2-1.3,3.2c-2,3.2-5.6,4.9-9,4.9c-4.8,0-8-3.7-7-8.7
		c0.9-4.9,5.5-8.6,10.3-8.6c3.4,0,6.1,1.9,6.9,4.6L207.4,180.2L207.4,180.2z"/>
	<path class="st2" d="M217,175.9h1.9l-3,16.5h-1.9L217,175.9z"/>
	<path class="st2" d="M238.6,188c-1.5,2.6-4.8,4.7-8.4,4.7c-4.9,0-8-3.7-7-8.6c0.8-4.7,5.3-8.6,10.2-8.6c4.1,0,6.2,2.7,6.7,4.8h-2
		c-0.4-0.9-1.9-3.2-5-3.2c-3.9,0-7.4,3-8.1,6.9c-0.7,3.9,1.6,6.9,5.5,6.9c3.5,0,5.7-2.5,6.2-3.2h2C238.6,187.9,238.6,188,238.6,188z
		"/>
</g>
<g>
	<path class="st4" d="M55.1,201.1H51l0.2-1.6h10.1l-0.2,1.6h-4.2L54,216h-1.9L55.1,201.1z"/>
	<path class="st4" d="M62.1,216h-2l10-16.5h1.8l3.7,16.5h-2l-1.1-4.7h-7.7L62.1,216z M70.6,201.6l-4.8,8.3h6.6L70.6,201.6z"/>
	<path class="st4" d="M88,199.4c2.3,0,3.4,0.2,4.2,1.1c0.9,0.8,1.3,2.3,1.1,4c-0.2,1.5-1.3,3.2-2.5,4c-1.3,0.8-2.5,1.2-4.6,1.2h-2.7
		l-1.2,6.6h-1.9l3-16.5H88V199.4z M83.9,207.9h2.7c1.4,0,2.2-0.1,3.2-0.7c0.8-0.5,1.5-1.5,1.8-2.7s-0.1-2.2-0.7-2.7
		c-0.7-0.6-1.5-0.7-2.9-0.7h-2.6L83.9,207.9z"/>
	<path class="st4" d="M99.4,199.4h9.1l-0.2,1.6h-7.4l-1.1,5.7h7.3l-0.4,1.6h-7.3l-1.1,5.9h7.4l-0.4,1.6h-9.1L99.4,199.4z"/>
</g>
<linearGradient id="SVGID_1_" gradientUnits="userSpaceOnUse" x1="119.3164" y1="-224.3262" x2="71.5382" y2="-268.7159" gradientTransform="matrix(1 0 0 1 0 370.6)">
	<stop  offset="0" style="stop-color:#CAD6DE"/>
	<stop  offset="7.650602e-02" style="stop-color:#A5CDDC"/>
	<stop  offset="0.1775" style="stop-color:#7CC2D9"/>
	<stop  offset="0.2846" style="stop-color:#59B9D6"/>
	<stop  offset="0.3971" style="stop-color:#3CB2D4"/>
	<stop  offset="0.5166" style="stop-color:#26ACD3"/>
	<stop  offset="0.6465" style="stop-color:#16A8D2"/>
	<stop  offset="0.7944" style="stop-color:#0DA6D1"/>
	<stop  offset="1" style="stop-color:#0AA5D1"/>
</linearGradient>
<path class="st5" d="M61.3,165.5c0,0,12.5,0,19.9,0c7.4,0,27.1-7.8,46.9-29.2c18.7-20.1,22.1-34.4,22.1-34.4H73.4L59.7,163
	L61.3,165.5z"/>
<linearGradient id="SVGID_2_" gradientUnits="userSpaceOnUse" x1="59.7211" y1="-228.1947" x2="108.4842" y2="-228.1947" gradientTransform="matrix(1 0 0 1 0 370.6)">
	<stop  offset="0" style="stop-color:#FFFFFF"/>
	<stop  offset="4.087226e-02" style="stop-color:#F5FAFC"/>
	<stop  offset="0.2684" style="stop-color:#C3DEEC"/>
	<stop  offset="0.4675" style="stop-color:#9FCAE1"/>
	<stop  offset="0.6285" style="stop-color:#88BDDA"/>
	<stop  offset="0.7312" style="stop-color:#80B9D7"/>
	<stop  offset="0.7615" style="stop-color:#6DB2D1"/>
	<stop  offset="0.8326" style="stop-color:#45A4C6"/>
	<stop  offset="0.8977" style="stop-color:#289ABD"/>
	<stop  offset="0.9539" style="stop-color:#1693B8"/>
	<stop  offset="0.9949" style="stop-color:#1091B6"/>
</linearGradient>
<path class="st6" d="M81.2,165.5c0,0,17.9,0.1,24.6-20.6c5.3-16.4,1.2-25.5,1.2-25.5l-2,2c0,0,3.6,14.5-4.1,27.9S83.6,163,76.3,163
	H59.7l1.5,2.5H81.2z"/>
<linearGradient id="SVGID_3_" gradientUnits="userSpaceOnUse" x1="81.1034" y1="-236.9212" x2="150.0951" y2="-236.9212" gradientTransform="matrix(1 0 0 1 0 370.6)">
	<stop  offset="7.646780e-02" style="stop-color:#CED8DE"/>
	<stop  offset="0.1157" style="stop-color:#BBD3DD"/>
	<stop  offset="0.1949" style="stop-color:#8BC7DA"/>
	<stop  offset="0.306" style="stop-color:#3EB2D4"/>
	<stop  offset="0.3756" style="stop-color:#0AA5D1"/>
	<stop  offset="0.4727" style="stop-color:#0C9BC2"/>
	<stop  offset="0.6651" style="stop-color:#0E8CAB"/>
	<stop  offset="0.8454" style="stop-color:#0F839D"/>
	<stop  offset="1" style="stop-color:#108098"/>
</linearGradient>
<path class="st7" d="M150.1,101.9c0,0-3.4,14.3-22.1,34.4c-19.8,21.3-39.6,29.2-46.9,29.2l0,0c0,0,17.9,0.1,24.6-20.6
	c5.3-16.4,1.2-25.5,1.2-25.5s13.9,1.4,26-4C148,108.7,150.1,101.9,150.1,101.9z"/>
<linearGradient id="SVGID_4_" gradientUnits="userSpaceOnUse" x1="81.4548" y1="-335.9641" x2="172.4929" y2="-335.9641" gradientTransform="matrix(1 0 0 1 0 370.6)">
	<stop  offset="0" style="stop-color:#A3C8DB"/>
	<stop  offset="2.873862e-02" style="stop-color:#95C5DA"/>
	<stop  offset="0.1177" style="stop-color:#70BCD8"/>
	<stop  offset="0.2142" style="stop-color:#51B5D6"/>
	<stop  offset="0.3182" style="stop-color:#37AFD4"/>
	<stop  offset="0.4327" style="stop-color:#23ABD3"/>
	<stop  offset="0.5632" style="stop-color:#15A7D2"/>
	<stop  offset="0.7235" style="stop-color:#0CA6D1"/>
	<stop  offset="1" style="stop-color:#0AA5D1"/>
</linearGradient>
<path class="st8" d="M157.8,65.7H81.5c0,0,2.5-23.3,26.5-43.1c24.2-20.1,64.7-19,64.7-19L157.8,65.7z"/>
<linearGradient id="SVGID_5_" gradientUnits="userSpaceOnUse" x1="157.8259" y1="-334.7278" x2="174.5423" y2="-334.7278" gradientTransform="matrix(1 0 0 1 0 370.6)">
	<stop  offset="0" style="stop-color:#B2CDDC"/>
	<stop  offset="5.658817e-02" style="stop-color:#95C6DA"/>
	<stop  offset="0.143" style="stop-color:#70BDD8"/>
	<stop  offset="0.2367" style="stop-color:#51B6D6"/>
	<stop  offset="0.3378" style="stop-color:#37B0D4"/>
	<stop  offset="0.4491" style="stop-color:#23ABD3"/>
	<stop  offset="0.5758" style="stop-color:#15A8D2"/>
	<stop  offset="0.7314" style="stop-color:#0CA6D1"/>
	<stop  offset="1" style="stop-color:#0AA5D1"/>
</linearGradient>
<polygon class="st9" points="174.6,6.1 159.8,68.1 157.8,65.7 172.5,3.6 "/>
<linearGradient id="SVGID_6_" gradientUnits="userSpaceOnUse" x1="81.4548" y1="-303.6874" x2="159.8172" y2="-303.6874" gradientTransform="matrix(1 0 0 1 0 370.6)">
	<stop  offset="0" style="stop-color:#B2CDDC"/>
	<stop  offset="5.658817e-02" style="stop-color:#95C6DA"/>
	<stop  offset="0.143" style="stop-color:#70BDD8"/>
	<stop  offset="0.2367" style="stop-color:#51B6D6"/>
	<stop  offset="0.3378" style="stop-color:#37B0D4"/>
	<stop  offset="0.4491" style="stop-color:#23ABD3"/>
	<stop  offset="0.5758" style="stop-color:#15A8D2"/>
	<stop  offset="0.7314" style="stop-color:#0CA6D1"/>
	<stop  offset="1" style="stop-color:#0AA5D1"/>
</linearGradient>
<polygon class="st10" points="83.6,68.1 159.8,68.1 157.8,65.7 81.5,65.7 "/>
</svg>
