<?xml version="1.0" encoding="utf-8"?>
<!-- Generator: Adobe Illustrator 19.0.0, SVG Export Plug-In . SVG Version: 6.00 Build 0)  -->
<svg version="1.1" id="Layer_1" xmlns="http://www.w3.org/2000/svg" xmlns:xlink="http://www.w3.org/1999/xlink" x="0px" y="0px"
	 viewBox="0 0 45 31" style="enable-background:new 0 0 45 31;" xml:space="preserve">
<style type="text/css">
	.st0{fill-rule:evenodd;clip-rule:evenodd;fill:#EE2424;}
	.st1{fill-rule:evenodd;clip-rule:evenodd;fill:#FFFFFF;}
	.st2{fill-rule:evenodd;clip-rule:evenodd;fill:#206A37;}
	.st3{opacity:0.3;fill-rule:evenodd;clip-rule:evenodd;fill:url(#XMLID_503_);}
	.st4{fill-rule:evenodd;clip-rule:evenodd;fill:#AC752A;}
	.st5{fill-rule:evenodd;clip-rule:evenodd;fill:#FFD667;}
	.st6{fill-rule:evenodd;clip-rule:evenodd;fill:#7D7F81;}
	.st7{fill-rule:evenodd;clip-rule:evenodd;fill:#10110F;}
	.st8{fill-rule:evenodd;clip-rule:evenodd;fill:#AF2E36;}
	.st9{fill-rule:evenodd;clip-rule:evenodd;fill:#09713A;}
	.st10{fill-rule:evenodd;clip-rule:evenodd;fill:#A47B2C;}
	.st11{fill-rule:evenodd;clip-rule:evenodd;fill:#26A9E1;}
</style>
<g>
	<g>
		<rect id="XMLID_4_" x="30" class="st0" width="15" height="31"/>
		<rect id="XMLID_3_" x="15" class="st1" width="15" height="31"/>
		<rect id="XMLID_2_" class="st2" width="15" height="31"/>
	</g>
	<radialGradient id="XMLID_503_" cx="22.5" cy="15.5" r="19.3197" gradientUnits="userSpaceOnUse">
		<stop  offset="0" style="stop-color:#FFFFFF"/>
		<stop  offset="0.1236" style="stop-color:#DDDDDD"/>
		<stop  offset="0.561" style="stop-color:#676767"/>
		<stop  offset="0.8617" style="stop-color:#1D1D1D"/>
		<stop  offset="1" style="stop-color:#000000"/>
	</radialGradient>
	<polygon id="XMLID_1_" class="st3" points="30.1,0 30,0 15.1,0 15.1,0 0,0 0,31 15.1,31 15.1,31 30,31 30.1,31 45,31 45,0 	"/>
	<g>
		<path class="st4" d="M21.5,11.8c-0.1-0.1-0.3-0.2-0.5-0.2c0,0,0,0,0,0C21.1,11.7,21.4,11.8,21.5,11.8
			C21.5,11.8,21.5,11.8,21.5,11.8L21.5,11.8z"/>
		<path class="st4" d="M21.6,12.5c0-0.2,0-0.3,0-0.4c0,0,0,0-0.1,0C21.5,12.3,21.5,12.5,21.6,12.5C21.5,12.5,21.6,12.5,21.6,12.5
			L21.6,12.5z"/>
		<path class="st4" d="M21.4,14.3c-0.1-0.5,0-0.5,0-0.7c0,0,0,0,0.1,0c-0.1,0.1,0,0.7,0.1,0.8C21.5,14.3,21.4,14.3,21.4,14.3
			L21.4,14.3z"/>
		<path class="st4" d="M22,14.2c-0.1-0.5-0.1-0.5,0-0.7c0,0,0,0,0.1,0C22,13.6,22,14,22,14.2C22.1,14.1,22,14.2,22,14.2L22,14.2z"/>
		<path class="st4" d="M22.4,13.8c-0.1-0.3-0.1-0.3-0.1-0.5c0,0,0,0,0.1,0C22.4,13.4,22.5,13.6,22.4,13.8
			C22.5,13.9,22.5,13.9,22.4,13.8L22.4,13.8z"/>
		<path class="st4" d="M22.8,13.3c-0.1-0.1-0.1-0.1-0.1-0.2c0,0,0,0,0,0C22.7,13.1,22.7,13.2,22.8,13.3
			C22.8,13.3,22.8,13.3,22.8,13.3L22.8,13.3z"/>
		<path class="st4" d="M21.3,13.3c0-0.2,0.1-0.3,0.1-0.4c0,0,0,0-0.1,0C21.3,12.9,21.2,13.2,21.3,13.3L21.3,13.3L21.3,13.3z"/>
		<path class="st4" d="M21,13.3c0.1-0.1,0.1-0.3,0.2-0.4c0,0,0,0-0.1,0C21.1,12.9,20.9,13.1,21,13.3L21,13.3L21,13.3z"/>
		<path class="st4" d="M21.8,13.2c0-0.2,0-0.4,0-0.5c0,0,0,0.1-0.1,0.1C21.7,12.9,21.7,13.1,21.8,13.2
			C21.7,13.3,21.8,13.2,21.8,13.2L21.8,13.2z"/>
		<path class="st4" d="M22,12.3c-0.1-0.2-0.1-0.3-0.2-0.5c0,0,0,0.1,0,0.1C21.9,12,22,12.2,22,12.3C22,12.3,22,12.3,22,12.3L22,12.3
			z"/>
		<path class="st4" d="M22.3,13.1c0-0.3,0-0.4,0-0.6c0,0,0,0.1-0.1,0.1C22.2,12.6,22.2,13,22.3,13.1C22.2,13.1,22.3,13.1,22.3,13.1
			L22.3,13.1z"/>
		<path class="st4" d="M23.5,11.7c0.2,0.1,0.4,0.2,0.5,0.3c0,0,0-0.1,0-0.1C24,11.9,23.7,11.7,23.5,11.7
			C23.6,11.6,23.5,11.7,23.5,11.7L23.5,11.7z"/>
		<path class="st4" d="M24.6,11.3c0.2-0.1,1.5,1.3,1.7,1.7c0,0,0.1,0,0.1,0C26.2,12.7,24.9,11.2,24.6,11.3L24.6,11.3L24.6,11.3z"/>
		<path class="st4" d="M24.2,12.5c0.1,0,0.6,0.4,0.7,0.6c0,0,0.1,0,0.1,0C25,12.9,24.4,12.4,24.2,12.5L24.2,12.5L24.2,12.5z"/>
		<path class="st4" d="M24,13c0.1,0,0.3,0.2,0.4,0.3c0,0,0.1,0,0.1,0c-0.1-0.1-0.4-0.4-0.5-0.4C24,12.9,24,13,24,13L24,13z"/>
		<path class="st4" d="M23.7,13.4c0.1,0,0.1,0.1,0.2,0.2c0,0,0.1,0,0.1,0C23.9,13.5,23.8,13.3,23.7,13.4L23.7,13.4L23.7,13.4z"/>
		<path class="st4" d="M23.3,13.8c0.1,0,0.1,0.1,0.2,0.2c0,0,0,0,0-0.1C23.5,13.8,23.5,13.8,23.3,13.8L23.3,13.8L23.3,13.8z"/>
		<path class="st4" d="M22.8,14.1c0.1,0,0.3,0.4,0.3,0.5c0,0,0,0,0-0.1c-0.1-0.1-0.3-0.5-0.4-0.5L22.8,14.1L22.8,14.1z"/>
		<path class="st4" d="M22.4,14.4c0.1,0,0.3,0.4,0.4,0.5c0,0,0,0,0-0.1C22.8,14.8,22.5,14.4,22.4,14.4L22.4,14.4L22.4,14.4z"/>
		<path class="st4" d="M23.2,15c0.1,0,0.3,0.4,0.3,0.5c0,0,0,0,0-0.1C23.5,15.4,23.3,15,23.2,15C23.2,14.9,23.2,15,23.2,15L23.2,15z
			"/>
		<path class="st4" d="M22.7,15.3c0.1,0,0.3,0.3,0.4,0.5c0,0,0,0,0,0C23.1,15.7,22.8,15.3,22.7,15.3C22.7,15.2,22.6,15.3,22.7,15.3
			L22.7,15.3z"/>
		<path class="st4" d="M23.3,16.2c0,0,0.2,0.2,0.2,0.3c0,0,0,0,0.1,0C23.6,16.4,23.5,16.2,23.3,16.2C23.4,16.2,23.3,16.2,23.3,16.2
			L23.3,16.2z"/>
		<path class="st4" d="M23,16.3c0,0,0.1,0.1,0.2,0.2c0,0,0,0,0.1,0C23.2,16.4,23.1,16.3,23,16.3C23,16.2,23,16.3,23,16.3L23,16.3z"
			/>
		<path class="st4" d="M22.3,15.5c0.1,0.1,0.3,0.3,0.5,0.5c0,0,0,0,0,0C22.7,15.8,22.4,15.5,22.3,15.5
			C22.2,15.3,22.2,15.4,22.3,15.5L22.3,15.5z"/>
		<path class="st4" d="M23.5,14.4c0.1,0,0.2,0.4,0.3,0.7c0,0,0,0,0-0.1C23.9,14.9,23.6,14.4,23.5,14.4
			C23.6,14.3,23.5,14.4,23.5,14.4L23.5,14.4z"/>
		<path class="st4" d="M21.9,14.6c0.1,0,0.3,0.4,0.4,0.5c0,0,0,0,0.1-0.1C22.3,15,22,14.6,21.9,14.6L21.9,14.6L21.9,14.6z"/>
		<path class="st4" d="M23.7,12.3c0.1,0.1,0.2,0.2,0.2,0.2c0,0,0-0.1,0-0.1C23.9,12.4,23.8,12.3,23.7,12.3
			C23.7,12.3,23.7,12.3,23.7,12.3L23.7,12.3z"/>
		<path class="st4" d="M23.5,12.9c0.1,0.1,0.1,0.1,0.1,0.1c0,0,0,0,0-0.1C23.6,12.9,23.6,12.8,23.5,12.9
			C23.5,12.8,23.5,12.9,23.5,12.9L23.5,12.9z"/>
		<path class="st4" d="M23.2,13.3c0.1,0.1,0.1,0.1,0.1,0.1c0,0,0,0,0-0.1C23.3,13.3,23.3,13.3,23.2,13.3L23.2,13.3L23.2,13.3z"/>
		<path class="st4" d="M22.3,12.1c-0.1-0.2-0.3-0.3-0.3-0.5c0,0,0,0,0,0.1C22,11.7,22.2,12,22.3,12.1C22.3,12.1,22.3,12.1,22.3,12.1
			L22.3,12.1z"/>
		<path class="st4" d="M20,12.3c-0.1,0-0.1,0-0.1,0c0,0.1,0,0.1-0.2,0.1c-0.1,0-0.1,0.1-0.1,0.1c-0.1,0.3,0.1,0.6,0.5,0.5
			c-0.4-0.3-0.2-0.6,0.3-0.5c0,0,0.2-0.1,0.2-0.1c0,0-0.2,0-0.3,0c0,0,0.1,0.1,0,0.1c-0.3,0-0.6,0.2-0.4,0.5c0,0-0.3,0-0.2-0.3
			c0-0.1,0.1-0.1,0.1-0.1c0.1,0,0.2,0,0.2,0L20,12.3L20,12.3z"/>
		<path class="st4" d="M19.8,12.2c0.7,0.1,0.7,0,0.8,0c0.1,0,0.2,0,0.3,0.2c0,0.1-0.3,0.3-0.5,0.3c0.2-0.1,0.3-0.2,0.3-0.3
			c-0.1,0-0.2,0-0.2,0c-0.1,0-0.2,0-0.3,0c-0.1,0-0.1,0-0.2,0C19.9,12.3,19.8,12.3,19.8,12.2C19.7,12.3,19.8,12.3,19.8,12.2
			L19.8,12.2z"/>
		<path class="st4" d="M20.2,11.4c0,0.1,0,0.3-0.1,0.4c-0.1,0.1-0.2,0.1-0.2,0.3c0.1,0.1,0.2,0.1,0.3,0l0-0.1c-0.2,0-0.2,0-0.2-0.1
			c0,0,0.1-0.1,0.2-0.2c0,0.1-0.1,0.3-0.1,0.3c0,0,0,0,0.1,0c0,0,0.1-0.2,0.1-0.3c0,0,0,0,0,0C20.3,11.7,20.3,11.5,20.2,11.4
			L20.2,11.4z"/>
		<path class="st4" d="M20.2,11.9C20.2,11.9,20.2,11.8,20.2,11.9c0.2,0,0.2,0.2-0.1,0.3C20.3,12,20.3,11.9,20.2,11.9L20.2,11.9z"/>
		<path class="st4" d="M20.5,11.5C20.5,11.5,20.5,11.4,20.5,11.5c0-0.2-0.2-0.3-0.1-0.3c0,0.1,0,0.3,0,0.5
			C20.3,11.6,20.4,11.6,20.5,11.5c0,0-0.1,0-0.1-0.1C20.4,11.3,20.5,11.4,20.5,11.5L20.5,11.5z"/>
		<path class="st4" d="M21,11.4C20.9,11.4,21,11.5,21,11.4c0.3-0.2,0.1-0.4,0-0.4c-0.1,0,0,0.2-0.2,0.3c0,0,0,0.1,0,0.1
			c0.1-0.1,0.1-0.1,0.1-0.2C21,11.2,21,11.3,21,11.4L21,11.4z"/>
		<path class="st4" d="M20.3,11.7C20.3,11.7,20.3,11.8,20.3,11.7c0.4-0.1,0.6-0.4,0.3-0.7C20.6,11.4,20.6,11.5,20.3,11.7L20.3,11.7z
			"/>
		<path class="st4" d="M20.4,12C20.4,12,20.3,12.1,20.4,12c0.2,0.1,0.6-0.4,0.5-0.4c0,0,0,0,0,0c-0.1,0-0.3,0.3-0.5,0.4
			C20.4,11.8,20.4,11.9,20.4,12c0.2-0.1,0.4-0.4,0.4-0.4C20.9,11.6,20.6,11.9,20.4,12L20.4,12z"/>
		<path class="st4" d="M21.2,11.3C21.2,11.4,21.1,11.3,21.2,11.3c0.1-0.1,0.4,0.1,0.6,0.1c0,0,0.1,0,0.1,0.1c0,0-0.1,0.2-0.1,0.2
			c-0.1,0-0.5-0.2-0.6-0.2C21.2,11.5,21.1,11.4,21.2,11.3c0.1,0.1,0.5,0.3,0.5,0.2c0,0,0,0,0,0C21.7,11.5,21.3,11.3,21.2,11.3
			L21.2,11.3z"/>
		<path class="st4" d="M22.3,11.3C22.3,11.3,22.3,11.3,22.3,11.3c0-0.1,0.2-0.1,0.2-0.1c0,0,0,0,0,0c0,0,0.1,0.2,0.1,0.3
			c0,0.1-0.1,0-0.2,0c0,0-0.1-0.1,0-0.1c0.1,0,0.2,0,0.2,0c0,0-0.1-0.1-0.1-0.2C22.4,11.3,22.4,11.3,22.3,11.3L22.3,11.3z"/>
		<path class="st4" d="M23.7,10.8C23.7,10.8,23.7,10.7,23.7,10.8c-0.1,0,0,0.2,0,0.2c0,0,0,0,0.1,0c0,0,0.2,0.1,0.2,0.1
			c0.1,0,0-0.1,0-0.2c0,0-0.1,0-0.1,0c0,0.1,0,0.2,0,0.2c0,0-0.1,0-0.1,0C23.7,10.9,23.7,10.8,23.7,10.8L23.7,10.8z"/>
		<path class="st4" d="M23.1,10.7c0,0-0.1,0-0.1,0c-0.1,0,0.2,0.2,0.2,0.2c0,0,0,0,0,0c0,0,0.3,0.1,0.3,0c0-0.1,0-0.2-0.1-0.2
			c0,0-0.1,0-0.1,0c0,0.1,0.1,0.1,0,0.1c0,0-0.1,0-0.1,0C23.2,10.8,23.1,10.7,23.1,10.7L23.1,10.7z"/>
		<path class="st4" d="M22.5,11.7C22.5,11.7,22.5,11.6,22.5,11.7c0.1-0.1,0.2-0.1,0.2-0.1c0,0,0,0,0,0c0,0.1,0.1,0.3,0.1,0.4
			c-0.1,0.1-0.2,0-0.3,0c0,0,0-0.1,0-0.1c0.1,0,0.2,0,0.2,0c0,0,0-0.2-0.1-0.2C22.6,11.7,22.6,11.7,22.5,11.7L22.5,11.7z"/>
		<path class="st4" d="M22.6,12.2C22.6,12.2,22.6,12.1,22.6,12.2c0.1-0.1,0.2-0.1,0.2-0.1c0.1,0,0.1,0.1,0.1,0.1c0,0.1,0,0.1,0,0.2
			c0,0.1-0.1,0.2-0.2,0.2c0,0,0-0.1,0-0.2c0.1-0.1,0.1-0.1,0.1-0.1c0-0.1,0-0.1-0.1-0.1C22.7,12.2,22.6,12.2,22.6,12.2L22.6,12.2z"
			/>
		<path class="st4" d="M21.8,11.1c0,0-0.1-0.1-0.1-0.1c0,0,0.3,0,0.3,0c0,0,0.1,0,0.1,0c0,0,0.2,0.1,0.2,0.1c0,0-0.1,0.1-0.2,0.1
			c0,0-0.1,0-0.1,0c0-0.1,0.2,0,0.2,0c0,0-0.1-0.1-0.2-0.1C22,11.1,21.8,11,21.8,11.1L21.8,11.1z"/>
		<path class="st4" d="M21.1,11.6C21.1,11.6,21.1,11.5,21.1,11.6c0.1-0.1,0.7,0.2,0.6,0.3c0,0-0.1,0.1-0.1,0.2
			c-0.1,0.1-0.4-0.2-0.6-0.3c0,0,0-0.1,0-0.1c0.1,0,0.5,0.2,0.5,0.2c0,0,0.1-0.1,0.1-0.1C21.5,11.7,21.2,11.6,21.1,11.6L21.1,11.6z"
			/>
		<path class="st4" d="M21,11.9C21,11.9,21,11.8,21,11.9c0.1-0.1,0.5,0.1,0.4,0.2c0,0-0.1,0.1-0.1,0.2c-0.1,0-0.1-0.2-0.2-0.2
			C21.1,12.1,21.1,11.9,21,11.9c0.1,0.2,0.2,0.3,0.2,0.3c0,0,0.1-0.1,0.1-0.1C21.3,12,21.2,11.9,21,11.9L21,11.9z"/>
		<path class="st4" d="M21,12.2C21,12.2,21,12.1,21,12.2c0.1,0,0.2,0.2,0.2,0.2c0,0-0.1,0.1-0.2,0.1c0,0-0.1-0.2-0.1-0.2
			C20.9,12.3,21,12.1,21,12.2c0,0.1,0,0.1,0,0.2c0,0,0,0,0,0C21.1,12.2,21.1,12.2,21,12.2L21,12.2z"/>
		<path class="st4" d="M21.5,10.8C21.6,10.8,21.5,10.8,21.5,10.8c0-0.1,0.2-0.1,0.2,0c0,0,0,0.1,0,0.2c0,0-0.1,0-0.2,0
			C21.6,11,21.5,10.9,21.5,10.8c0.1,0.1,0.1,0,0.2,0.1c0,0,0,0,0,0C21.6,10.8,21.6,10.8,21.5,10.8L21.5,10.8z"/>
		<path class="st4" d="M21.2,12.5C21.2,12.5,21.3,12.4,21.2,12.5c0.1,0,0.1,0.2-0.1,0.4c0,0-0.2,0-0.2,0c0-0.1,0-0.2,0.1-0.3
			C21.1,12.5,21.2,12.4,21.2,12.5c-0.1,0.1-0.1,0.2-0.2,0.3c0,0,0,0.1,0.1,0C21.2,12.6,21.2,12.6,21.2,12.5L21.2,12.5z"/>
		<path class="st4" d="M21.6,12.1C21.6,12.1,21.7,12,21.6,12.1c0.1,0,0.2,0.4,0,0.6c0,0.1-0.3,0.1-0.3,0c0-0.1,0-0.2,0-0.4
			c0,0,0.1-0.1,0.1,0c0,0.1-0.1,0.2,0,0.3c0,0,0.1,0.1,0.2,0C21.7,12.5,21.6,12.3,21.6,12.1L21.6,12.1z"/>
		<path class="st4" d="M21.2,13.6C21.2,13.6,21.2,13.5,21.2,13.6c-0.2,0.3-0.1,0.7,0.1,0.9c0.1,0.1,0.3,0.2,0.4,0
			c0.1-0.1,0-0.4-0.1-0.6c0,0,0-0.2,0-0.3c0-0.1-0.1,0-0.1,0c0,0,0,0.2,0,0.3c0,0.2,0.1,0.3,0.1,0.6c0,0-0.2,0-0.3-0.1
			C21.2,14.2,21.2,13.8,21.2,13.6L21.2,13.6z"/>
		<path class="st4" d="M20.8,13.5C20.9,13.5,20.8,13.3,20.8,13.5c-0.3,0.4,0,0.6,0.1,0.9c0,0.1,0.2,0.2,0.2,0.1
			c0.1-0.1-0.1-0.4-0.1-0.6c0,0,0.1-0.3,0-0.3c0-0.1-0.1,0-0.1,0c0,0-0.1,0.3-0.1,0.3c0,0.2,0.2,0.3,0.1,0.6c0,0-0.1,0-0.1-0.1
			C20.9,14.2,20.6,13.9,20.8,13.5L20.8,13.5z"/>
		<path class="st4" d="M21.8,13.5C21.9,13.5,21.8,13.5,21.8,13.5c-0.2,0.3-0.1,0.7,0.1,0.9c0,0.1,0.3,0.1,0.3-0.1
			c0.1-0.2,0-0.2,0-0.5c0,0,0-0.3,0-0.3c0-0.1-0.1,0-0.1,0c0,0,0,0.2,0,0.3c0,0.2,0,0.4,0.1,0.5c0,0-0.1,0.1-0.2,0
			C21.8,14.1,21.8,13.7,21.8,13.5L21.8,13.5z"/>
		<path class="st4" d="M22.4,13.4C22.4,13.4,22.3,13.4,22.4,13.4c-0.2,0.2-0.1,0.6,0.1,0.8c0,0.1,0.2,0,0.3-0.1
			c0.1-0.1,0.1-0.2,0-0.4c0,0-0.1-0.3-0.1-0.4c0,0-0.1,0-0.1,0c0,0,0.1,0.2,0.1,0.3c0,0.2,0.1,0.2,0,0.3c0,0-0.1,0.1-0.1,0.1
			C22.4,13.8,22.3,13.6,22.4,13.4L22.4,13.4z"/>
		<path class="st4" d="M22.8,13.9c0,0,0-0.1,0-0.1c0.2,0.2,0.4,0.5,0.5,0.8c0,0.1,0,0.3-0.1,0.3c-0.2,0-0.5-0.5-0.5-0.6
			c0,0,0.1-0.1,0.1-0.1s0.4,0.6,0.5,0.6c0,0,0.1-0.1,0.1-0.2C23.2,14.3,23,14,22.8,13.9L22.8,13.9z"/>
		<path class="st4" d="M22.5,14.3C22.5,14.3,22.6,14.2,22.5,14.3c0.3,0.2,0.5,0.4,0.5,0.7c0,0.1-0.1,0.2-0.2,0.2
			c-0.2,0-0.6-0.5-0.7-0.7c0,0,0,0,0.1-0.1c0,0,0.4,0.6,0.5,0.6c0,0,0.2,0,0.1-0.1C22.9,14.7,22.7,14.4,22.5,14.3L22.5,14.3z"/>
		<path class="st4" d="M22,14.6C22.1,14.6,22.1,14.5,22,14.6c0.3,0.2,0.5,0.4,0.5,0.6c0,0.1,0,0.2-0.1,0.2c-0.2,0-0.6-0.5-0.7-0.7
			c0,0,0,0,0.1-0.1c0,0,0.5,0.6,0.6,0.6c0,0,0.1,0,0.1-0.1C22.4,14.9,22.2,14.7,22,14.6L22,14.6z"/>
		<path class="st4" d="M21.3,15C21.4,15,21.4,15.1,21.3,15c0.1,0.1,0.1,0,0,0.1c0,0,0,0-0.1,0c-0.1,0-0.2-0.3-0.1-0.4
			c0,0,0.1,0.1,0.1,0.1C21.3,14.9,21.3,15,21.3,15C21.3,15.1,21.3,15.1,21.3,15C21.4,15,21.3,15,21.3,15L21.3,15z"/>
		<path class="st4" d="M21.5,14.8C21.5,14.8,21.6,14.7,21.5,14.8c0.3,0.2,0.4,0.3,0.5,0.5c0.2,0.2,0.1,0.2,0,0.2
			c-0.4-0.1-0.8-0.7-0.9-0.8c0,0,0.1,0,0.1,0c0,0,0.6,0.7,0.7,0.7c0,0,0.1,0.1,0,0C21.8,15.1,21.7,14.9,21.5,14.8L21.5,14.8z"/>
		<path class="st4" d="M23.5,14.6c0,0-0.1,0,0,0.1c0.1,0.2,0.3,0.6,0.3,0.9c0,0.2,0.1,0.2,0.1,0.1c0.2-0.4-0.1-1.2-0.2-1.4
			c0,0,0,0-0.1,0.1c0,0,0.4,0.6,0.3,1.1c0,0,0,0.1-0.1,0C23.8,15.1,23.6,14.7,23.5,14.6L23.5,14.6z"/>
		<path class="st4" d="M23.2,15.1C23.2,15.1,23.1,15.1,23.2,15.1c0.1,0.3,0.2,0.6,0.3,0.7c0.1,0.2,0.2,0,0.2,0
			c0.1-0.5-0.1-0.8-0.3-1c0,0,0,0-0.1,0.1c0,0,0.3,0.4,0.3,0.9c0,0,0,0.1-0.1,0C23.3,15.5,23.3,15.4,23.2,15.1L23.2,15.1z"/>
		<path class="st4" d="M22.7,15.4C22.7,15.4,22.6,15.4,22.7,15.4c0.1,0.3,0.3,0.6,0.5,0.7c0.2,0.1,0.2,0,0.2-0.1
			c-0.1-0.5-0.2-0.5-0.3-0.8c0,0-0.1,0-0.1,0.1c0,0,0.2,0.2,0.3,0.6c0,0,0,0.1-0.1,0C23,15.8,22.8,15.6,22.7,15.4L22.7,15.4z"/>
		<path class="st4" d="M23.2,16.2c0,0-0.2-0.1-0.1,0c0.2,0.2,0.3,0.4,0.4,0.5c0.2,0.2,0.2,0,0.2-0.1c0-0.2-0.1-0.4-0.3-0.6
			c0,0,0,0.1-0.1,0.1c0,0,0.1,0.2,0.2,0.4c0,0,0,0.1-0.1,0C23.4,16.5,23.4,16.5,23.2,16.2L23.2,16.2z"/>
		<path class="st4" d="M23.6,16C23.6,16,23.6,16,23.6,16c0,0.1,0.1,0.4,0.3,0.5c0.1,0.1,0.1,0,0.1,0c-0.1-0.3-0.1-0.4-0.2-0.6
			C23.8,15.9,23.8,15.9,23.6,16c0.1,0,0.2,0,0.3,0.4c0,0,0,0.1,0,0C23.7,16.2,23.7,16.2,23.6,16L23.6,16z"/>
		<path class="st4" d="M22.2,15.5c0,0-0.1,0-0.1,0c0.2,0.2,0.5,0.5,0.7,0.7c0.1,0.1,0.2,0,0.1-0.1c0-0.1-0.1-0.3-0.4-0.6
			c0,0-0.1,0-0.1,0c0,0,0.2,0.1,0.4,0.5c0,0,0,0.1-0.1,0.1C22.6,16,22.4,15.8,22.2,15.5L22.2,15.5z"/>
		<path class="st4" d="M22.6,13.2C22.7,13.2,22.6,13.2,22.6,13.2c0,0.1,0,0.3,0.1,0.4c0,0,0.1,0,0.1,0c0-0.1,0.1-0.1,0-0.2
			c0,0-0.1-0.3-0.1-0.3c0,0,0,0,0,0.1c0,0,0.1,0.2,0.1,0.2c0,0.1,0,0.1,0,0.1c0,0,0,0-0.1,0C22.7,13.4,22.6,13.3,22.6,13.2
			L22.6,13.2z"/>
		<path class="st4" d="M23,13.5c0,0,0,0.1,0,0.1c0.2,0.2,0.5,0.7,0.5,0.7c0-0.1,0-0.2,0-0.3c0,0-0.4-0.7-0.4-0.7
			C23,13.4,23,13.4,23,13.5c0.1,0.1,0.4,0.4,0.4,0.5c0,0,0,0,0,0C23.2,14,23,13.6,23,13.5L23,13.5z"/>
		<path class="st4" d="M21.4,12.9C21.4,12.9,21.5,12.9,21.4,12.9c0.1,0.1,0.1,0.4-0.1,0.6c0,0-0.2,0.1-0.3,0
			c-0.1-0.1,0.1-0.5,0.2-0.6c0,0,0.1,0,0,0.1c0,0.1-0.2,0.3-0.1,0.4c0,0,0.1,0.1,0.2,0C21.4,13.2,21.4,13.1,21.4,12.9L21.4,12.9z"/>
		<path class="st4" d="M21.9,12.7C21.9,12.7,22,12.7,21.9,12.7c0.1,0.1,0.2,0.5,0,0.7c0,0.1-0.3,0.2-0.4,0c0-0.1,0.1-0.4,0.1-0.6
			c0,0,0.1-0.1,0.1,0c0,0.2-0.1,0.4-0.1,0.5c0,0,0.2,0,0.2-0.1C21.9,13.2,21.9,12.9,21.9,12.7L21.9,12.7z"/>
		<path class="st4" d="M21.9,11.8C21.9,11.8,21.9,11.7,21.9,11.8c0.2,0.1,0.4,0.5,0.3,0.6c0,0.1-0.2,0.3-0.3,0.1
			c0-0.1-0.1-0.4-0.1-0.6c0,0,0-0.1,0,0c0,0.1,0.1,0.4,0.1,0.5c0,0,0.1,0,0.2-0.1C22.1,12.2,22,11.9,21.9,11.8L21.9,11.8z"/>
		<path class="st4" d="M23.4,11.1C23.4,11.1,23.3,11,23.4,11.1c0.2,0,0.8,0.2,0.9,0.3c0,0,0.1,0.3-0.1,0.3c-0.1,0-0.6-0.3-0.8-0.4
			c0,0-0.1-0.1,0-0.1c0.1,0.1,0.6,0.3,0.7,0.3c0,0,0-0.1,0-0.2C24.1,11.3,23.6,11.2,23.4,11.1L23.4,11.1z"/>
		<path class="st4" d="M24.4,11.8c0,0-0.1-0.2,0-0.1c0.3,0.1,1.3,1.2,1.4,1.3c0,0.2-0.1,0.3-0.3,0.2c-0.4-0.4-0.9-0.9-1.1-1.1
			c0,0,0-0.1,0-0.2c0-0.1,1.1,1.1,1.2,1.1c0,0,0.1,0,0.1-0.1C25.6,12.8,24.6,11.9,24.4,11.8L24.4,11.8z"/>
		<path class="st4" d="M24.3,12.3C24.3,12.3,24.3,12.1,24.3,12.3c0.3,0,1,0.8,1,0.9c0,0.2-0.2,0.2-0.3,0.2c-0.3-0.2-0.6-0.5-0.8-0.6
			c0-0.1,0,0.1,0-0.1c0-0.1,0.7,0.6,0.8,0.7c0,0,0.2,0,0.2-0.1C25.2,13,24.5,12.3,24.3,12.3L24.3,12.3z"/>
		<path class="st4" d="M24.1,12.8C24.1,12.8,24.1,12.7,24.1,12.8c0.3,0,0.7,0.5,0.7,0.6c0,0.2-0.2,0.2-0.3,0.2
			c-0.3-0.2-0.3-0.3-0.5-0.4c0-0.1,0,0,0.1-0.1c0-0.1,0.4,0.3,0.5,0.4c0,0,0.2,0,0.2-0.1C24.6,13.2,24.2,12.8,24.1,12.8L24.1,12.8z"
			/>
		<path class="st4" d="M23.8,13.3C23.8,13.3,23.8,13.2,23.8,13.3c0.3,0,0.4,0.3,0.4,0.4c0,0.2-0.3,0.2-0.4,0.2
			c-0.3-0.2-0.1-0.1-0.3-0.2c0-0.1,0,0,0.1-0.1c0-0.1,0.3,0.2,0.3,0.2c0,0,0.2,0,0.2-0.1C24.1,13.5,23.9,13.3,23.8,13.3L23.8,13.3z"
			/>
		<path class="st4" d="M24.8,11.2c0,0,0.1-0.1,0.1-0.1c1.3,0.8,1.5,1.9,1.9,2.2c0.2,0.1-0.5,0-0.7-0.1c-0.4-0.3-1.1-1.4-1.7-1.7
			c0,0-0.1-0.1,0-0.1c0.9,0.3,1.6,1.6,1.8,1.7c0,0,0.3,0.1,0.3,0C26.3,12.6,25.3,11.3,24.8,11.2L24.8,11.2z"/>
		<path class="st4" d="M23.6,11.6C23.6,11.6,23.5,11.5,23.6,11.6c0.3,0,0.6,0.2,0.7,0.3c0,0,0,0.3-0.1,0.3c-0.1,0-0.4-0.1-0.5-0.2
			c0,0,0,0,0-0.1c0,0,0.4,0.2,0.5,0.2c0,0,0.1-0.1,0-0.2C24.1,11.8,23.7,11.6,23.6,11.6L23.6,11.6z"/>
		<path class="st4" d="M23.7,12.2C23.7,12.2,23.7,12.1,23.7,12.2c0.2,0,0.4,0.1,0.4,0.2c0,0,0,0.3-0.1,0.3c-0.2-0.1-0.2,0-0.4-0.2
			c0-0.1,0,0,0-0.1c0,0,0.3,0.2,0.3,0.2c0,0,0.1-0.1,0-0.2C24,12.3,23.8,12.2,23.7,12.2L23.7,12.2z"/>
		<path class="st4" d="M23.4,12.9C23.4,12.9,23.4,13,23.4,12.9c0.1,0.2,0.2,0.3,0.3,0.3c0,0,0.2-0.3,0.2-0.3c0,0-0.1-0.2-0.3-0.2
			c0,0,0,0.1,0,0.1c0,0,0.2,0,0.2,0.1c0,0,0,0.2-0.1,0.2C23.6,13.1,23.5,13,23.4,12.9L23.4,12.9z"/>
		<path class="st4" d="M23.1,13.3C23.2,13.3,23.1,13.4,23.1,13.3c0.1,0.2,0.1,0.3,0.2,0.3c0,0,0.2-0.2,0.2-0.3c0,0,0-0.1-0.2-0.2
			c0,0-0.1,0.1,0,0.1c0,0,0.2,0,0.2,0.1c0,0-0.1,0.2-0.1,0.2C23.3,13.5,23.2,13.4,23.1,13.3L23.1,13.3z"/>
		<path class="st4" d="M22.3,12.4C22.3,12.5,22.4,12.4,22.3,12.4c0.2,0.2,0.1,0.6,0.1,0.8c0,0.1-0.2,0.3-0.3,0.1c0-0.1,0-0.4,0-0.6
			c0,0,0.1-0.1,0.1,0c0,0.1,0,0.6,0,0.6c0,0,0.1,0,0.2-0.2C22.4,12.9,22.4,12.6,22.3,12.4L22.3,12.4z"/>
		<path class="st4" d="M24.1,15.3c0,0,0,0.1,0,0.1c0.3,0.2,1.4,1,1.6,1.1c0.1,0,0.6-0.1,0.4-0.3c-0.1-0.1-1.8-1.1-2.1-1.3
			c0,0,0,0.1,0,0.1c0.1,0.1,2,1.2,2,1.2c0,0-0.2,0.1-0.3,0.1C25.6,16.3,24.3,15.4,24.1,15.3L24.1,15.3z"/>
		<path class="st4" d="M24,15.6C24.1,15.6,24,15.7,24,15.6c0.2,0.3,1,1,1.2,1c0.1,0,0.5,0,0.4-0.1c0,0-0.2-0.1-0.1,0
			c0,0-0.2,0.1-0.3,0C25.1,16.5,24.2,15.8,24,15.6L24,15.6z"/>
		<path class="st4" d="M23.9,15.8C23.9,15.8,23.8,15.8,23.9,15.8c0.1,0.2,0.8,0.9,0.9,0.9c0,0,0.4,0,0.3,0c0,0-0.1,0-0.1-0.1
			c0,0-0.1,0-0.2,0C24.8,16.6,24,15.9,23.9,15.8L23.9,15.8z"/>
		<path class="st4" d="M24.1,15.5C24.1,15.5,24,15.5,24.1,15.5c0.2,0.2,1.2,0.9,1.2,0.9c0,0,0.1,0,0.1,0
			C25.3,16.4,24.2,15.6,24.1,15.5L24.1,15.5z"/>
		<path class="st4" d="M24,15.7C24,15.7,23.9,15.7,24,15.7c0.1,0.2,0.9,0.9,0.9,0.8c0,0,0.1,0,0.1,0C24.9,16.5,24.1,15.8,24,15.7
			L24,15.7z"/>
		<path class="st4" d="M24,16.1c0,0,0,0.1,0,0.1c0.2,0.3,0.5,0.5,0.6,0.5c0.1,0,0.1,0,0.1,0C24.5,16.6,24.6,16.7,24,16.1L24,16.1z"
			/>
		<path class="st4" d="M24.1,15.1c0,0-0.1,0,0,0.1c0.1,0.1,1.6,1,1.6,1c0,0,0.1,0,0.1,0C25.8,16.2,24.2,15.2,24.1,15.1L24.1,15.1z"
			/>
		<path class="st4" d="M22,11.6C22,11.6,21.9,11.4,22,11.6c0.2,0.1,0.5,0.4,0.5,0.6c0,0.1-0.2,0.3-0.3,0.2c0-0.1,0-0.1,0-0.1
			c0,0,0.1-0.1,0.1-0.2C22.4,12,22.1,11.7,22,11.6L22,11.6z"/>
		<path class="st4" d="M21,12.9C21,12.9,21,12.8,21,12.9c-0.2,0.1-0.3,0.3-0.3,0.4c0,0.1,0.3,0.1,0.2,0.1c0-0.1,0,0,0-0.1
			c0,0-0.1,0-0.1-0.1C20.8,13.2,20.9,13,21,12.9L21,12.9z"/>
		<path class="st4" d="M22.9,16.3C23,16.3,22.9,16.4,22.9,16.3c0,0.2,0.2,0.3,0.2,0.4c0,0,0.1,0,0.1-0.1c0,0,0-0.1,0-0.1
			c0,0-0.1,0-0.1,0C23.1,16.5,23,16.4,22.9,16.3L22.9,16.3z"/>
		<path class="st4" d="M22.5,12.3C22.5,12.4,22.5,12.2,22.5,12.3c0.1,0.2,0.2,0.6,0.1,0.8c-0.1,0-0.1,0.1-0.1,0c0-0.1,0-0.1,0-0.1
			c0,0,0,0,0,0C22.6,12.9,22.5,12.5,22.5,12.3L22.5,12.3z"/>
		<path class="st4" d="M22.5,11.9C22.5,11.8,22.5,11.9,22.5,11.9c0,0.1-0.1,0.1-0.1,0c-0.2-0.8-1.1-0.6-1.1-0.8c0-0.2,0-0.3,0-0.4
			c0,0,0.2-0.1,0.3-0.1c0.2,0,0,0.1,0,0.1c0,0-0.2,0-0.2,0c0,0.1-0.1,0.2,0,0.3C21.5,11.1,22.3,11,22.5,11.9L22.5,11.9z"/>
		<path class="st4" d="M23,11.6c0.1,0,0.2,0.5,0.1,0.7c0,0.1-0.3,0.5-0.4,0.6c0,0,0-0.2,0-0.2c0.1-0.1,0.3-0.3,0.3-0.4
			c0-0.4-0.1-0.4-0.1-0.6c-0.3-0.8-1-0.7-1-0.8c-0.1-0.2,0-0.3,0-0.4c0,0,1.4-0.3,2.6,0.4c0.1,0,0.3,0.1,0.4,0.1
			c0,0-0.2,0.2-0.4,0.3c-0.1,0-0.3,0.1-0.4,0c0,0,0-0.1,0-0.2c0,0,0.2,0,0.1,0c0,0,0,0.1,0,0.1c0.1,0,0.3-0.1,0.3-0.1
			c-0.9-0.7-2.5-0.6-2.5-0.6c0,0.1-0.1,0.2,0,0.3C22.1,10.8,22.8,10.8,23,11.6L23,11.6z"/>
		<path class="st4" d="M20.7,12.1C20.7,12.1,20.7,12.2,20.7,12.1c0.2,0,0.4-0.1,0.3-0.2c0,0-0.2,0-0.2,0c-0.1,0.1-0.3,0.2-0.5,0.3
			c0,0-0.1,0.1,0,0.1c0.2,0,0.6-0.4,0.6-0.2C20.9,12,20.9,12,20.7,12.1L20.7,12.1z"/>
		<path class="st4" d="M22.4,11.3L22.4,11.3l0.1,0.1C22.5,11.4,22.4,11.4,22.4,11.3L22.4,11.3L22.4,11.3z"/>
		<path class="st4" d="M22.5,10.8l0.2,0l0.1,0.1C22.7,10.8,22.7,10.8,22.5,10.8L22.5,10.8L22.5,10.8z"/>
		<path class="st4" d="M22.6,11.7l0.1,0l0,0.1c0,0-0.1,0-0.1,0L22.6,11.7L22.6,11.7z"/>
		<path class="st4" d="M22.6,12.3L22.6,12.3l0.1,0.1C22.7,12.3,22.7,12.4,22.6,12.3L22.6,12.3L22.6,12.3z"/>
		<path class="st4" d="M22.9,12.9c0.1,0.1,0.2,0.1,0.3,0.2c0,0.1-0.1,0.1-0.1,0.2c0,0,0-0.1-0.1-0.1c0,0,0,0,0.1,0
			C23,13,23,13,22.9,12.9C22.9,12.9,22.9,12.9,22.9,12.9L22.9,12.9z"/>
		<path class="st4" d="M23.5,13.6c0.1,0,0.2,0.2,0.3,0.3c0,0.1-0.1,0.1-0.1,0.2c-0.2,0.3-0.1,0.1-0.1,0c0,0,0.1-0.1,0.1-0.2
			C23.6,13.8,23.5,13.7,23.5,13.6C23.5,13.7,23.5,13.6,23.5,13.6L23.5,13.6z"/>
		<path class="st4" d="M23.2,12.6c0.1,0.1,0.2,0.1,0.3,0.1c0,0,0,0,0,0c-0.1,0.1-0.1,0.2-0.2,0.3c-0.1-0.1-0.2-0.1-0.2-0.2
			c0,0,0,0,0-0.1c0,0.1,0.1,0.1,0.2,0.1c0,0,0.1-0.1,0.1-0.1C23.2,12.7,23.2,12.7,23.2,12.6C23.1,12.6,23.1,12.6,23.2,12.6
			L23.2,12.6z"/>
		<path class="st4" d="M23.2,12.1c0.1,0,0.2,0.1,0.3,0.1c0,0,0,0,0,0c0,0.2,0,0.4,0,0.5c-0.1,0-0.2,0-0.3-0.1c0,0,0-0.1,0-0.1
			c0.1,0,0.1,0.1,0.2,0.1c0-0.1,0-0.1,0-0.2C23.4,12.2,23.3,12.2,23.2,12.1C23.3,12.1,23.2,12.1,23.2,12.1L23.2,12.1z"/>
		<path class="st4" d="M23.1,11.5c0.1,0,0.2,0.1,0.3,0c0,0,0,0,0,0c0.1,0.2,0.1,0.4,0.1,0.5c-0.1,0-0.2,0-0.3-0.1c0,0,0-0.1,0-0.1
			c0.1,0,0.1,0,0.2,0c0-0.1,0-0.2,0-0.2C23.3,11.7,23.2,11.6,23.1,11.5C23.2,11.6,23.1,11.6,23.1,11.5L23.1,11.5z"/>
		<path class="st4" d="M22.1,10.6c0.1-0.1,0.4,0,0.5,0c0,0,0.1,0,0.1,0c0.2,0.1,0.3,0.3,0.4,0.4c-0.1,0.1-0.2,0-0.3,0
			c0-0.1,0-0.1-0.1-0.1c0.1,0,0.1,0,0.2,0c-0.1,0-0.2-0.2-0.2-0.2C22.7,10.7,22.3,10.7,22.1,10.6C22.2,10.7,22.2,10.6,22.1,10.6
			L22.1,10.6z"/>
		<path class="st4" d="M22.9,11.1c0.1,0,0.1,0,0.3,0c0,0,0,0,0,0c0.1,0.1,0.2,0.3,0.2,0.4c-0.1,0-0.2,0-0.3,0c0,0,0-0.1,0-0.1
			c0.1,0,0.1,0,0.2,0c0,0,0-0.1-0.1-0.1C23.1,11.2,23.1,11.2,22.9,11.1C23,11.1,22.9,11.1,22.9,11.1L22.9,11.1z"/>
		<path class="st4" d="M26.7,13.4c0,0.1,0.1,0.3,0.2,0.5c0,0.1,0.1,0.2,0.1,0.2c-0.1,0.8,0,2.1-0.2,2.2c0,0,0-0.1,0-0.1
			c0-0.6-0.2-1.2-0.3-1.8c0,0,0-0.1,0-0.2c-0.1-0.2-0.4-0.2-0.5-1c0,0,0.1-0.1,0.1-0.1c0,0.1,0.1,0,0.1,0.1c0,0.6,0.3,0.6,0.5,0.9
			c0,0,0.1,0.1,0.1,0.2c0,0.2,0.1,1,0.2,1.1c0,0.1,0.1,0.1,0.1,0c0-0.5,0-0.8,0-1.2c0,0,0-0.1,0-0.1c0-0.1-0.1-0.3-0.2-0.7
			L26.7,13.4L26.7,13.4z"/>
		<path class="st4" d="M26.3,14.3c0.1,0.8,0.2,1,0.1,1.8c0,0,0-0.1,0-0.1c0-0.6-0.3-1-0.4-1.6c0,0,0-0.1-0.1-0.2
			c-0.1-0.2-0.3-0.2-0.6-0.8c0,0,0.1-0.2,0.2,0c0.1,0.4,0.4,0.5,0.6,0.8c0,0,0,0.2,0,0.3c0,0.2,0.2,0.7,0.2,0.8c0,0.1,0.1,0.1,0.1,0
			c0-0.5-0.1-0.6-0.2-1C26.1,14.1,26.3,14.3,26.3,14.3L26.3,14.3z"/>
		<path class="st4" d="M25.8,14.2c0.1,0.6,0.3,0.9,0.3,1.7c0,0,0,0-0.1-0.1c0-0.5-0.4-0.7-0.5-1.4c0-0.1-0.1,0-0.1-0.1
			c-0.2-0.3-0.2-0.1-0.6-0.7c0,0,0-0.2,0.1-0.1c0.3,0.4,0.4,0.4,0.5,0.6c0,0,0.1,0,0.1,0.1c0.2,0.2,0.1,0.6,0.3,0.8
			c0,0,0.1,0.1,0.1,0c-0.1-0.5-0.1-0.4-0.2-0.9C25.7,14,25.8,14.1,25.8,14.2L25.8,14.2z"/>
		<path class="st4" d="M25.3,14.2c0.1,0.4,0.1,0.4,0.2,1c-0.1,0-0.1,0-0.1-0.1c-0.1-0.4-0.2-0.4-0.4-0.7c0,0-0.1-0.1-0.2-0.1
			c-0.2-0.1-0.3-0.1-0.6-0.4c0,0,0-0.2,0.1-0.1c0.2,0.3,0.2,0.2,0.3,0.3c0,0,0.2,0,0.2,0.1c0.2,0.1,0.3,0.4,0.4,0.6c0,0,0.1,0,0-0.1
			c-0.1-0.3,0-0.2-0.2-0.5C25.2,14.1,25.3,14.2,25.3,14.2L25.3,14.2z"/>
		<path class="st4" d="M24.8,14.3c0.2,0.3,0.2,0.3,0.3,0.7C25,15,25,15,25,15c-0.2-0.3-0.3-0.3-0.4-0.5c0,0-0.1-0.1-0.1-0.1
			c-0.2-0.1-0.3-0.1-0.6-0.3c0,0,0.1-0.2,0.1-0.1c0.2,0.2,0.2,0.1,0.4,0.2c0,0,0.1,0,0.1,0c0.2,0,0.3,0.3,0.4,0.4c0,0,0.1,0,0-0.1
			c-0.2-0.2,0,0-0.2-0.3C24.7,14.3,24.8,14.3,24.8,14.3L24.8,14.3z"/>
		<path class="st4" d="M26.4,13.4c0,0.1,0.1,0.3,0.1,0.4c-0.1,0-0.3-0.4-0.4-0.6C26.1,13.3,26.4,13.3,26.4,13.4L26.4,13.4z"/>
		<path class="st4" d="M25.7,13.3c0,0.1,0.1,0.4,0.2,0.6c-0.1,0-0.3-0.4-0.4-0.6C25.5,13.2,25.7,13.3,25.7,13.3L25.7,13.3z"/>
		<path class="st4" d="M25.2,13.4c0.1,0.1,0.2,0.3,0.3,0.5c-0.1,0-0.3-0.3-0.4-0.5C25,13.4,25.2,13.4,25.2,13.4L25.2,13.4z"/>
		<path class="st4" d="M24.7,13.6c0,0.1,0.1,0.2,0.3,0.4c-0.1,0-0.4-0.2-0.4-0.4C24.5,13.6,24.7,13.6,24.7,13.6L24.7,13.6z"/>
		<path class="st4" d="M24.2,13.9c0,0.1,0.1,0.1,0.2,0.2c-0.1,0-0.2-0.1-0.3-0.2C24.1,13.9,24.2,13.9,24.2,13.9L24.2,13.9z"/>
		<path class="st4" d="M22,15.6c0,0.2,0,0.2,0,0.3c0.1,0.2,0.1,0.2,0.2,0.4c0,0,0.1,0,0.1,0c0.1,0,0-0.2,0-0.3c0,0,0,0-0.1,0
			c0,0,0,0.2,0,0.2c0,0,0,0,0,0c-0.1,0-0.1-0.1-0.1-0.1C22.1,15.9,22.1,15.8,22,15.6C22.1,15.7,22,15.6,22,15.6L22,15.6z"/>
		<path class="st4" d="M21.6,16c-0.1,0-0.3,0-0.4,0c-0.1,0-0.1,0-0.2,0c0,0-0.1,0.1,0,0.1c0,0,0.3,0,0.4,0.1c0,0,0,0,0,0
			c0,0-0.3-0.1-0.3-0.1c0,0,0,0,0,0c0,0,0,0,0,0C21.2,16,21.4,16,21.6,16L21.6,16L21.6,16z"/>
		<path class="st4" d="M21.6,15.6c0,0-0.1,0-0.2,0c-0.1,0,0,0-0.1,0c0,0-0.1,0-0.1,0.2c0,0.1,0.2,0.1,0.4,0.1c0,0,0,0,0,0
			c0,0-0.2-0.1-0.3-0.1c0,0,0,0,0-0.1c0,0,0,0,0,0C21.5,15.7,21.5,15.7,21.6,15.6C21.6,15.7,21.6,15.6,21.6,15.6L21.6,15.6z"/>
		<path class="st4" d="M21.5,15.5c0,0-0.2-0.1-0.2-0.1c0,0,0,0-0.1-0.1c0,0-0.1-0.1-0.1-0.2c0.1-0.1,0.1,0,0.2,0c0,0,0,0,0,0.1
			c0,0,0,0-0.1,0c-0.1,0,0,0,0,0c0,0,0,0,0,0C21.4,15.4,21.4,15.4,21.5,15.5C21.5,15.4,21.5,15.5,21.5,15.5L21.5,15.5z"/>
		<path class="st4" d="M22,15.8c-0.1,0-0.2,0.1-0.2,0.1c-0.1,0.1-0.2,0.1-0.3,0.2c0,0-0.1,0.2,0,0.2c0,0.1,0.4-0.1,0.5-0.1
			c0,0,0,0,0-0.1c0,0-0.3,0.1-0.4,0.1c0,0,0,0,0,0c0-0.1,0.1-0.1,0.1-0.1C21.8,16,21.9,15.9,22,15.8C22,15.9,22,15.8,22,15.8
			L22,15.8z"/>
		<path class="st4" d="M21.5,15.2c0,0.1,0.1,0.3,0.1,0.3c0.1,0.1,0.1,0.1,0.2,0.2c0,0,0.1,0,0.1,0c0.1,0,0-0.2,0-0.2c0,0,0,0-0.1,0
			c0,0,0,0.1,0,0.2c0,0,0,0,0,0c-0.1,0-0.1-0.1-0.1-0.1c-0.1-0.1-0.1-0.2-0.1-0.3C21.6,15.3,21.5,15.2,21.5,15.2L21.5,15.2z"/>
		<path class="st4" d="M22.3,16c0,0,0-0.1,0-0.2c0,0,0,0-0.1-0.1v0.1C22.2,15.8,22.2,15.9,22.3,16C22.2,15.9,22.3,16,22.3,16
			L22.3,16z"/>
		<path class="st4" d="M21.8,16.1c0,0,0.2-0.1,0.3-0.1c0,0,0,0,0-0.1c0,0-0.1,0-0.1,0C21.9,16,21.8,16,21.8,16.1
			C21.8,16.1,21.8,16.1,21.8,16.1L21.8,16.1z"/>
		<path class="st4" d="M21.8,15.8c-0.2,0-0.2-0.1-0.3-0.1c0,0,0,0,0,0c0,0,0.1,0,0.2,0C21.6,15.7,21.6,15.8,21.8,15.8
			C21.8,15.8,21.8,15.8,21.8,15.8L21.8,15.8z"/>
		<path class="st4" d="M21.8,15.5c0,0,0-0.1,0-0.1c0,0,0,0-0.1,0L21.8,15.5C21.7,15.4,21.7,15.4,21.8,15.5
			C21.8,15.5,21.8,15.5,21.8,15.5L21.8,15.5z"/>
		<g>
			<path class="st5" d="M20.3,15.6c0-0.1,0-0.1,0-0.1c0-0.1,0.1-0.2,0.2-0.2c0,0,0,0.1,0,0.2c0,0,0.1,0,0,0.1
				C20.4,15.6,20.3,15.6,20.3,15.6L20.3,15.6z"/>
			<path class="st5" d="M20.3,16C20.4,16,20.4,16.1,20.3,16c0.2,0.1,0.2,0,0.2,0C20.6,16,20.5,16,20.3,16
				C20.4,15.9,20.4,15.9,20.3,16C20.2,16,20.3,16,20.3,16L20.3,16z"/>
			<path class="st5" d="M20.2,16.1C20.2,16.1,20.2,16.1,20.2,16.1c0.1,0.1,0.2,0,0.2,0C20.4,16.1,20.3,16.1,20.2,16.1
				C20.3,16,20.2,16,20.2,16.1C20.1,16,20.2,16.1,20.2,16.1L20.2,16.1z"/>
			<path class="st5" d="M20.1,16.1C20.1,16.2,20.1,16.2,20.1,16.1c0.1,0,0.1,0,0.1,0C20.2,16.1,20.1,16.1,20.1,16.1
				C20.1,16.1,20.1,16.1,20.1,16.1C20,16.1,20,16.1,20.1,16.1L20.1,16.1z"/>
			<path class="st5" d="M20.2,15.8c-0.1-0.1,0-0.2-0.1-0.4c0-0.1,0-0.1,0-0.1c0,0,0.2,0,0.2-0.1c0,0.1-0.2,0.2,0,0.4
				c0,0,0,0.1,0,0.2C20.3,15.9,20.3,15.9,20.2,15.8C20.2,15.9,20.2,15.8,20.2,15.8L20.2,15.8z"/>
			<path class="st5" d="M20.2,16C20.2,16,20.2,15.9,20.2,16c-0.1-0.1-0.2-0.2-0.1-0.4c0-0.1,0-0.1-0.1-0.1c0,0-0.1,0.1-0.1,0.1
				c0.1,0,0.1,0.1,0.1,0.3c0,0,0,0,0.1,0.1C20.1,16,20.2,16,20.2,16L20.2,16z"/>
			<path class="st5" d="M20,16.1C20,16.1,20,16,20,16.1c0-0.1-0.1-0.2-0.1-0.3c0-0.1,0-0.1-0.1-0.1c0,0-0.1,0.1-0.1,0.1
				c0,0,0.2,0.2,0.1,0.2C19.8,16,19.9,16,20,16.1C20,16.1,20,16.1,20,16.1L20,16.1z"/>
			<path class="st5" d="M21.1,15.4c0,0,0.1,0,0.1,0.1c0,0.1-0.2,0.2-0.4,0.4c0,0-0.1,0-0.1,0c-0.1,0-0.1,0-0.2-0.1c0,0,0,0,0,0
				c0.1-0.1,0.1,0,0.2,0l0-0.1c0,0-0.1-0.1-0.2-0.1c0,0-0.1,0.1-0.2,0.1c0,0,0,0.1,0,0.1c0,0,0.2,0.1,0.3,0.2c0,0,0.1,0,0.2,0
				c0-0.1,0.3-0.2,0.4-0.4c0-0.1,0-0.1,0-0.1C21.2,15.4,21.1,15.3,21.1,15.4L21.1,15.4L21.1,15.4z"/>
		</g>
		<g>
			<g id="XMLID_256_">
				<path id="XMLID_266_" class="st6" d="M19.1,11.8C19.1,11.7,19.1,11.7,19.1,11.8c-0.2,0-0.4,0.2-0.4,0.3c0,0.3,0.1,0.7,0.3,0.8
					c0.1,0,0.3,0,0.4-0.1c0,0,0-0.1,0-0.1c-0.1,0-0.2,0.1-0.3,0c-0.2-0.1-0.2-0.4-0.2-0.6L19.1,11.8c-0.1,0.1-0.2,0.2-0.2,0.2
					C18.9,11.9,19,11.7,19.1,11.8L19.1,11.8z"/>
				<path id="XMLID_265_" class="st6" d="M19.5,12.4c0,0.1-0.4,0.2-0.4,0C19.2,12.5,19.4,12.5,19.5,12.4L19.5,12.4z"/>
				<path id="XMLID_264_" class="st6" d="M20.1,12.6c0.3-0.1,0.6,0.5,0.3,0.8C20.5,13.1,20.4,12.7,20.1,12.6L20.1,12.6z"/>
				<path id="XMLID_263_" class="st6" d="M19.9,12.7C19.9,12.7,19.9,12.6,19.9,12.7C19.9,12.7,20,12.7,19.9,12.7
					c0.2,0,0.4,0.3,0.5,0.6c0,0.3-0.6,0.8-0.9,1.1c-0.1,0.2,0.1,0.5,0,0.5c-0.5-0.3-0.1-0.7-0.1-0.8c0.5-0.6,1-0.8,0.6-1.3
					c0,0-0.1,0-0.1-0.1C19.9,12.8,19.9,12.7,19.9,12.7L19.9,12.7z"/>
				<path id="XMLID_262_" class="st6" d="M20.8,15.6c0,0,0.1-0.1,0.1-0.2c0,0,0,0,0-0.1c0.1-0.2,0-0.5-0.2-0.6c-0.2-0.2-0.6,0-1-0.1
					c-0.2-0.1-0.2-0.4-0.2-0.3c-0.1,0.4,0.3,0.4,0.3,0.4c0.6,0.1,0.9-0.1,0.9,0.4c0,0,0,0.1,0,0.1c-0.1,0.1-0.2,0.2-0.2,0.2
					C20.6,15.5,20.8,15.6,20.8,15.6L20.8,15.6z"/>
				<path id="XMLID_261_" class="st6" d="M19.3,11.8C19.4,11.7,19.4,11.7,19.3,11.8c0.1,0,0.1,0.2,0,0.3
					C19.4,11.9,19.4,11.8,19.3,11.8L19.3,11.8z"/>
				<path id="XMLID_260_" class="st6" d="M19.6,12c0.1,0.1-0.5,0.5-0.6,0.3c0-0.1,0.1-0.4,0.2-0.5c0.1-0.1,0-0.2,0-0.2
					c-0.1,0,0.1-0.1,0.1-0.1c0.1-0.1,0.2,0.1,0.1,0.1c-0.2,0.2-0.1,0.2-0.1,0.2c0,0,0,0.2-0.1,0.3c0,0,0,0.1,0,0.1
					C19.3,12.2,19.5,12.1,19.6,12L19.6,12z"/>
				<path id="XMLID_259_" class="st6" d="M20.1,13.1c0,0,0,0,0-0.1C20.1,13,20.1,13.1,20.1,13.1c-0.3,0.3-0.7,0.4-0.9,0.8
					c-0.1,0.3-0.1,0.7,0,1c0.2,0.4,0.9,0.2,1.3,0.2c0.1,0,0,0.2,0,0.3c0,0,0.1-0.1,0.1-0.1c0.1-0.2-0.1-0.3-0.1-0.2
					c-0.7,0.1-1,0.1-1.2-0.2c-0.2-0.4-0.2-0.6,0-0.8C19.7,13.5,19.8,13.6,20.1,13.1L20.1,13.1z"/>
				<path id="XMLID_258_" class="st6" d="M18.6,13.8c0.2,0.1,0.3,0.3,0.4,0.3c0.1,0.3-0.2,0.5-0.1,0.7c0.1,0.2,0.3,0.1,0.5,0.4
					c0.2,0.2,0,0.3,0.3,0.5c0,0,0,0.1,0.1,0.1c-0.3,0-0.4-0.2-0.5-0.5c-0.1-0.2-0.4-0.2-0.6-0.5c0-0.3,0.1-0.4,0.1-0.7
					C18.9,14.1,18.6,13.9,18.6,13.8C18.5,13.9,18.6,13.8,18.6,13.8L18.6,13.8z"/>
				<path id="XMLID_257_" class="st6" d="M18.4,14c0.2,0.1,0.2,0.2,0.3,0.3c0.1,0.3-0.2,0.5-0.1,0.7c0.1,0.2,0.3,0.3,0.6,0.5
					c0.2,0.2,0,0.8,0.7,0.7c0,0,0.1,0.1,0.1,0.1c-0.7,0.2-0.8-0.4-0.9-0.7c-0.2-0.2-0.4-0.2-0.6-0.5c-0.1-0.4,0.2-0.5,0.1-0.7
					C18.6,14.1,18.5,14,18.4,14C18.4,14,18.4,14,18.4,14L18.4,14z"/>
			</g>
		</g>
		<path class="st5" d="M18.5,13.8c-0.1,0.1-0.2,0.1-0.1,0.3c0,0,0,0.1,0,0.1c0,0-0.1,0-0.1,0c0-0.2-0.1-0.2,0.1-0.4
			C18.4,13.7,18.4,13.7,18.5,13.8L18.5,13.8z"/>
		<path class="st5" d="M18.3,13.7c-0.1,0.1-0.2,0.1-0.1,0.3c0,0,0,0.1,0,0.1c0,0-0.1,0-0.1,0c0-0.2-0.1-0.2,0.1-0.4
			C18.2,13.6,18.2,13.7,18.3,13.7L18.3,13.7z"/>
		<path class="st5" d="M18.1,13.7C18,13.7,17.9,13.8,18,14c0,0,0,0.1,0,0.1c0,0-0.1,0-0.1,0c0-0.1-0.1-0.2-0.1-0.2
			c0,0,0.1-0.1,0.2-0.2C18,13.6,18,13.6,18.1,13.7L18.1,13.7z"/>
		<path class="st4" d="M23,16.8c0,0-0.1,0-0.2,0c0,0,0,0.3,0,0.3c0,0,0.1,0,0.1,0c0,0,0-0.2,0.1-0.2c0,0,0.1,0,0.2,0
			c0.1,0,0.1-0.1,0.1,0c0,0,0.1,0,0.1,0c-0.1,0.1-0.2,0.2-0.3,0.2c0,0-0.1,0.1-0.1,0.1c0,0.1,0.1,0.2,0.1,0.2c0,0,0.2,0,0.2-0.1
			c0.1,0,0.3-0.3,0.3-0.3c0,0,0.1,0,0.2,0c0.1,0,0.1,0.1,0.1,0.1c0,0.1,0,0.1,0.2,0.1c0.3,0,0.3,0,0.4-0.2c0.1-0.1,0.1-0.1,0-0.2
			c0,0-0.1-0.1-0.2-0.1c-0.2,0-0.3,0-0.4-0.2c0,0-0.1,0-0.1,0c0.1,0.1,0.1,0.2,0.2,0.2c0,0,0.2,0,0.2,0.1c0,0.1-0.1,0.1-0.1,0.1
			c-0.1,0-0.1-0.1-0.2-0.1c0,0-0.2-0.2-0.2-0.2c0,0-0.1,0.1-0.2,0.1c-0.1,0-0.3,0.3-0.4,0.4c-0.1,0-0.1,0-0.1-0.1
			c0,0,0.3-0.3,0.3-0.3c0,0,0-0.1,0-0.1c0,0,0,0-0.1,0C23.3,16.8,23.1,16.9,23,16.8L23,16.8z"/>
		<path class="st4" d="M22.8,16.9c0,0.1,0,0.2,0,0.3c0,0-0.1,0-0.1,0c-0.1,0-0.1,0.1,0,0.2l0,0c-0.1,0-0.2-0.2-0.1-0.3
			C22.5,17,22.7,16.9,22.8,16.9L22.8,16.9z"/>
		<path class="st4" d="M23,17.3c0,0.1,0.1,0.1,0.1,0.2c-0.1,0-0.2,0.2,0,0.3c0,0-0.1,0-0.1,0c-0.1,0-0.2-0.1-0.2-0.3
			C22.8,17.4,22.9,17.3,23,17.3L23,17.3z"/>
		<path class="st4" d="M24.7,17c-0.1,0.1-0.1,0.1-0.1,0.2c0.1,0,0.2,0.2,0,0.3c0,0,0.1,0,0.1,0c0.1,0,0.2-0.1,0.2-0.3
			C24.9,17.2,24.7,17,24.7,17L24.7,17z"/>
		<path class="st7" d="M25.6,17.7c-0.1,0-0.1,0-0.2,0c-0.1,0.1,0,0.1,0.1,0.1L25.6,17.7L25.6,17.7z"/>
		<g>
			<path class="st8" d="M20.4,16.7L20.4,16.7c-0.1-0.1-0.2,0-0.2,0.1c0,0.2,0,0.3,0.1,0.3c0.1,0.1,0.2,0,0.3-0.2
				C20.7,16.7,20.6,16.7,20.4,16.7L20.4,16.7c0.1,0,0.1,0.1,0.1,0.2c0,0.1-0.1,0.2-0.1,0.2c-0.1,0-0.1-0.1-0.1-0.2
				C20.3,16.8,20.4,16.7,20.4,16.7L20.4,16.7z"/>
			<path class="st8" d="M20.2,16.5c0,0,0.1-0.1,0.1-0.1c0,0.1,0,0.1,0,0.2c0,0,0,0-0.1,0C20.3,16.6,20.2,16.5,20.2,16.5L20.2,16.5z"
				/>
			<path class="st8" d="M20.4,16.4c0.1,0,0.1,0,0.2,0c0,0.1,0,0.1-0.1,0.2c0,0,0,0-0.1,0C20.5,16.5,20.4,16.5,20.4,16.4L20.4,16.4z"
				/>
			<path class="st8" d="M20.7,16.5c0.1,0,0.1,0,0.1,0.1c0,0.1-0.1,0.1-0.1,0.1c0,0,0,0,0,0C20.6,16.6,20.6,16.5,20.7,16.5L20.7,16.5
				z"/>
		</g>
		<g>
			<path class="st8" d="M26.1,17L26.1,17c0-0.1-0.1-0.1-0.2,0c-0.1,0.1-0.2,0.2-0.1,0.3c0.1,0.1,0.2,0.1,0.3,0
				C26.2,17.2,26.3,17.1,26.1,17L26.1,17c0,0,0,0.1-0.1,0.2c-0.1,0.1-0.2,0.1-0.2,0c0-0.1,0-0.1,0.1-0.2C26,17,26.1,17,26.1,17
				L26.1,17z"/>
			<path class="st8" d="M26.2,16.6c0.1,0,0.1,0,0.1,0.1c0,0.1-0.1,0.1-0.1,0.1c0,0,0,0,0,0C26.1,16.7,26.1,16.7,26.2,16.6L26.2,16.6
				z"/>
			<path class="st8" d="M26.3,16.8c0.1,0,0.1,0,0.1,0.1c0,0-0.1,0.1-0.1,0.1c0,0,0,0,0,0C26.3,16.9,26.3,16.8,26.3,16.8L26.3,16.8z"
				/>
			<path class="st8" d="M26.5,17c0,0,0,0.1,0,0.1c-0.1,0-0.1,0-0.2,0c0,0,0,0,0,0C26.4,17,26.4,17,26.5,17L26.5,17z"/>
			<path class="st8" d="M26.5,16.6c0,0-0.1,0-0.1,0.1c0,0,0,0.1,0.1,0.1C26.6,16.8,26.6,16.7,26.5,16.6c0.1,0.1,0.2,0.1,0.2,0
				c0-0.1,0-0.1,0-0.2C26.7,16.4,26.6,16.5,26.5,16.6C26.6,16.5,26.5,16.6,26.5,16.6L26.5,16.6z"/>
		</g>
		<g>
			<path class="st8" d="M18.3,15.8L18.3,15.8c0.1-0.2,0.2-0.1,0.3,0c0.1,0.1,0.1,0.2,0,0.3c-0.1,0.1-0.2,0.1-0.4,0
				C18,16,18.1,15.9,18.3,15.8L18.3,15.8c0,0,0,0.1,0,0.2c0.1,0.1,0.2,0.1,0.2,0.1c0,0,0-0.1,0-0.2C18.4,15.8,18.3,15.8,18.3,15.8
				L18.3,15.8z"/>
			<path class="st8" d="M18.4,15.4c0,0-0.1,0-0.2,0c0,0.1,0,0.1,0.1,0.2c0,0,0,0,0.1,0C18.4,15.6,18.4,15.5,18.4,15.4L18.4,15.4z"/>
			<path class="st8" d="M18.2,15.5c-0.1,0-0.1,0-0.1,0.1c0,0.1,0.1,0.1,0.1,0.1c0,0,0,0,0,0C18.2,15.6,18.2,15.6,18.2,15.5
				L18.2,15.5z"/>
			<path class="st8" d="M17.9,15.7c0,0-0.1,0.1-0.1,0.1c0.1,0,0.1,0,0.2,0c0,0,0,0,0-0.1C18,15.7,18,15.7,17.9,15.7L17.9,15.7z"/>
			<path class="st8" d="M18,15.3c0,0,0.1,0.1,0.1,0.1c0,0-0.1,0.1-0.1,0.1C18,15.4,17.9,15.4,18,15.3c-0.1,0.1-0.2,0-0.2,0
				c0-0.1,0-0.1,0.1-0.1C17.9,15.1,18,15.1,18,15.3C18,15.2,18,15.3,18,15.3L18,15.3z"/>
		</g>
		<g>
			<g id="XMLID_340_">
				<path id="XMLID_368_" class="st9" d="M25.5,17v-0.2L25.3,17l0,0.1l-0.2,0.1L25.1,17l0,0.2c0,0.1-0.1,0.2-0.1,0.3
					c-0.1,0.2-0.2,0.2-0.4,0.1l0,0.1c0.5,0.1,0.4-0.3,0.6-0.5c0,0,0,0,0,0c0.1-0.1,0.3-0.1,0.4-0.1c0,0,0-0.1,0.1-0.1
					C25.7,17,25.5,17,25.5,17L25.5,17z"/>
				<path id="XMLID_367_" class="st9" d="M26,17.6l0.2,0C26.1,17.7,26,17.7,26,17.6c-0.2,0.2-0.2,0.2-0.4,0.3l0.1,0.1
					c-0.1,0-0.2,0-0.3,0c-0.1,0.1-0.7,0-0.7,0.1v0.2c0,0-0.1-0.2-0.2-0.2c-0.1,0-0.3-0.1-0.3,0l0.1-0.1c0.4,0,0.6,0.2,1.1,0
					c0.2-0.1,0.4-0.3,0.4-0.3c0,0,0.1,0,0.1,0C26,17.5,26,17.6,26,17.6L26,17.6z"/>
				<path id="XMLID_366_" class="st9" d="M25.3,17.7c-0.1,0-0.2,0-0.2,0c-0.1,0.1,0,0.1,0.1,0.1L25.3,17.7L25.3,17.7z"/>
				<path id="XMLID_365_" class="st9" d="M25.3,17.3c-0.1,0.1-0.1,0.1-0.2,0.2c0,0.1,0.1,0.1,0.1,0L25.3,17.3L25.3,17.3z"/>
				<path id="XMLID_364_" class="st9" d="M25.6,17.4c-0.1,0.1-0.1,0.1-0.2,0.1c0,0.1,0.1,0.1,0.1,0L25.6,17.4L25.6,17.4z"/>
				<path id="XMLID_363_" class="st9" d="M18.4,16.7c-0.1,0-0.1,0-0.2,0c0,0.1,0.1,0.2,0.2,0.1c0.1,0.1,0.1,0.1,0.3,0.3
					c-0.1,0-0.1,0.1-0.2,0.1c0.1,0.1,0.2,0.1,0.3,0c0,0.1,0.1,0.1,0.2,0.1c0,0-0.1,0.1-0.1,0.1c0.1,0,0.2,0,0.2-0.1c0,0,0.4,0,0.4,0
					c0,0,0,0,0-0.1c-0.4-0.1-0.3,0-0.7-0.2c-0.2-0.1-0.3-0.3-0.3-0.4c0-0.1,0.3-0.3,0.3-0.3c0.1,0,0.2,0,0.3,0.1
					c0.1,0.1,0.3,0.4,0.3,0.6l0.1-0.1c0-0.1,0-0.2-0.1-0.2c0,0,0.1-0.1,0-0.3c0,0.1-0.1,0.1-0.1,0.2c-0.1-0.1-0.2-0.2-0.4-0.4
					c0-0.1,0-0.2-0.2-0.2l0,0.2C18.6,16.1,18.3,16.6,18.4,16.7L18.4,16.7z"/>
				<path id="XMLID_362_" class="st9" d="M19.2,17c0.1,0,0.2,0,0.2,0c0.1,0.1-0.1,0.1-0.1,0.1L19.2,17L19.2,17z"/>
				<path id="XMLID_361_" class="st9" d="M19.2,16.5c0,0.1,0.1,0.1,0.1,0.2c0,0.1-0.1,0-0.1,0L19.2,16.5L19.2,16.5z"/>
				<path id="XMLID_360_" class="st9" d="M18.9,16.4c0,0.1,0.1,0.1,0.1,0.2c0,0.1-0.1,0-0.1,0V16.4L18.9,16.4z"/>
				<path id="XMLID_359_" class="st9" d="M18.8,16.8c0.1,0,0.1,0,0.2,0.1c0,0.1-0.1,0.1-0.1,0.1L18.8,16.8L18.8,16.8z"/>
				<path id="XMLID_358_" class="st9" d="M21.3,18C21.3,18,21.3,18,21.3,18c0,0.1,0.1,0.1,0.2,0c0.1,0,0.3,0,0.4,0
					c0,0.1,0,0.1,0,0.1c0.1,0,0.2,0,0.2-0.1c0.1,0,0.2,0,0.3,0c0.1,0,0,0.2,0,0.1c0.1-0.1,0.2-0.1,0.1-0.2c0,0,0.2,0,0.2,0
					c0,0,0-0.1,0-0.2c-0.4,0.2-0.6,0.2-1,0.1c-0.1,0-0.3-0.1-0.4-0.1c-0.2-0.1,0-0.5,0-0.6c0.1-0.1,0.1-0.2,0.4-0.2
					c0.2,0,0.5,0.2,0.7,0.3l0-0.1c-0.1-0.1-0.2-0.1-0.2-0.2c0,0,0-0.2-0.2-0.3c0,0.1,0,0.1,0,0.2c-0.1,0-0.2-0.1-0.3-0.1
					c0-0.1-0.2-0.2-0.3-0.2c0,0,0.1,0.2,0,0.2c0,0-0.1,0.1-0.1,0.1c-0.1,0-0.1-0.1-0.3,0l0.1,0.2C21,17.3,20.9,17.9,21.3,18L21.3,18
					z"/>
				<path id="XMLID_357_" class="st9" d="M22,17.4c0.1,0,0.2,0,0.2,0c0.1,0.1-0.1,0.1-0.1,0.1L22,17.4L22,17.4z"/>
				<path id="XMLID_356_" class="st9" d="M22.3,17.5c0.1,0,0.2-0.1,0.2-0.1c0.1,0.1,0,0.2-0.1,0.1L22.3,17.5L22.3,17.5z"/>
				<path id="XMLID_355_" class="st9" d="M21.8,17.1c0.1,0,0.2,0,0.2,0.1c0.1,0.1-0.1,0.1-0.1,0.1L21.8,17.1L21.8,17.1z"/>
				<path id="XMLID_354_" class="st9" d="M21.5,17.3c0.1,0,0.2-0.1,0.2-0.1c0.1,0.1,0,0.2-0.1,0.1L21.5,17.3L21.5,17.3z"/>
				<path id="XMLID_353_" class="st9" d="M21.7,17.7c0.1,0,0.2-0.1,0.2-0.1c0.1,0.1,0,0.1-0.1,0.1L21.7,17.7L21.7,17.7z"/>
				<path id="XMLID_352_" class="st9" d="M19.6,17.5c0,0.1-0.1,0.2-0.2,0.1c0.1,0.1,0.2,0,0.3-0.1c0.1,0,0.2,0.1,0.4,0.1
					c0,0-0.1,0.1-0.1,0.2c0.1,0,0.2-0.1,0.2-0.1c0.1,0.1,0.6-0.1,0.6-0.1c0,0,0,0,0-0.1c-0.4,0.1-0.3,0.1-0.8,0.1
					c-0.2,0-0.4-0.2-0.4-0.2c0-0.1,0.1-0.4,0.1-0.5c0.1-0.1,0.3,0,0.3-0.1c0,0,0-0.1,0-0.1c-0.1,0-0.1,0-0.2,0c0-0.1,0-0.1-0.2-0.1
					c0,0,0.1,0.1,0.1,0.1C19.6,16.9,19.6,17.5,19.6,17.5L19.6,17.5z"/>
				<path id="XMLID_351_" class="st9" d="M20.7,17.3c0.1,0,0.2,0,0.2,0c0.1,0.1,0,0.1-0.1,0.1L20.7,17.3L20.7,17.3z"/>
				<path id="XMLID_350_" class="st9" d="M20.7,17c0.1,0,0.3,0.2,0.3,0.2c0,0,0,0.1-0.1,0.1c-0.1-0.1-0.2-0.2-0.3-0.2L20.7,17
					L20.7,17z"/>
				<path id="XMLID_349_" class="st9" d="M19.9,17.2c0.1,0,0.2,0,0.2,0c0.1,0.1,0,0.1-0.1,0.1L19.9,17.2L19.9,17.2z"/>
				<path id="XMLID_348_" class="st9" d="M20.2,17.4c0.1,0,0.1,0,0.2,0c0.1,0.1,0,0.1-0.1,0.1L20.2,17.4L20.2,17.4z"/>
				<path id="XMLID_347_" class="st9" d="M23.1,18c0,0.1-0.1,0.1-0.1,0.2c0,0.1,0.1,0,0.1,0L23.1,18L23.1,18z"/>
				<path id="XMLID_346_" class="st9" d="M23.6,17.6c-0.1,0-0.2,0.1-0.2,0.1c0,0.2,0.1,0.1,0.1,0.1L23.6,17.6L23.6,17.6z"/>
				<path id="XMLID_345_" class="st9" d="M24.1,17.3c-0.1,0-0.2,0-0.3,0c-0.1,0.1,0.1,0.2,0.1,0.1L24.1,17.3L24.1,17.3z"/>
				<path id="XMLID_344_" class="st9" d="M24,17.6c-0.1,0-0.2,0-0.3,0c-0.1,0.1,0,0.2,0.1,0.1L24,17.6L24,17.6z"/>
				<path id="XMLID_343_" class="st9" d="M23.7,17.2c-0.1,0-0.2,0.1-0.2,0.1c0,0.1,0.1,0.1,0.1,0.1L23.7,17.2L23.7,17.2z"/>
				<path id="XMLID_342_" class="st9" d="M23.9,17.1c-0.1,0-0.1,0-0.1,0C23.7,17.1,23.8,17.1,23.9,17.1L23.9,17.1L23.9,17.1z"/>
				<path id="XMLID_341_" class="st9" d="M22.9,17.8l-0.1-0.1c-0.1,0.3-0.1,0.6,0,1c0.1,0,0.4,0,0.6,0c0-0.5,0.2-0.5,0.5-0.6
					c0.1,0,0.4,0,0.4,0c0,0-0.1-0.1-0.1-0.1c0-0.1,0.1-0.1,0.2-0.2c0.2-0.1,0.2-0.3,0.2-0.5c0,0,0,0,0,0c0,0-0.1,0-0.2,0.1
					c0,0.2,0,0.3-0.3,0.5c-0.1,0.1-0.5,0.2-0.6,0.2c-0.2,0.1-0.2,0.2-0.2,0.5c0,0-0.4,0-0.4,0C22.8,18.2,22.7,18.1,22.9,17.8
					L22.9,17.8z"/>
			</g>
		</g>
		<path class="st10" d="M21.7,18.6c-0.1,0-0.1-0.1-0.1-0.2c0-0.1,0.1-0.1,0.1-0.1c0,0,0.1,0,0.1,0.1c0,0,0.1,0,0.1,0
			c0-0.1-0.1-0.2-0.1-0.2c-0.1,0-0.2,0-0.2,0.1c0,0.1,0,0.2,0.1,0.2c0,0.3,0,0.4,0.1,0.6c0,0,0,0,0,0c0,0,0,0.1,0,0.2
			c0.1,0.1,0.2,0.1,0.3,0.1c0.1,0,0.1-0.1,0.1-0.2c0-0.1-0.1,0-0.1,0c0,0.1,0,0.1-0.1,0.1c0,0-0.1,0-0.1-0.1c0-0.1,0-0.1,0.1-0.2
			C21.7,19.1,21.6,18.8,21.7,18.6L21.7,18.6z"/>
		<path class="st10" d="M23.8,18.6c0,0,0.1-0.1,0.1-0.2c0-0.1-0.1-0.1-0.1-0.1c0,0-0.1,0.1-0.1,0.1c0,0.1-0.1,0.1-0.1,0
			c0-0.1,0.1-0.2,0.1-0.2c0.1,0,0.2,0,0.3,0.1c0,0.1,0,0.2-0.1,0.2c0.1,0.3,0.1,0.3,0,0.5c0,0,0,0,0,0c0,0,0.1,0.1,0,0.2
			c0,0.1-0.1,0.1-0.2,0.1c-0.1,0-0.2-0.1-0.1-0.2c0-0.1,0.1,0,0.1,0c0,0.1,0,0.1,0.1,0.1c0,0,0.1,0,0.1-0.1c0-0.1,0-0.1-0.1-0.2
			C23.8,19,23.9,18.7,23.8,18.6L23.8,18.6z"/>
		<path class="st10" d="M22.6,18.4c-0.2,0-0.4,0-0.6,0c0,0,0-0.1,0-0.1c0.2,0,0.4,0,0.6,0C22.6,18.3,22.6,18.4,22.6,18.4L22.6,18.4z
			"/>
		<path class="st10" d="M22.1,19.5c0.4,0.2,1.4,0.1,1.5,0c0,0,0.1,0,0.1,0.1c-0.2,0.2-1.6,0.2-1.7,0.1C22,19.6,22,19.5,22.1,19.5
			L22.1,19.5z"/>
		<path class="st10" d="M22.3,18.6c0.4,0.4,0.2,0.6,0.6,0.9c0,0-0.1,0-0.1,0c-0.4-0.4-0.3-0.6-0.6-1C22.1,18.5,22.2,18.5,22.3,18.6
			L22.3,18.6z"/>
		<path class="st10" d="M22.6,18.5c0.3,0.4,0.2,0.6,0.6,1c0,0-0.1,0-0.1,0c-0.4-0.4-0.3-0.6-0.6-0.9C22.4,18.5,22.5,18.5,22.6,18.5
			L22.6,18.5z"/>
		<path class="st10" d="M23,18.8c0.1,0.1,0.1,0.4,0.4,0.7c0,0-0.1,0-0.1,0c-0.3-0.2-0.2-0.4-0.4-0.7C22.9,18.8,23,18.8,23,18.8
			L23,18.8z"/>
		<path class="st11" d="M24.8,19.1l0,0.1c0.1,0,0.2,0,0.2-0.2c0-0.1,0-0.2-0.2-0.2c-0.1,0-0.2,0-0.2,0.1c0,0.1,0.1,0.3,0.2,0.3
			L24.8,19.1c0,0-0.1-0.1-0.1-0.1c0-0.1,0.1-0.1,0.1-0.1c0.1,0,0.1,0.1,0.1,0.1C24.9,19.1,24.9,19.1,24.8,19.1L24.8,19.1z"/>
		<path class="st8" d="M25.5,18.2c-0.2,0-0.3-0.1-0.5,0c-0.1,0.1-0.1,0.2,0,0.3c0.2,0.1,0.3,0,0.5-0.1c-0.1,0-0.3,0-0.4,0
			c0,0,0,0.1,0,0.1c0,0-0.1,0-0.1,0C25,18.2,25.3,18.3,25.5,18.2C25.5,18.3,25.5,18.2,25.5,18.2L25.5,18.2z"/>
		<path class="st11" d="M24.1,18.5c0.3,0,0.5-0.1,0.8-0.1c0,0,0,0,0,0.1C24.6,18.5,24.3,18.6,24.1,18.5
			C24.1,18.6,24.1,18.5,24.1,18.5L24.1,18.5z"/>
		<path class="st11" d="M24.1,19.3c0.1-0.1,0.3-0.1,0.4-0.2c0,0,0,0,0-0.1c-0.1,0-0.3,0-0.5,0.1C24.1,19.1,24.1,19.2,24.1,19.3
			L24.1,19.3z"/>
		<path class="st11" d="M24.6,18.8c-0.3,0,0.1-0.2,0.3-0.3c0,0,0,0,0-0.1C24.6,18.6,24,18.8,24.6,18.8
			C24.6,18.9,24.6,18.8,24.6,18.8L24.6,18.8z"/>
		<path class="st8" d="M20.4,19.4c0.1-0.1,0.3-0.2,0.5-0.1c0.1,0,0.1,0.2,0,0.3c-0.2,0.1-0.3,0.1-0.5,0c0.1,0,0.3-0.1,0.4-0.2
			c0,0,0.1,0.1,0,0.1c0,0,0.1,0,0.1-0.1C20.9,19.2,20.6,19.4,20.4,19.4C20.4,19.5,20.4,19.4,20.4,19.4L20.4,19.4z"/>
		<path class="st11" d="M20.8,18.1l0,0.1c0.1,0,0.2,0,0.2-0.2c0-0.1,0-0.2-0.1-0.2c-0.1,0-0.2,0-0.2,0.1c0,0.1,0.1,0.3,0.2,0.3
			L20.8,18.1c0,0-0.1-0.1-0.1-0.1c0-0.1,0.1-0.1,0.1-0.1c0,0,0.1,0.1,0.1,0.1C20.9,18.1,20.8,18.1,20.8,18.1L20.8,18.1z"/>
		<path class="st11" d="M19.9,19l0,0.1c0.1,0,0.2,0,0.2-0.2c0-0.1,0-0.2-0.2-0.2c-0.1,0-0.2,0-0.2,0.1c0,0.1,0.1,0.3,0.2,0.3
			L19.9,19c0,0-0.1-0.1-0.1-0.1c0-0.1,0.1-0.1,0.1-0.1c0.1,0,0.1,0.1,0.1,0.1C20,18.9,20,19,19.9,19L19.9,19z"/>
		<path class="st8" d="M19.1,17.9c0.2,0,0.3,0,0.5,0.1c0.1,0.1,0,0.2-0.1,0.3c-0.2,0-0.3,0-0.4-0.2c0.1,0,0.3,0.1,0.4,0.1
			c0,0,0,0.1,0,0.1c0,0,0.1,0,0.1,0C19.6,18,19.3,18,19.1,17.9C19.1,18,19.1,17.9,19.1,17.9L19.1,17.9z"/>
		<path class="st11" d="M20.8,18.3c0,0.2-0.9-0.3-1-0.2c0,0,0,0.1,0,0.1C20.1,18.2,20.9,18.7,20.8,18.3
			C20.9,18.3,20.8,18.4,20.8,18.3L20.8,18.3z"/>
		<path class="st11" d="M21.4,18.5c-0.1-0.1-0.3-0.2-0.4-0.3c0,0,0,0,0,0C21,18.4,21.2,18.6,21.4,18.5
			C21.4,18.6,21.4,18.6,21.4,18.5L21.4,18.5z"/>
		<path class="st11" d="M21.5,19.5c-0.1-0.1-0.2-0.1-0.4-0.1c0,0,0-0.1,0-0.1c0.1-0.1,0.3-0.1,0.4,0C21.5,19.4,21.5,19.5,21.5,19.5
			L21.5,19.5z"/>
		<path class="st11" d="M20.1,18.6c0.1-0.1-0.2-0.2-0.4-0.3c0,0,0,0,0-0.1C20,18.3,20.5,18.6,20.1,18.6
			C20.2,18.7,20.1,18.6,20.1,18.6L20.1,18.6z"/>
		<path class="st11" d="M21,19.2c0.3-0.2-0.5-0.3-0.8-0.3c0,0,0-0.1,0-0.1C20.6,18.7,21.5,18.9,21,19.2C21,19.3,21,19.2,21,19.2
			L21,19.2z"/>
		<path class="st9" d="M22.5,19.8c0.1,0,0.1,0,0.1,0c0,0.2,0,0.3,0.1,0.5c0,0-0.1,0-0.1,0C22.6,20.2,22.5,20,22.5,19.8L22.5,19.8z"
			/>
		<path class="st9" d="M22.5,20.4c0,0.1,0.1,0.1,0.1,0.1c-0.2,0.1-0.5,0.3-0.6,0.6c0,0,0-0.1-0.1-0.2C22.1,20.7,22.4,20.5,22.5,20.4
			L22.5,20.4z"/>
		<path class="st10" d="M22.9,20.4c0,0,0,0,0.1,0c-0.1,0.2-0.4,0.4-0.5,0.6c0,0,0-0.1-0.1-0.2C22.5,20.7,22.8,20.6,22.9,20.4
			L22.9,20.4z"/>
		<path class="st10" d="M23.8,20.7c0,0-0.1,0-0.1,0.1c-0.2,0-0.4-0.2-0.6-0.2c0-0.1,0-0.1,0.1-0.1C23.4,20.4,23.6,20.6,23.8,20.7
			L23.8,20.7z"/>
		<path class="st9" d="M23.7,20.3C23.7,20.4,23.6,20.3,23.7,20.3c-0.3,0-0.3-0.1-0.5-0.1c0-0.1,0-0.1,0.1-0.1
			C23.4,20.1,23.5,20.2,23.7,20.3L23.7,20.3z"/>
		<path class="st9" d="M22,20.4C22,20.4,22.1,20.4,22,20.4c0.3,0,0.3-0.1,0.5-0.1c0-0.1,0-0.1,0-0.1C22.3,20.1,22.2,20.3,22,20.4
			L22,20.4z"/>
		<path class="st9" d="M23.8,20.4C23.8,20.5,23.8,20.4,23.8,20.4c-0.1,0.1-0.1,0-0.2,0.1c0,0,0-0.1,0-0.1
			C23.7,20.4,23.7,20.3,23.8,20.4L23.8,20.4z"/>
		<path class="st9" d="M21.9,20.5C21.9,20.6,21.9,20.5,21.9,20.5c0.1,0.1,0.1,0,0.2,0c0-0.1,0-0.1,0-0.1
			C22,20.4,21.9,20.4,21.9,20.5L21.9,20.5z"/>
		<path class="st9" d="M23.4,20.9c0,0-0.1,0-0.1,0.1c-0.2,0-0.2-0.2-0.4-0.2c0-0.1,0.1-0.1,0.1-0.1C23.2,20.7,23.2,20.8,23.4,20.9
			L23.4,20.9z"/>
		<path class="st10" d="M23.1,19.8c-0.1,0-0.1,0-0.2,0c0,0.2,0,0.3-0.1,0.5c0,0,0.1,0,0.1,0C23.1,20.2,23.1,20,23.1,19.8L23.1,19.8z
			"/>
		<path class="st9" d="M22.5,19.9C22.5,19.9,22.5,19.9,22.5,19.9c-0.2,0.1-0.5,0.3-0.6,0.4c0,0-0.1-0.2-0.2-0.3l0,0.1l-0.2,0
			l-0.3-0.3l0.1,0.3l-0.1,0l-0.4-0.3l0.1,0.2l-0.2,0L20.2,20l0.1,0.2L20,20.2l0.7,0l-0.2,0.3l0.3-0.2l0.3,0l-0.2,0.3l0.3-0.3l0.3,0
			l-0.1,0.3l0.3-0.3l0.1,0l0.1,0.1l-0.4,0.4l-0.1,0l0.1-0.3l-0.1,0L21,20.7l-0.2,0l0-0.1l0.2-0.2l-0.2,0l-0.3,0.2l-0.2,0l0.2-0.3
			l-0.3,0l0,0.1l-0.4,0l0-0.1l0.3-0.2l-0.1-0.1l0.2-0.1l0.4,0.1l-0.2-0.3l0.2,0l0.3,0.2L21,19.7l0.2,0l0.3,0.3l0.1-0.1l0.1,0
			l0.2,0.1C22,19.9,22.3,19.9,22.5,19.9L22.5,19.9z"/>
		<polygon class="st9" points="20,19.8 19.6,19.5 19.6,19.2 19.5,19.2 19.4,19.3 19.4,19.2 19.3,18.9 19.1,18.7 19.1,19.1 19,18.9 
			18.9,18.5 18.8,18.4 18.7,18.7 18.5,18.4 18.4,18.5 18.5,18.7 18.5,18.7 18.3,18.8 18.2,18.9 18.4,18.9 18.6,19.1 18.2,19.1 
			18.4,19.2 18.8,19.3 18.9,19.4 18.5,19.5 18.7,19.7 19.2,19.7 19.2,19.8 19.7,19.7 19.6,19.7 19.3,19.7 19.3,19.6 18.8,19.6 
			18.7,19.6 19,19.5 19.1,19.4 18.9,19.2 18.5,19.2 18.8,19.2 18.8,19 18.5,18.9 18.6,18.8 18.6,18.7 18.8,18.9 18.8,18.6 18.9,19 
			19.1,19.3 19.2,18.9 19.3,19 19.3,19.4 19.4,19.5 19.5,19.4 19.5,19.6 20,19.9 20,19.8 		"/>
		<path class="st10" d="M20.1,19.8c-0.1-0.1-0.1-0.2,0-0.3c0,0,0,0,0-0.1c-0.1,0-0.1,0-0.2,0.1c0,0-0.1,0.1,0,0.1
			C20,19.6,20,19.8,20.1,19.8L20.1,19.8z"/>
		<path class="st10" d="M19.9,20c-0.1,0-0.2,0-0.3,0.1c0,0,0,0-0.1,0c0-0.1-0.1-0.1-0.1-0.2c0-0.1,0-0.1,0.1-0.1
			C19.7,19.9,19.8,19.9,19.9,20L19.9,20z"/>
		<path class="st10" d="M19.9,19.4C19.9,19.4,20,19.4,19.9,19.4c0.1-0.1,0-0.2,0-0.2C19.8,19.2,19.8,19.3,19.9,19.4
			C19.8,19.4,19.8,19.4,19.9,19.4L19.9,19.4z"/>
		<path class="st10" d="M19.3,20.1c0,0,0-0.1,0-0.1c0,0,0.1,0,0.1,0c0,0,0,0.1,0,0.1C19.4,20.1,19.3,20.1,19.3,20.1L19.3,20.1z"/>
		<path class="st10" d="M18.3,18.5c0-0.1,0-0.2,0.1-0.3c0,0,0,0,0-0.1c-0.1,0-0.1,0-0.3,0c0,0-0.1,0.1,0,0.1
			C18.2,18.3,18.2,18.5,18.3,18.5L18.3,18.5z"/>
		<path class="st10" d="M18.2,18.7c-0.1,0-0.2-0.1-0.3,0c0,0,0,0-0.1,0c0-0.1,0-0.1,0-0.3c0,0,0.1-0.1,0.1,0
			C18,18.6,18.1,18.6,18.2,18.7L18.2,18.7z"/>
		<path class="st10" d="M18.3,17.9c0,0-0.1,0-0.1,0.1c0,0,0,0.1,0.1,0.1c0,0,0.1,0,0.1-0.1C18.4,18,18.4,17.9,18.3,17.9L18.3,17.9z"
			/>
		<path class="st10" d="M17.6,18.7c0,0,0-0.1,0.1-0.1c0.1,0,0.1,0,0.1,0.1c0,0,0,0.1-0.1,0.1C17.6,18.7,17.6,18.7,17.6,18.7
			L17.6,18.7z"/>
		<polygon class="st9" points="18.4,18.7 18.4,18.6 18.3,18.6 18,18.3 18.1,17.8 18,17.7 17.8,17.9 17.8,17.3 17.7,17.2 17.5,17.6 
			17.5,17.5 17.5,17.1 17.4,17.1 17.3,17.3 17.1,17.1 17,17.2 17.1,17.2 16.9,17.2 17,17.4 16.7,17.4 16.8,17.6 17.2,17.7 
			17.3,17.8 16.9,17.8 17,17.9 17.2,18 17.5,18 17.6,18.1 17.3,18.1 17.3,18.2 17.5,18.3 18,18.5 17.9,18.3 17.5,18.2 17.7,18.2 
			17.6,18 17.1,17.9 17.5,17.8 17.3,17.6 16.9,17.5 17.2,17.5 17,17.3 17.2,17.4 17.1,17.3 17.3,17.5 17.4,17.3 17.4,17.6 
			17.6,17.8 17.7,17.3 17.7,17.9 17.8,18 17.9,17.9 17.9,18.3 18,18.5 18.2,18.7 18.4,18.7 		"/>
		<path class="st10" d="M17.2,17c0-0.1,0.1-0.2,0.2-0.2c0,0,0,0,0-0.1c-0.1,0-0.1-0.1-0.2-0.1c-0.1,0-0.1,0-0.1,0.1
			C17.2,16.8,17.2,16.9,17.2,17L17.2,17z"/>
		<path class="st10" d="M16.9,17.1c-0.1-0.1-0.2-0.1-0.3-0.1c0,0-0.1,0-0.1,0c0-0.1,0-0.1,0.1-0.2c0,0,0.1,0,0.1,0
			C16.8,16.9,16.9,17,16.9,17.1L16.9,17.1z"/>
		<path class="st10" d="M17.4,16.4c0,0-0.1,0-0.1,0c0,0,0,0.1,0,0.1c0,0,0.1,0,0.1,0C17.5,16.5,17.5,16.4,17.4,16.4L17.4,16.4z"/>
		<path class="st10" d="M16.4,16.7c0,0,0.1-0.1,0.1-0.1c0,0,0.1,0.1,0.1,0.1c0,0-0.1,0.1-0.1,0.1C16.4,16.8,16.4,16.8,16.4,16.7
			L16.4,16.7z"/>
		<polygon class="st9" points="17.1,17.1 17,16.6 17,16.5 17,16.4 16.9,16.4 17.2,16.2 17.2,16 16.9,16.1 16.9,16 17.2,15.7 
			17.2,15.5 16.9,15.7 17,15.6 17.1,15.4 17.1,15.2 17,15.3 16.8,15.4 16.8,15.3 16.6,15.4 16.6,15.7 16.4,15.5 16.4,15.8 
			16.6,16.1 16.3,16.1 16.3,16.3 16.5,16.3 16.6,16.4 16.6,16.5 16.9,16.7 16.9,16.6 16.7,16.5 16.8,16.4 16.5,16.2 16.7,16.3 
			16.7,16.1 16.5,15.7 16.7,15.9 16.7,15.4 16.8,15.5 17,15.4 16.8,15.7 16.8,15.9 17,15.7 16.8,16 16.8,16.2 17.1,16.1 16.8,16.3 
			16.9,16.5 17,16.5 16.9,16.6 16.9,16.7 17,17.1 17.1,17.1 		"/>
		<path class="st9" d="M23.2,19.9c0.2,0,0.6,0.1,0.7,0.2c0.2,0.1,0.7-0.4,1.5-0.5l0,0c0,0,0,0,0.1,0c-0.4,0-0.7,0.3-1.3,0.5
			c0,0,0,0,0,0c0.5,0.1,0.7-0.2,1.2-0.4c0,0,0.1,0,0.2,0c-0.2,0.2-0.8,0.6-1.4,0.6c-0.2,0-0.8-0.3-1.1-0.3
			C23.2,20,23.2,19.9,23.2,19.9L23.2,19.9z"/>
		<path class="st9" d="M25.1,19.4c0,0-0.1,0-0.1,0c-0.2,0-0.3,0.1-0.5,0.2c-0.2,0.1-0.4,0.2-0.6,0.4c-0.1,0-0.1,0-0.2,0
			c0,0,0.1,0.1,0.1,0.1c0.1,0,0.2,0.1,0.2,0c0.4-0.2,0.8-0.4,1.2-0.5C25.2,19.5,25.2,19.5,25.1,19.4c-0.1,0.1-0.3,0.1-0.9,0.4
			c0,0,0,0,0,0c0.2-0.1,0.2-0.2,0.3-0.2C24.7,19.5,25,19.4,25.1,19.4L25.1,19.4z"/>
		<path class="st9" d="M25.5,20.1c0,0-0.1-0.1-0.1-0.1c-0.2,0-0.3,0.2-0.8,0.3c0,0-0.1,0-0.2,0.1c-0.1,0-0.2,0-0.2,0
			c0,0,0,0,0.1,0.1c0.1,0,0.1,0,0.1,0c0.4,0.1,0.9-0.3,1.3-0.4c0,0-0.1,0-0.1,0c-0.3,0-0.8,0.4-1,0.3c0,0-0.1,0,0,0
			C24.8,20.4,25.1,20.1,25.5,20.1L25.5,20.1z"/>
		<path class="st10" d="M25.9,19.6c0,0-0.1,0-0.1-0.1c0,0,0,0.1,0,0.1c0,0,0.1,0,0.1,0.1c0,0.1,0.1,0.1,0.1,0.1c0.1,0,0.1,0,0.1-0.1
			C26.1,19.7,26.1,19.6,25.9,19.6C26,19.6,25.9,19.6,25.9,19.6L25.9,19.6z"/>
		<path class="st10" d="M25.5,19.2c0,0.1,0,0.1,0,0.2c0,0,0,0.1,0,0.1c0,0,0.1-0.1,0.1-0.1c0,0,0-0.1,0-0.1c0.1,0,0.1-0.1,0-0.2
			c0,0-0.1-0.1-0.1-0.1C25.4,19,25.4,19.1,25.5,19.2C25.5,19.1,25.5,19.2,25.5,19.2L25.5,19.2z"/>
		<path class="st9" d="M25.6,19.5c0.1-0.2,0.1-0.2,0.3-0.3c0.5-0.7,0.7-0.7,1.1-1.1c0,0.1,0,0.2-0.1,0.2c-0.2,0.3-0.3,0.2-0.8,0.8
			c0,0.1,0,0,0.1,0c0.4-0.4,0.8-0.6,0.9-0.9c0,0.1,0,0.2-0.1,0.4c-0.2,0.3-0.4,0.4-0.7,0.6c-0.1,0.1-0.6,0.2-0.6,0.4
			C25.6,19.6,25.6,19.5,25.6,19.5L25.6,19.5z"/>
		<path class="st9" d="M26.5,18c-0.2,0.3-0.3,0.4-0.4,0.4c-0.3,0.2-0.2,0.5-0.2,0.7c0.1,0,0-0.1,0.1-0.1c0.3-0.4,0.2-0.3,0.5-0.5
			c0,0,0.1-0.2,0-0.2c-0.4,0.5-0.5,0.5-0.5,0.6c0,0-0.1,0.1,0,0c0-0.3,0.2-0.3,0.2-0.3c0.2-0.1,0.2-0.2,0.3-0.3
			C26.5,18.1,26.5,18,26.5,18L26.5,18z"/>
		<path class="st9" d="M27.2,18.5c-0.2,0.3-0.7,0.7-0.8,0.7c0,0,0,0-0.1,0.1c-0.1,0-0.2,0.1-0.3,0.1c0,0,0.1,0,0.2,0
			c0.1,0,0.1,0,0.1,0c0.2,0,0.3-0.1,0.5-0.2c0.1-0.1,0.3-0.3,0.4-0.4c0,0,0-0.1,0-0.2c-0.2,0.4-0.5,0.5-0.7,0.7c0,0-0.1,0,0-0.1
			c0.4-0.2,0.4-0.3,0.6-0.6C27.1,18.6,27.1,18.5,27.2,18.5L27.2,18.5z"/>
		<path class="st10" d="M27.5,18.1c0,0-0.1,0-0.2,0c0,0,0,0.1,0,0.1c0.1,0,0.1,0,0.1,0c0,0.1,0.1,0.1,0.2,0c0.1,0,0.1-0.1,0.1-0.1
			C27.7,18,27.7,18,27.5,18.1C27.6,18,27.6,18,27.5,18.1L27.5,18.1z"/>
		<path class="st10" d="M26.9,17.8c0,0.1,0,0.1,0.1,0.1c0,0,0,0,0,0c0,0,0-0.1,0.1-0.1c0,0,0-0.1-0.1-0.1c0,0,0-0.1,0-0.2
			c0,0-0.1,0-0.2,0C26.7,17.6,26.8,17.7,26.9,17.8C26.8,17.8,26.9,17.8,26.9,17.8L26.9,17.8z"/>
		<path class="st9" d="M27.1,18.1c0-0.2,0.1-0.3,0.2-0.4c0.1-0.8,0.5-1.3,0.5-1.3c-0.2,0.4,0,0.2-0.4,1c-0.1,0.2,0.1,0.1,0.1,0.1
			c0.2-0.2,0.3-0.8,0.4-1.2c0.1,0.1,0.1,0.2,0,0.4c-0.1,0.3-0.1,0.7-0.4,0.9c-0.1,0.2-0.5,0.4-0.4,0.6
			C27.2,18.2,27.2,18.2,27.1,18.1L27.1,18.1z"/>
		<path class="st9" d="M27.4,16.4c-0.2,0.4-0.5,0.8-0.2,1.2c0.1-0.1,0-0.1,0-0.2c0.2-0.4,0.3-1,0.3-0.9c-0.1,0.2-0.2,0.5-0.4,0.8
			c0,0-0.1,0.1-0.1,0C27.2,16.9,27.4,16.7,27.4,16.4L27.4,16.4z"/>
		<path class="st9" d="M28.3,16.6c-0.3,0.1-0.2,0.4-0.5,0.9c-0.1,0.1-0.2,0.2-0.2,0.3c0,0,0.1,0,0.2,0c0.1,0,0.2-0.1,0.2-0.1
			C28.1,17.4,28.4,16.9,28.3,16.6c-0.1,0.5-0.3,0.8-0.3,0.9c-0.2,0.1-0.2,0.2-0.1,0C28.1,17.1,28.1,16.8,28.3,16.6L28.3,16.6z"/>
		<path class="st10" d="M28.3,16.1c-0.1,0-0.1,0-0.1,0.1c0,0,0,0.1,0,0.1c0,0,0.1,0,0.1-0.1c0,0.1,0.1,0,0.2,0c0,0,0-0.1,0-0.2
			C28.4,16,28.3,16,28.3,16.1C28.3,16,28.3,16.1,28.3,16.1L28.3,16.1z"/>
		<path class="st10" d="M27.6,16c0,0,0.1,0.1,0.1,0.1c0,0,0,0,0.1,0c0,0,0-0.1,0-0.1C27.8,16,27.7,16,27.6,16c0.1-0.1,0-0.2,0-0.2
			c-0.1,0-0.1,0-0.1,0.1C27.4,15.9,27.5,16,27.6,16C27.6,16,27.6,16.1,27.6,16L27.6,16z"/>
		<path class="st9" d="M27.9,16.2c0.1-0.2,0-0.3,0.1-0.4c-0.2-0.7,0-1.3,0.1-1.3c0.1,0.4-0.2,0.6-0.1,1c0,0.2,0.1,0.1,0.1,0.1
			c0-1,0.1-0.4,0-1c0.2,0,0.1,1,0,1.1C28.2,15.8,28,15.9,27.9,16.2C27.9,16.2,27.9,16.2,27.9,16.2L27.9,16.2z"/>
		<path class="st9" d="M27.6,14.6c0,0.8-0.1,0.7,0.3,1.2c0-0.1,0-0.1,0-0.2c-0.1-0.3,0-0.6-0.1-0.7c0,0.2,0,0.3,0,0.6
			c0,0-0.1,0.1-0.1,0C27.5,15,27.7,15,27.6,14.6L27.6,14.6z"/>
		<path class="st9" d="M28.4,14.7c-0.1,0.2,0,0.4-0.1,0.9c0,0-0.2,0.3-0.2,0.4c0-0.1,0.1-0.2,0.2-0.2c0.1,0,0.2-0.1,0.2-0.1
			C28.7,15.4,28.6,14.8,28.4,14.7c0.1,0.6,0,0.8,0,0.9c-0.1,0.1-0.1,0.1-0.1,0C28.5,15.2,28.5,14.9,28.4,14.7L28.4,14.7z"/>
	</g>
</g>
</svg>
