<?xml version="1.0" encoding="utf-8"?>
<!-- Generator: Adobe Illustrator 19.0.0, SVG Export Plug-In . SVG Version: 6.00 Build 0)  -->
<svg version="1.1" id="Layer_1" xmlns="http://www.w3.org/2000/svg" xmlns:xlink="http://www.w3.org/1999/xlink" x="0px" y="0px"
	 viewBox="0 0 51.7 31.9" style="enable-background:new 0 0 51.7 31.9;" xml:space="preserve">
<style type="text/css">
	.st0{fill-rule:evenodd;clip-rule:evenodd;fill:#EE2424;}
	.st1{fill-rule:evenodd;clip-rule:evenodd;fill:#FFFFFF;}
	.st2{fill-rule:evenodd;clip-rule:evenodd;fill:#206A37;}
	.st3{opacity:0.3;fill-rule:evenodd;clip-rule:evenodd;fill:url(#XMLID_516_);}
	.st4{fill-rule:evenodd;clip-rule:evenodd;fill:#AC752A;}
	.st5{fill-rule:evenodd;clip-rule:evenodd;fill:#FFD667;}
	.st6{fill-rule:evenodd;clip-rule:evenodd;fill:#7D7F81;}
	.st7{fill-rule:evenodd;clip-rule:evenodd;fill:#10110F;}
	.st8{fill-rule:evenodd;clip-rule:evenodd;fill:#AF2E36;}
	.st9{fill-rule:evenodd;clip-rule:evenodd;fill:#09713A;}
	.st10{fill-rule:evenodd;clip-rule:evenodd;fill:#A47B2C;}
	.st11{fill-rule:evenodd;clip-rule:evenodd;fill:#26A9E1;}
	.st12{fill:#FFFFFF;}
	.st13{fill:#E33526;}
	.st14{fill:#E01E26;}
	.st15{fill:#069547;stroke:#000000;stroke-width:0.1095;}
	.st16{fill:none;stroke:#000000;stroke-width:0.1095;}
	.st17{fill:#E01E26;stroke:#000000;stroke-width:0.1095;}
	.st18{fill:#FFCB06;stroke:#E01E26;stroke-width:0.1095;}
	.st19{fill:#E01E26;stroke:#E01E26;stroke-width:0.1095;}
	.st20{fill:#1385C8;stroke:#E01E26;stroke-width:0.1095;}
	.st21{fill:#FFFFFF;stroke:#E01E26;stroke-width:0.1095;}
	.st22{fill:#FFCB06;stroke:#000000;stroke-width:0.1095;}
	.st23{fill:#4F4132;}
	.st24{fill:#069547;}
	.st25{fill:#FFFFFF;stroke:#000000;stroke-width:0.1095;}
</style>
<g>
	<g>
		<rect id="XMLID_4_" x="34.1" y="0.4" class="st0" width="15" height="31"/>
		<rect id="XMLID_3_" x="19.1" y="0.4" class="st1" width="15" height="31"/>
		<rect id="XMLID_2_" x="4.1" y="0.4" class="st2" width="15" height="31"/>
	</g>
	<radialGradient id="XMLID_516_" cx="26.6447" cy="15.884" r="19.3197" gradientUnits="userSpaceOnUse">
		<stop  offset="0" style="stop-color:#FFFFFF"/>
		<stop  offset="0.1236" style="stop-color:#DDDDDD"/>
		<stop  offset="0.561" style="stop-color:#676767"/>
		<stop  offset="0.8617" style="stop-color:#1D1D1D"/>
		<stop  offset="1" style="stop-color:#000000"/>
	</radialGradient>
	<polygon id="XMLID_1_" class="st3" points="34.2,0.4 34.2,0.4 19.3,0.4 19.2,0.4 4.1,0.4 4.1,31.4 19.2,31.4 19.3,31.4 34.2,31.4 
		34.2,31.4 49.1,31.4 49.1,0.4 	"/>
	<g>
		<path class="st4" d="M25.6,12.2c-0.1-0.1-0.3-0.2-0.5-0.2c0,0,0,0,0,0C25.2,12.1,25.5,12.1,25.6,12.2
			C25.6,12.2,25.6,12.2,25.6,12.2L25.6,12.2z"/>
		<path class="st4" d="M25.7,12.9c0-0.2,0-0.3,0-0.4c0,0,0,0-0.1,0C25.7,12.7,25.7,12.8,25.7,12.9C25.6,12.9,25.7,12.9,25.7,12.9
			L25.7,12.9z"/>
		<path class="st4" d="M25.5,14.7c-0.1-0.5,0-0.5,0-0.7c0,0,0,0,0.1,0c-0.1,0.1,0,0.7,0.1,0.8C25.7,14.7,25.6,14.7,25.5,14.7
			L25.5,14.7z"/>
		<path class="st4" d="M26.1,14.6c-0.1-0.5-0.1-0.5,0-0.7c0,0,0,0,0.1,0C26.1,14,26.1,14.3,26.1,14.6C26.2,14.5,26.2,14.6,26.1,14.6
			L26.1,14.6z"/>
		<path class="st4" d="M26.6,14.2c-0.1-0.3-0.1-0.3-0.1-0.5c0,0,0,0,0.1,0C26.5,13.8,26.6,14,26.6,14.2
			C26.7,14.3,26.7,14.3,26.6,14.2L26.6,14.2z"/>
		<path class="st4" d="M26.9,13.7c-0.1-0.1-0.1-0.1-0.1-0.2c0,0,0,0,0,0C26.8,13.5,26.8,13.6,26.9,13.7
			C26.9,13.7,26.9,13.7,26.9,13.7L26.9,13.7z"/>
		<path class="st4" d="M25.4,13.6c0-0.2,0.1-0.3,0.1-0.4c0,0,0,0-0.1,0C25.5,13.3,25.4,13.6,25.4,13.6L25.4,13.6L25.4,13.6z"/>
		<path class="st4" d="M25.1,13.6c0.1-0.1,0.1-0.3,0.2-0.4c0,0,0,0-0.1,0C25.2,13.3,25.1,13.5,25.1,13.6L25.1,13.6L25.1,13.6z"/>
		<path class="st4" d="M25.9,13.6c0-0.2,0-0.4,0-0.5c0,0,0,0.1-0.1,0.1C25.9,13.3,25.8,13.5,25.9,13.6
			C25.8,13.6,25.9,13.6,25.9,13.6L25.9,13.6z"/>
		<path class="st4" d="M26.2,12.7c-0.1-0.2-0.1-0.3-0.2-0.5c0,0,0,0.1,0,0.1C26,12.4,26.1,12.6,26.2,12.7
			C26.1,12.7,26.2,12.7,26.2,12.7L26.2,12.7z"/>
		<path class="st4" d="M26.4,13.5c0-0.3,0-0.4,0-0.6c0,0,0,0.1-0.1,0.1C26.4,13,26.4,13.4,26.4,13.5C26.4,13.5,26.4,13.5,26.4,13.5
			L26.4,13.5z"/>
		<path class="st4" d="M27.7,12.1c0.2,0.1,0.4,0.2,0.5,0.3c0,0,0-0.1,0-0.1C28.1,12.3,27.8,12.1,27.7,12.1
			C27.7,12,27.7,12.1,27.7,12.1L27.7,12.1z"/>
		<path class="st4" d="M28.7,11.7c0.2-0.1,1.5,1.3,1.7,1.7c0,0,0.1,0,0.1,0C30.4,13.1,29.1,11.6,28.7,11.7L28.7,11.7L28.7,11.7z"/>
		<path class="st4" d="M28.4,12.8c0.1,0,0.6,0.4,0.7,0.6c0,0,0.1,0,0.1,0C29.1,13.3,28.5,12.8,28.4,12.8L28.4,12.8L28.4,12.8z"/>
		<path class="st4" d="M28.2,13.4c0.1,0,0.3,0.2,0.4,0.3c0,0,0.1,0,0.1,0c-0.1-0.1-0.4-0.4-0.5-0.4C28.2,13.2,28.2,13.4,28.2,13.4
			L28.2,13.4z"/>
		<path class="st4" d="M27.9,13.8c0.1,0,0.1,0.1,0.2,0.2c0,0,0.1,0,0.1,0C28.1,13.9,28,13.7,27.9,13.8L27.9,13.8L27.9,13.8z"/>
		<path class="st4" d="M27.5,14.2c0.1,0,0.1,0.1,0.2,0.2c0,0,0,0,0-0.1C27.6,14.2,27.6,14.2,27.5,14.2L27.5,14.2L27.5,14.2z"/>
		<path class="st4" d="M26.9,14.4c0.1,0,0.3,0.4,0.3,0.5c0,0,0,0,0-0.1c-0.1-0.1-0.3-0.5-0.4-0.5L26.9,14.4L26.9,14.4z"/>
		<path class="st4" d="M26.5,14.8c0.1,0,0.3,0.4,0.4,0.5c0,0,0,0,0-0.1C26.9,15.1,26.7,14.8,26.5,14.8L26.5,14.8L26.5,14.8z"/>
		<path class="st4" d="M27.4,15.4c0.1,0,0.3,0.4,0.3,0.5c0,0,0,0,0-0.1C27.7,15.8,27.5,15.3,27.4,15.4
			C27.4,15.3,27.3,15.4,27.4,15.4L27.4,15.4z"/>
		<path class="st4" d="M26.8,15.7c0.1,0,0.3,0.3,0.4,0.5c0,0,0,0,0,0C27.2,16,27,15.7,26.8,15.7C26.9,15.6,26.8,15.6,26.8,15.7
			L26.8,15.7z"/>
		<path class="st4" d="M27.5,16.6c0,0,0.2,0.2,0.2,0.3c0,0,0,0,0.1,0C27.7,16.8,27.6,16.6,27.5,16.6C27.5,16.6,27.4,16.6,27.5,16.6
			L27.5,16.6z"/>
		<path class="st4" d="M27.1,16.7c0,0,0.1,0.1,0.2,0.2c0,0,0,0,0.1,0C27.4,16.8,27.2,16.6,27.1,16.7C27.1,16.6,27.1,16.6,27.1,16.7
			L27.1,16.7z"/>
		<path class="st4" d="M26.4,15.9c0.1,0.1,0.3,0.3,0.5,0.5c0,0,0,0,0,0C26.8,16.2,26.5,15.9,26.4,15.9
			C26.3,15.7,26.4,15.7,26.4,15.9L26.4,15.9z"/>
		<path class="st4" d="M27.7,14.8c0.1,0,0.2,0.4,0.3,0.7c0,0,0,0,0-0.1C28,15.3,27.8,14.8,27.7,14.8C27.7,14.7,27.7,14.8,27.7,14.8
			L27.7,14.8z"/>
		<path class="st4" d="M26,15c0.1,0,0.3,0.4,0.4,0.5c0,0,0,0,0.1-0.1C26.4,15.4,26.2,15,26,15L26,15L26,15z"/>
		<path class="st4" d="M27.8,12.7c0.1,0.1,0.2,0.2,0.2,0.2c0,0,0-0.1,0-0.1C28.1,12.8,27.9,12.7,27.8,12.7
			C27.8,12.6,27.8,12.7,27.8,12.7L27.8,12.7z"/>
		<path class="st4" d="M27.6,13.3c0.1,0.1,0.1,0.1,0.1,0.1c0,0,0,0,0-0.1C27.8,13.3,27.8,13.2,27.6,13.3
			C27.7,13.2,27.6,13.2,27.6,13.3L27.6,13.3z"/>
		<path class="st4" d="M27.3,13.7c0.1,0.1,0.1,0.1,0.1,0.1c0,0,0,0,0-0.1C27.5,13.7,27.5,13.6,27.3,13.7L27.3,13.7L27.3,13.7z"/>
		<path class="st4" d="M26.4,12.5c-0.1-0.2-0.3-0.3-0.3-0.5c0,0,0,0,0,0.1C26.2,12.1,26.3,12.4,26.4,12.5
			C26.4,12.5,26.4,12.5,26.4,12.5L26.4,12.5z"/>
		<path class="st4" d="M24.1,12.7c-0.1,0-0.1,0-0.1,0c0,0.1,0,0.1-0.2,0.1c-0.1,0-0.1,0.1-0.1,0.1c-0.1,0.3,0.1,0.6,0.5,0.5
			c-0.4-0.3-0.2-0.6,0.3-0.5c0,0,0.2-0.1,0.2-0.1c0,0-0.2,0-0.3,0c0,0,0.1,0.1,0,0.1c-0.3,0-0.6,0.2-0.4,0.5c0,0-0.3,0-0.2-0.3
			c0-0.1,0.1-0.1,0.1-0.1c0.1,0,0.2,0,0.2,0L24.1,12.7L24.1,12.7z"/>
		<path class="st4" d="M23.9,12.6c0.7,0.1,0.7,0,0.8,0c0.1,0,0.2,0,0.3,0.2c0,0.1-0.3,0.3-0.5,0.3c0.2-0.1,0.3-0.2,0.3-0.3
			c-0.1,0-0.2,0-0.2,0c-0.1,0-0.2,0-0.3,0c-0.1,0-0.1,0-0.2,0C24.1,12.7,24,12.7,23.9,12.6C23.9,12.7,23.9,12.7,23.9,12.6L23.9,12.6
			z"/>
		<path class="st4" d="M24.3,11.7c0,0.1,0,0.3-0.1,0.4c-0.1,0.1-0.2,0.1-0.2,0.3c0.1,0.1,0.2,0.1,0.3,0l0-0.1c-0.2,0-0.2,0-0.2-0.1
			c0,0,0.1-0.1,0.2-0.2c0,0.1-0.1,0.3-0.1,0.3c0,0,0,0,0.1,0c0,0,0.1-0.2,0.1-0.3c0,0,0,0,0,0C24.4,12,24.4,11.9,24.3,11.7
			L24.3,11.7z"/>
		<path class="st4" d="M24.4,12.3C24.4,12.3,24.4,12.1,24.4,12.3c0.2,0,0.2,0.2-0.1,0.3C24.4,12.4,24.4,12.3,24.4,12.3L24.4,12.3z"
			/>
		<path class="st4" d="M24.6,11.9C24.6,11.8,24.7,11.8,24.6,11.9c0-0.2-0.2-0.3-0.1-0.3c0,0.1,0,0.3,0,0.5
			C24.5,12,24.5,12,24.6,11.9c0,0-0.1,0-0.1-0.1C24.6,11.7,24.6,11.8,24.6,11.9L24.6,11.9z"/>
		<path class="st4" d="M25.1,11.8C25.1,11.8,25.1,11.9,25.1,11.8c0.3-0.2,0.1-0.4,0-0.4c-0.1,0,0,0.2-0.2,0.3c0,0,0,0.1,0,0.1
			c0.1-0.1,0.1-0.1,0.1-0.2C25.1,11.5,25.2,11.7,25.1,11.8L25.1,11.8z"/>
		<path class="st4" d="M24.4,12.1C24.4,12.1,24.5,12.2,24.4,12.1c0.4-0.1,0.6-0.4,0.3-0.7C24.8,11.7,24.8,11.9,24.4,12.1L24.4,12.1z
			"/>
		<path class="st4" d="M24.5,12.4C24.5,12.3,24.5,12.5,24.5,12.4c0.2,0.1,0.6-0.4,0.5-0.4c0,0,0,0,0,0c-0.1,0-0.3,0.3-0.5,0.4
			C24.5,12.2,24.5,12.3,24.5,12.4c0.2-0.1,0.4-0.4,0.4-0.4C25,12,24.7,12.3,24.5,12.4L24.5,12.4z"/>
		<path class="st4" d="M25.4,11.7C25.4,11.7,25.3,11.6,25.4,11.7c0.1-0.1,0.4,0.1,0.6,0.1c0,0,0.1,0,0.1,0.1c0,0-0.1,0.2-0.1,0.2
			c-0.1,0-0.5-0.2-0.6-0.2C25.3,11.9,25.3,11.8,25.4,11.7c0.1,0.1,0.5,0.3,0.5,0.2c0,0,0,0,0,0C25.8,11.9,25.5,11.7,25.4,11.7
			L25.4,11.7z"/>
		<path class="st4" d="M26.5,11.7C26.5,11.7,26.4,11.6,26.5,11.7c0-0.1,0.2-0.1,0.2-0.1c0,0,0,0,0,0c0,0,0.1,0.2,0.1,0.3
			c0,0.1-0.1,0-0.2,0c0,0-0.1-0.1,0-0.1c0.1,0,0.2,0,0.2,0c0,0-0.1-0.1-0.1-0.2C26.6,11.6,26.5,11.7,26.5,11.7L26.5,11.7z"/>
		<path class="st4" d="M27.9,11.1C27.9,11.2,27.8,11.1,27.9,11.1c-0.1,0,0,0.2,0,0.2c0,0,0,0,0.1,0c0,0,0.2,0.1,0.2,0.1
			c0.1,0,0-0.1,0-0.2c0,0-0.1,0-0.1,0c0,0.1,0,0.2,0,0.2c0,0-0.1,0-0.1,0C27.9,11.3,27.9,11.2,27.9,11.1L27.9,11.1z"/>
		<path class="st4" d="M27.3,11c0,0-0.1,0-0.1,0c-0.1,0,0.2,0.2,0.2,0.2c0,0,0,0,0,0c0,0,0.3,0.1,0.3,0c0-0.1,0-0.2-0.1-0.2
			c0,0-0.1,0-0.1,0c0,0.1,0.1,0.1,0,0.1c0,0-0.1,0-0.1,0C27.4,11.2,27.3,11.1,27.3,11L27.3,11z"/>
		<path class="st4" d="M26.7,12.1C26.7,12.1,26.7,12,26.7,12.1c0.1-0.1,0.2-0.1,0.2-0.1c0,0,0,0,0,0c0,0.1,0.1,0.3,0.1,0.4
			c-0.1,0.1-0.2,0-0.3,0c0,0,0-0.1,0-0.1c0.1,0,0.2,0,0.2,0c0,0,0-0.2-0.1-0.2C26.8,12.1,26.7,12.1,26.7,12.1L26.7,12.1z"/>
		<path class="st4" d="M26.7,12.6C26.8,12.6,26.7,12.5,26.7,12.6c0.1-0.1,0.2-0.1,0.2-0.1c0.1,0,0.1,0.1,0.1,0.1c0,0.1,0,0.1,0,0.2
			c0,0.1-0.1,0.2-0.2,0.2c0,0,0-0.1,0-0.2c0.1-0.1,0.1-0.1,0.1-0.1c0-0.1,0-0.1-0.1-0.1C26.8,12.6,26.8,12.6,26.7,12.6L26.7,12.6z"
			/>
		<path class="st4" d="M26,11.5c0,0-0.1-0.1-0.1-0.1c0,0,0.3,0,0.3,0c0,0,0.1,0,0.1,0c0,0,0.2,0.1,0.2,0.1c0,0-0.1,0.1-0.2,0.1
			c0,0-0.1,0-0.1,0c0-0.1,0.2,0,0.2,0c0,0-0.1-0.1-0.2-0.1C26.1,11.4,26,11.4,26,11.5L26,11.5z"/>
		<path class="st4" d="M25.2,12C25.2,12,25.2,11.9,25.2,12c0.1-0.1,0.7,0.2,0.6,0.3c0,0-0.1,0.1-0.1,0.2c-0.1,0.1-0.4-0.2-0.6-0.3
			c0,0,0-0.1,0-0.1c0.1,0,0.5,0.2,0.5,0.2c0,0,0.1-0.1,0.1-0.1C25.7,12.1,25.4,12,25.2,12L25.2,12z"/>
		<path class="st4" d="M25.2,12.3C25.2,12.3,25.2,12.2,25.2,12.3c0.1-0.1,0.5,0.1,0.4,0.2c0,0-0.1,0.1-0.1,0.2
			c-0.1,0-0.1-0.2-0.2-0.2C25.2,12.5,25.2,12.3,25.2,12.3c0.1,0.2,0.2,0.3,0.2,0.3c0,0,0.1-0.1,0.1-0.1
			C25.4,12.4,25.3,12.3,25.2,12.3L25.2,12.3z"/>
		<path class="st4" d="M25.2,12.5C25.2,12.6,25.2,12.5,25.2,12.5c0.1,0,0.2,0.2,0.2,0.2c0,0-0.1,0.1-0.2,0.1c0,0-0.1-0.2-0.1-0.2
			C25.1,12.7,25.1,12.5,25.2,12.5c0,0.1,0,0.1,0,0.2c0,0,0,0,0,0C25.2,12.6,25.2,12.6,25.2,12.5L25.2,12.5z"/>
		<path class="st4" d="M25.7,11.2C25.7,11.2,25.7,11.2,25.7,11.2c0-0.1,0.2-0.1,0.2,0c0,0,0,0.1,0,0.2c0,0-0.1,0-0.2,0
			C25.7,11.3,25.7,11.2,25.7,11.2c0.1,0.1,0.1,0,0.2,0.1c0,0,0,0,0,0C25.8,11.2,25.8,11.2,25.7,11.2L25.7,11.2z"/>
		<path class="st4" d="M25.4,12.8C25.3,12.9,25.4,12.7,25.4,12.8c0.1,0,0.1,0.2-0.1,0.4c0,0-0.2,0-0.2,0c0-0.1,0-0.2,0.1-0.3
			C25.2,12.9,25.3,12.8,25.4,12.8c-0.1,0.1-0.1,0.2-0.2,0.3c0,0,0,0.1,0.1,0C25.3,13,25.3,13,25.4,12.8L25.4,12.8z"/>
		<path class="st4" d="M25.8,12.5C25.8,12.5,25.8,12.4,25.8,12.5c0.1,0,0.2,0.4,0,0.6c0,0.1-0.3,0.1-0.3,0c0-0.1,0-0.2,0-0.4
			c0,0,0.1-0.1,0.1,0c0,0.1-0.1,0.2,0,0.3c0,0,0.1,0.1,0.2,0C25.8,12.9,25.8,12.7,25.8,12.5L25.8,12.5z"/>
		<path class="st4" d="M25.4,14C25.4,14,25.3,13.9,25.4,14c-0.2,0.3-0.1,0.7,0.1,0.9c0.1,0.1,0.3,0.2,0.4,0c0.1-0.1,0-0.4-0.1-0.6
			c0,0,0-0.2,0-0.3c0-0.1-0.1,0-0.1,0c0,0,0,0.2,0,0.3c0,0.2,0.1,0.3,0.1,0.6c0,0-0.2,0-0.3-0.1C25.3,14.6,25.3,14.2,25.4,14
			L25.4,14z"/>
		<path class="st4" d="M25,13.9C25,13.8,25,13.7,25,13.9c-0.3,0.4,0,0.6,0.1,0.9c0,0.1,0.2,0.2,0.2,0.1c0.1-0.1-0.1-0.4-0.1-0.6
			c0,0,0.1-0.3,0-0.3c0-0.1-0.1,0-0.1,0c0,0-0.1,0.3-0.1,0.3c0,0.2,0.2,0.3,0.1,0.6c0,0-0.1,0-0.1-0.1C25.1,14.5,24.7,14.3,25,13.9
			L25,13.9z"/>
		<path class="st4" d="M26,13.9C26,13.9,25.9,13.8,26,13.9c-0.2,0.3-0.1,0.7,0.1,0.9c0,0.1,0.3,0.1,0.3-0.1c0.1-0.2,0-0.2,0-0.5
			c0,0,0-0.3,0-0.3c0-0.1-0.1,0-0.1,0c0,0,0,0.2,0,0.3c0,0.2,0,0.4,0.1,0.5c0,0-0.1,0.1-0.2,0C25.9,14.5,26,14.1,26,13.9L26,13.9z"
			/>
		<path class="st4" d="M26.5,13.8C26.5,13.8,26.4,13.8,26.5,13.8c-0.2,0.2-0.1,0.6,0.1,0.8c0,0.1,0.2,0,0.3-0.1
			c0.1-0.1,0.1-0.2,0-0.4c0,0-0.1-0.3-0.1-0.4c0,0-0.1,0-0.1,0c0,0,0.1,0.2,0.1,0.3c0,0.2,0.1,0.2,0,0.3c0,0-0.1,0.1-0.1,0.1
			C26.5,14.2,26.5,14,26.5,13.8L26.5,13.8z"/>
		<path class="st4" d="M27,14.2c0,0,0-0.1,0-0.1c0.2,0.2,0.4,0.5,0.5,0.8c0,0.1,0,0.3-0.1,0.3c-0.2,0-0.5-0.5-0.5-0.6
			c0,0,0.1-0.1,0.1-0.1c0,0,0.4,0.6,0.5,0.6c0,0,0.1-0.1,0.1-0.2C27.4,14.7,27.1,14.4,27,14.2L27,14.2z"/>
		<path class="st4" d="M26.7,14.7C26.7,14.7,26.8,14.6,26.7,14.7c0.3,0.2,0.5,0.4,0.5,0.7c0,0.1-0.1,0.2-0.2,0.2
			c-0.2,0-0.6-0.5-0.7-0.7c0,0,0,0,0.1-0.1c0,0,0.4,0.6,0.5,0.6c0,0,0.2,0,0.1-0.1C27,15.1,26.8,14.8,26.7,14.7L26.7,14.7z"/>
		<path class="st4" d="M26.2,15C26.2,15,26.2,14.9,26.2,15c0.3,0.2,0.5,0.4,0.5,0.6c0,0.1,0,0.2-0.1,0.2c-0.2,0-0.6-0.5-0.7-0.7
			c0,0,0,0,0.1-0.1c0,0,0.5,0.6,0.6,0.6c0,0,0.1,0,0.1-0.1C26.5,15.3,26.3,15.1,26.2,15L26.2,15z"/>
		<path class="st4" d="M25.5,15.4C25.5,15.4,25.5,15.4,25.5,15.4c0.1,0.1,0.1,0,0,0.1c0,0,0,0-0.1,0c-0.1,0-0.2-0.3-0.1-0.4
			c0,0,0.1,0.1,0.1,0.1C25.4,15.3,25.4,15.4,25.5,15.4C25.4,15.4,25.5,15.5,25.5,15.4C25.5,15.4,25.5,15.4,25.5,15.4L25.5,15.4z"/>
		<path class="st4" d="M25.7,15.1C25.7,15.2,25.7,15.1,25.7,15.1c0.3,0.2,0.4,0.3,0.5,0.5c0.2,0.2,0.1,0.2,0,0.2
			c-0.4-0.1-0.8-0.7-0.9-0.8c0,0,0.1,0,0.1,0c0,0,0.6,0.7,0.7,0.7c0,0,0.1,0.1,0,0C26,15.5,25.8,15.3,25.7,15.1L25.7,15.1z"/>
		<path class="st4" d="M27.6,14.9c0,0-0.1,0,0,0.1c0.1,0.2,0.3,0.6,0.3,0.9c0,0.2,0.1,0.2,0.1,0.1c0.2-0.4-0.1-1.2-0.2-1.4
			c0,0,0,0-0.1,0.1c0,0,0.4,0.6,0.3,1.1c0,0,0,0.1-0.1,0C27.9,15.5,27.7,15.1,27.6,14.9L27.6,14.9z"/>
		<path class="st4" d="M27.3,15.5C27.3,15.5,27.2,15.5,27.3,15.5c0.1,0.3,0.2,0.6,0.3,0.7c0.1,0.2,0.2,0,0.2,0
			c0.1-0.5-0.1-0.8-0.3-1c0,0,0,0-0.1,0.1c0,0,0.3,0.4,0.3,0.9c0,0,0,0.1-0.1,0C27.5,15.9,27.4,15.8,27.3,15.5L27.3,15.5z"/>
		<path class="st4" d="M26.8,15.8C26.8,15.8,26.7,15.8,26.8,15.8c0.1,0.3,0.3,0.6,0.5,0.7c0.2,0.1,0.2,0,0.2-0.1
			c-0.1-0.5-0.2-0.5-0.3-0.8c0,0-0.1,0-0.1,0.1c0,0,0.2,0.2,0.3,0.6c0,0,0,0.1-0.1,0C27.1,16.2,27,16,26.8,15.8L26.8,15.8z"/>
		<path class="st4" d="M27.4,16.6c0,0-0.2-0.1-0.1,0c0.2,0.2,0.3,0.4,0.4,0.5c0.2,0.2,0.2,0,0.2-0.1c0-0.2-0.1-0.4-0.3-0.6
			c0,0,0,0.1-0.1,0.1c0,0,0.1,0.2,0.2,0.4c0,0,0,0.1-0.1,0C27.6,16.9,27.5,16.8,27.4,16.6L27.4,16.6z"/>
		<path class="st4" d="M27.8,16.4C27.8,16.4,27.7,16.4,27.8,16.4c0,0.1,0.1,0.4,0.3,0.5c0.1,0.1,0.1,0,0.1,0
			c-0.1-0.3-0.1-0.4-0.2-0.6C27.9,16.3,27.9,16.3,27.8,16.4c0.1,0,0.2,0,0.3,0.4c0,0,0,0.1,0,0C27.9,16.6,27.9,16.6,27.8,16.4
			L27.8,16.4z"/>
		<path class="st4" d="M26.4,15.9c0,0-0.1,0-0.1,0c0.2,0.2,0.5,0.5,0.7,0.7c0.1,0.1,0.2,0,0.1-0.1c0-0.1-0.1-0.3-0.4-0.6
			c0,0-0.1,0-0.1,0c0,0,0.2,0.1,0.4,0.5c0,0,0,0.1-0.1,0.1C26.8,16.3,26.6,16.1,26.4,15.9L26.4,15.9z"/>
		<path class="st4" d="M26.8,13.6C26.8,13.6,26.8,13.6,26.8,13.6c0,0.1,0,0.3,0.1,0.4c0,0,0.1,0,0.1,0c0-0.1,0.1-0.1,0-0.2
			c0,0-0.1-0.3-0.1-0.3c0,0,0,0,0,0.1c0,0,0.1,0.2,0.1,0.2c0,0.1,0,0.1,0,0.1c0,0,0,0-0.1,0C26.8,13.8,26.8,13.7,26.8,13.6
			L26.8,13.6z"/>
		<path class="st4" d="M27.1,13.9c0,0,0,0.1,0,0.1c0.2,0.2,0.5,0.7,0.5,0.7c0-0.1,0-0.2,0-0.3c0,0-0.4-0.7-0.4-0.7
			C27.2,13.8,27.1,13.8,27.1,13.9c0.1,0.1,0.4,0.4,0.4,0.5c0,0,0,0,0,0C27.4,14.4,27.1,14,27.1,13.9L27.1,13.9z"/>
		<path class="st4" d="M25.6,13.3C25.5,13.3,25.6,13.3,25.6,13.3c0.1,0.1,0.1,0.4-0.1,0.6c0,0-0.2,0.1-0.3,0
			c-0.1-0.1,0.1-0.5,0.2-0.6c0,0,0.1,0,0,0.1c0,0.1-0.2,0.3-0.1,0.4c0,0,0.1,0.1,0.2,0C25.5,13.6,25.6,13.4,25.6,13.3L25.6,13.3z"/>
		<path class="st4" d="M26,13.1C26,13.1,26.1,13,26,13.1c0.1,0.1,0.2,0.5,0,0.7c0,0.1-0.3,0.2-0.4,0c0-0.1,0.1-0.4,0.1-0.6
			c0,0,0.1-0.1,0.1,0c0,0.2-0.1,0.4-0.1,0.5c0,0,0.2,0,0.2-0.1C26,13.6,26,13.3,26,13.1L26,13.1z"/>
		<path class="st4" d="M26,12.2C26,12.2,26,12,26,12.2c0.2,0.1,0.4,0.5,0.3,0.6c0,0.1-0.2,0.3-0.3,0.1c0-0.1-0.1-0.4-0.1-0.6
			c0,0,0-0.1,0,0c0,0.1,0.1,0.4,0.1,0.5c0,0,0.1,0,0.2-0.1C26.3,12.6,26.1,12.3,26,12.2L26,12.2z"/>
		<path class="st4" d="M27.6,11.5C27.6,11.5,27.4,11.4,27.6,11.5c0.2,0,0.8,0.2,0.9,0.3c0,0,0.1,0.3-0.1,0.3c-0.1,0-0.6-0.3-0.8-0.4
			c0,0-0.1-0.1,0-0.1c0.1,0.1,0.6,0.3,0.7,0.3c0,0,0-0.1,0-0.2C28.2,11.7,27.7,11.5,27.6,11.5L27.6,11.5z"/>
		<path class="st4" d="M28.6,12.1c0,0-0.1-0.2,0-0.1c0.3,0.1,1.3,1.2,1.4,1.3c0,0.2-0.1,0.3-0.3,0.2c-0.4-0.4-0.9-0.9-1.1-1.1
			c0,0,0-0.1,0-0.2c0-0.1,1.1,1.1,1.2,1.1c0,0,0.1,0,0.1-0.1C29.8,13.2,28.7,12.2,28.6,12.1L28.6,12.1z"/>
		<path class="st4" d="M28.5,12.6C28.5,12.7,28.4,12.5,28.5,12.6c0.3,0,1,0.8,1,0.9c0,0.2-0.2,0.2-0.3,0.2c-0.3-0.2-0.6-0.5-0.8-0.6
			c0-0.1,0,0.1,0-0.1c0-0.1,0.7,0.6,0.8,0.7c0,0,0.2,0,0.2-0.1C29.3,13.4,28.6,12.7,28.5,12.6L28.5,12.6z"/>
		<path class="st4" d="M28.3,13.2C28.3,13.2,28.3,13.1,28.3,13.2c0.3,0,0.7,0.5,0.7,0.6c0,0.2-0.2,0.2-0.3,0.2
			c-0.3-0.2-0.3-0.3-0.5-0.4c0-0.1,0,0,0.1-0.1c0-0.1,0.4,0.3,0.5,0.4c0,0,0.2,0,0.2-0.1C28.8,13.6,28.4,13.2,28.3,13.2L28.3,13.2z"
			/>
		<path class="st4" d="M28,13.6C28,13.7,28,13.6,28,13.6c0.3,0,0.4,0.3,0.4,0.4c0,0.2-0.3,0.2-0.4,0.2c-0.3-0.2-0.1-0.1-0.3-0.2
			c0-0.1,0,0,0.1-0.1c0-0.1,0.3,0.2,0.3,0.2c0,0,0.2,0,0.2-0.1C28.3,13.9,28.1,13.7,28,13.6L28,13.6z"/>
		<path class="st4" d="M28.9,11.6c0,0,0.1-0.1,0.1-0.1c1.3,0.8,1.5,1.9,1.9,2.2c0.2,0.1-0.5,0-0.7-0.1c-0.4-0.3-1.1-1.4-1.7-1.7
			c0,0-0.1-0.1,0-0.1c0.9,0.3,1.6,1.6,1.8,1.7c0,0,0.3,0.1,0.3,0C30.4,13,29.4,11.7,28.9,11.6L28.9,11.6z"/>
		<path class="st4" d="M27.7,12C27.7,12,27.6,11.9,27.7,12c0.3,0,0.6,0.2,0.7,0.3c0,0,0,0.3-0.1,0.3c-0.1,0-0.4-0.1-0.5-0.2
			c0,0,0,0,0-0.1c0,0,0.4,0.2,0.5,0.2c0,0,0.1-0.1,0-0.2C28.2,12.2,27.9,12,27.7,12L27.7,12z"/>
		<path class="st4" d="M27.8,12.5C27.8,12.6,27.8,12.5,27.8,12.5c0.2,0,0.4,0.1,0.4,0.2c0,0,0,0.3-0.1,0.3c-0.2-0.1-0.2,0-0.4-0.2
			c0-0.1,0,0,0-0.1c0,0,0.3,0.2,0.3,0.2c0,0,0.1-0.1,0-0.2C28.1,12.7,27.9,12.6,27.8,12.5L27.8,12.5z"/>
		<path class="st4" d="M27.6,13.3C27.6,13.3,27.5,13.4,27.6,13.3c0.1,0.2,0.2,0.3,0.3,0.3c0,0,0.2-0.3,0.2-0.3c0,0-0.1-0.2-0.3-0.2
			c0,0,0,0.1,0,0.1c0,0,0.2,0,0.2,0.1c0,0,0,0.2-0.1,0.2C27.8,13.5,27.7,13.4,27.6,13.3L27.6,13.3z"/>
		<path class="st4" d="M27.3,13.7C27.3,13.7,27.3,13.7,27.3,13.7c0.1,0.2,0.1,0.3,0.2,0.3c0,0,0.2-0.2,0.2-0.3c0,0,0-0.1-0.2-0.2
			c0,0-0.1,0.1,0,0.1c0,0,0.2,0,0.2,0.1c0,0-0.1,0.2-0.1,0.2C27.4,13.9,27.4,13.8,27.3,13.7L27.3,13.7z"/>
		<path class="st4" d="M26.5,12.8C26.5,12.8,26.5,12.8,26.5,12.8c0.2,0.2,0.1,0.6,0.1,0.8c0,0.1-0.2,0.3-0.3,0.1c0-0.1,0-0.4,0-0.6
			c0,0,0.1-0.1,0.1,0c0,0.1,0,0.6,0,0.6c0,0,0.1,0,0.2-0.2C26.5,13.3,26.5,13,26.5,12.8L26.5,12.8z"/>
		<path class="st4" d="M28.2,15.7c0,0,0,0.1,0,0.1c0.3,0.2,1.4,1,1.6,1.1c0.1,0,0.6-0.1,0.4-0.3c-0.1-0.1-1.8-1.1-2.1-1.3
			c0,0,0,0.1,0,0.1c0.1,0.1,2,1.2,2,1.2c0,0-0.2,0.1-0.3,0.1C29.7,16.7,28.4,15.8,28.2,15.7L28.2,15.7z"/>
		<path class="st4" d="M28.2,16C28.2,16,28.1,16,28.2,16c0.2,0.3,1,1,1.2,1c0.1,0,0.5,0,0.4-0.1c0,0-0.2-0.1-0.1,0
			c0,0-0.2,0.1-0.3,0C29.2,16.8,28.3,16.1,28.2,16L28.2,16z"/>
		<path class="st4" d="M28,16.2C28.1,16.2,27.9,16.2,28,16.2c0.1,0.2,0.8,0.9,0.9,0.9c0,0,0.4,0,0.3,0c0,0-0.1,0-0.1-0.1
			c0,0-0.1,0-0.2,0C28.9,17,28.2,16.3,28,16.2L28,16.2z"/>
		<path class="st4" d="M28.2,15.9C28.3,15.9,28.2,15.9,28.2,15.9c0.2,0.2,1.2,0.9,1.2,0.9c0,0,0.1,0,0.1,0
			C29.4,16.8,28.4,16,28.2,15.9L28.2,15.9z"/>
		<path class="st4" d="M28.1,16.1C28.1,16.1,28.1,16.1,28.1,16.1c0.1,0.2,0.9,0.9,0.9,0.8c0,0,0.1,0,0.1,0
			C29,16.9,28.2,16.2,28.1,16.1L28.1,16.1z"/>
		<path class="st4" d="M28.1,16.5c0,0,0,0.1,0,0.1c0.2,0.3,0.5,0.5,0.6,0.5c0.1,0,0.1,0,0.1,0C28.6,17,28.7,17.1,28.1,16.5
			L28.1,16.5z"/>
		<path class="st4" d="M28.2,15.5c0,0-0.1,0,0,0.1c0.1,0.1,1.6,1,1.6,1c0,0,0.1,0,0.1,0C29.9,16.6,28.3,15.6,28.2,15.5L28.2,15.5z"
			/>
		<path class="st4" d="M26.1,12C26.1,12,26.1,11.8,26.1,12c0.2,0.1,0.5,0.4,0.5,0.6c0,0.1-0.2,0.3-0.3,0.2c0-0.1,0-0.1,0-0.1
			c0,0,0.1-0.1,0.1-0.2C26.5,12.4,26.3,12.1,26.1,12L26.1,12z"/>
		<path class="st4" d="M25.2,13.3C25.2,13.3,25.2,13.2,25.2,13.3c-0.2,0.1-0.3,0.3-0.3,0.4c0,0.1,0.3,0.1,0.2,0.1c0-0.1,0,0,0-0.1
			c0,0-0.1,0-0.1-0.1C25,13.6,25.1,13.4,25.2,13.3L25.2,13.3z"/>
		<path class="st4" d="M27.1,16.7C27.1,16.7,27,16.7,27.1,16.7c0,0.2,0.2,0.3,0.2,0.4c0,0,0.1,0,0.1-0.1c0,0,0-0.1,0-0.1
			c0,0-0.1,0-0.1,0C27.3,16.9,27.2,16.8,27.1,16.7L27.1,16.7z"/>
		<path class="st4" d="M26.6,12.7C26.6,12.8,26.7,12.6,26.6,12.7c0.1,0.2,0.2,0.6,0.1,0.8c-0.1,0-0.1,0.1-0.1,0c0-0.1,0-0.1,0-0.1
			c0,0,0,0,0,0C26.8,13.3,26.7,12.9,26.6,12.7L26.6,12.7z"/>
		<path class="st4" d="M26.7,12.2C26.7,12.2,26.7,12.3,26.7,12.2c0,0.1-0.1,0.1-0.1,0c-0.2-0.8-1.1-0.6-1.1-0.8c0-0.2,0-0.3,0-0.4
			c0,0,0.2-0.1,0.3-0.1c0.2,0,0,0.1,0,0.1c0,0-0.2,0-0.2,0c0,0.1-0.1,0.2,0,0.3C25.7,11.5,26.4,11.3,26.7,12.2L26.7,12.2z"/>
		<path class="st4" d="M27.2,12c0.1,0,0.2,0.5,0.1,0.7c0,0.1-0.3,0.5-0.4,0.6c0,0,0-0.2,0-0.2c0.1-0.1,0.3-0.3,0.3-0.4
			c0-0.4-0.1-0.4-0.1-0.6c-0.3-0.8-1-0.7-1-0.8c-0.1-0.2,0-0.3,0-0.4c0,0,1.4-0.3,2.6,0.4c0.1,0,0.3,0.1,0.4,0.1
			c0,0-0.2,0.2-0.4,0.3c-0.1,0-0.3,0.1-0.4,0c0,0,0-0.1,0-0.2c0,0,0.2,0,0.1,0c0,0,0,0.1,0,0.1c0.1,0,0.3-0.1,0.3-0.1
			c-0.9-0.7-2.5-0.6-2.5-0.6c0,0.1-0.1,0.2,0,0.3C26.2,11.2,27,11.2,27.2,12L27.2,12z"/>
		<path class="st4" d="M24.8,12.5C24.8,12.5,24.9,12.6,24.8,12.5c0.2,0,0.4-0.1,0.3-0.2c0,0-0.2,0-0.2,0c-0.1,0.1-0.3,0.2-0.5,0.3
			c0,0-0.1,0.1,0,0.1c0.2,0,0.6-0.4,0.6-0.2C25.1,12.4,25,12.4,24.8,12.5L24.8,12.5z"/>
		<path class="st4" d="M26.5,11.7L26.5,11.7l0.1,0.1C26.6,11.8,26.6,11.8,26.5,11.7L26.5,11.7L26.5,11.7z"/>
		<path class="st4" d="M26.7,11.2l0.2,0l0.1,0.1C26.9,11.2,26.8,11.2,26.7,11.2L26.7,11.2L26.7,11.2z"/>
		<path class="st4" d="M26.7,12.1l0.1,0l0,0.1c0,0-0.1,0-0.1,0L26.7,12.1L26.7,12.1z"/>
		<path class="st4" d="M26.8,12.7L26.8,12.7l0.1,0.1C26.9,12.7,26.9,12.8,26.8,12.7L26.8,12.7L26.8,12.7z"/>
		<path class="st4" d="M27.1,13.3c0.1,0.1,0.2,0.1,0.3,0.2c0,0.1-0.1,0.1-0.1,0.2c0,0,0-0.1-0.1-0.1c0,0,0,0,0.1,0
			C27.2,13.4,27.1,13.4,27.1,13.3C27,13.3,27.1,13.3,27.1,13.3L27.1,13.3z"/>
		<path class="st4" d="M27.7,14c0.1,0,0.2,0.2,0.3,0.3c0,0.1-0.1,0.1-0.1,0.2c-0.2,0.3-0.1,0.1-0.1,0c0,0,0.1-0.1,0.1-0.2
			C27.8,14.2,27.7,14.1,27.7,14C27.6,14,27.7,14,27.7,14L27.7,14z"/>
		<path class="st4" d="M27.3,12.9c0.1,0.1,0.2,0.1,0.3,0.1c0,0,0,0,0,0c-0.1,0.1-0.1,0.2-0.2,0.3c-0.1-0.1-0.2-0.1-0.2-0.2
			c0,0,0,0,0-0.1c0,0.1,0.1,0.1,0.2,0.1c0,0,0.1-0.1,0.1-0.1C27.4,13.1,27.3,13.1,27.3,12.9C27.3,13,27.3,13,27.3,12.9L27.3,12.9z"
			/>
		<path class="st4" d="M27.4,12.5c0.1,0,0.2,0.1,0.3,0.1c0,0,0,0,0,0c0,0.2,0,0.4,0,0.5c-0.1,0-0.2,0-0.3-0.1c0,0,0-0.1,0-0.1
			c0.1,0,0.1,0.1,0.2,0.1c0-0.1,0-0.1,0-0.2C27.5,12.6,27.5,12.6,27.4,12.5C27.4,12.5,27.4,12.5,27.4,12.5L27.4,12.5z"/>
		<path class="st4" d="M27.3,11.9c0.1,0,0.2,0.1,0.3,0c0,0,0,0,0,0c0.1,0.2,0.1,0.4,0.1,0.5c-0.1,0-0.2,0-0.3-0.1c0,0,0-0.1,0-0.1
			c0.1,0,0.1,0,0.2,0c0-0.1,0-0.2,0-0.2C27.4,12,27.4,12,27.3,11.9C27.3,12,27.3,11.9,27.3,11.9L27.3,11.9z"/>
		<path class="st4" d="M26.3,11c0.1-0.1,0.4,0,0.5,0c0,0,0.1,0,0.1,0c0.2,0.1,0.3,0.3,0.4,0.4c-0.1,0.1-0.2,0-0.3,0
			c0-0.1,0-0.1-0.1-0.1c0.1,0,0.1,0,0.2,0c-0.1,0-0.2-0.2-0.2-0.2C26.9,11.1,26.4,11.1,26.3,11C26.3,11,26.3,11,26.3,11L26.3,11z"/>
		<path class="st4" d="M27.1,11.5c0.1,0,0.1,0,0.3,0c0,0,0,0,0,0c0.1,0.1,0.2,0.3,0.2,0.4c-0.1,0-0.2,0-0.3,0c0,0,0-0.1,0-0.1
			c0.1,0,0.1,0,0.2,0c0,0,0-0.1-0.1-0.1C27.3,11.6,27.2,11.6,27.1,11.5C27.1,11.5,27.1,11.5,27.1,11.5L27.1,11.5z"/>
		<path class="st4" d="M30.9,13.8c0,0.1,0.1,0.3,0.2,0.5c0,0.1,0.1,0.2,0.1,0.2c-0.1,0.8,0,2.1-0.2,2.2c0,0,0-0.1,0-0.1
			c0-0.6-0.2-1.2-0.3-1.8c0,0,0-0.1,0-0.2c-0.1-0.2-0.4-0.2-0.5-1c0,0,0.1-0.1,0.1-0.1c0,0.1,0.1,0,0.1,0.1c0,0.6,0.3,0.6,0.5,0.9
			c0,0,0.1,0.1,0.1,0.2c0,0.2,0.1,1,0.2,1.1c0,0.1,0.1,0.1,0.1,0c0-0.5,0-0.8,0-1.2c0,0,0-0.1,0-0.1c0-0.1-0.1-0.3-0.2-0.7
			L30.9,13.8L30.9,13.8z"/>
		<path class="st4" d="M30.5,14.7c0.1,0.8,0.2,1,0.1,1.8c0,0,0-0.1,0-0.1c0-0.6-0.3-1-0.4-1.6c0,0,0-0.1-0.1-0.2
			c-0.1-0.2-0.3-0.2-0.6-0.8c0,0,0.1-0.2,0.2,0c0.1,0.4,0.4,0.5,0.6,0.8c0,0,0,0.2,0,0.3c0,0.2,0.2,0.7,0.2,0.8c0,0.1,0.1,0.1,0.1,0
			c0-0.5-0.1-0.6-0.2-1C30.3,14.5,30.5,14.6,30.5,14.7L30.5,14.7z"/>
		<path class="st4" d="M29.9,14.6c0.1,0.6,0.3,0.9,0.3,1.7c0,0,0,0-0.1-0.1c0-0.5-0.4-0.7-0.5-1.4c0-0.1-0.1,0-0.1-0.1
			c-0.2-0.3-0.2-0.1-0.6-0.7c0,0,0-0.2,0.1-0.1c0.3,0.4,0.4,0.4,0.5,0.6c0,0,0.1,0,0.1,0.1c0.2,0.2,0.1,0.6,0.3,0.8
			c0,0,0.1,0.1,0.1,0c-0.1-0.5-0.1-0.4-0.2-0.9C29.8,14.4,29.9,14.5,29.9,14.6L29.9,14.6z"/>
		<path class="st4" d="M29.5,14.6c0.1,0.4,0.1,0.4,0.2,1c-0.1,0-0.1,0-0.1-0.1c-0.1-0.4-0.2-0.4-0.4-0.7c0,0-0.1-0.1-0.2-0.1
			c-0.2-0.1-0.3-0.1-0.6-0.4c0,0,0-0.2,0.1-0.1c0.2,0.3,0.2,0.2,0.3,0.3c0,0,0.2,0,0.2,0.1c0.2,0.1,0.3,0.4,0.4,0.6c0,0,0.1,0,0-0.1
			c-0.1-0.3,0-0.2-0.2-0.5C29.3,14.5,29.5,14.6,29.5,14.6L29.5,14.6z"/>
		<path class="st4" d="M28.9,14.7c0.2,0.3,0.2,0.3,0.3,0.7c-0.1,0-0.1,0-0.1,0c-0.2-0.3-0.3-0.3-0.4-0.5c0,0-0.1-0.1-0.1-0.1
			c-0.2-0.1-0.3-0.1-0.6-0.3c0,0,0.1-0.2,0.1-0.1c0.2,0.2,0.2,0.1,0.4,0.2c0,0,0.1,0,0.1,0c0.2,0,0.3,0.3,0.4,0.4c0,0,0.1,0,0-0.1
			c-0.2-0.2,0,0-0.2-0.3C28.8,14.7,28.9,14.6,28.9,14.7L28.9,14.7z"/>
		<path class="st4" d="M30.5,13.8c0,0.1,0.1,0.3,0.1,0.4c-0.1,0-0.3-0.4-0.4-0.6C30.3,13.7,30.5,13.7,30.5,13.8L30.5,13.8z"/>
		<path class="st4" d="M29.9,13.7c0,0.1,0.1,0.4,0.2,0.6c-0.1,0-0.3-0.4-0.4-0.6C29.7,13.6,29.8,13.6,29.9,13.7L29.9,13.7z"/>
		<path class="st4" d="M29.3,13.8c0.1,0.1,0.2,0.3,0.3,0.5c-0.1,0-0.3-0.3-0.4-0.5C29.2,13.8,29.3,13.8,29.3,13.8L29.3,13.8z"/>
		<path class="st4" d="M28.8,14c0,0.1,0.1,0.2,0.3,0.4c-0.1,0-0.4-0.2-0.4-0.4C28.7,14,28.8,14,28.8,14L28.8,14z"/>
		<path class="st4" d="M28.3,14.3c0,0.1,0.1,0.1,0.2,0.2c-0.1,0-0.2-0.1-0.3-0.2C28.2,14.3,28.3,14.2,28.3,14.3L28.3,14.3z"/>
		<path class="st4" d="M26.2,16c0,0.2,0,0.2,0,0.3c0.1,0.2,0.1,0.2,0.2,0.4c0,0,0.1,0,0.1,0c0.1,0,0-0.2,0-0.3c0,0,0,0-0.1,0
			c0,0,0,0.2,0,0.2c0,0,0,0,0,0c-0.1,0-0.1-0.1-0.1-0.1C26.3,16.3,26.3,16.2,26.2,16C26.2,16.1,26.2,16,26.2,16L26.2,16z"/>
		<path class="st4" d="M25.7,16.4c-0.1,0-0.3,0-0.4,0c-0.1,0-0.1,0-0.2,0c0,0-0.1,0.1,0,0.1c0,0,0.3,0,0.4,0.1c0,0,0,0,0,0
			c0,0-0.3-0.1-0.3-0.1c0,0,0,0,0,0c0,0,0,0,0,0C25.3,16.4,25.5,16.4,25.7,16.4L25.7,16.4L25.7,16.4z"/>
		<path class="st4" d="M25.7,16c0,0-0.1,0-0.2,0c-0.1,0,0,0-0.1,0c0,0-0.1,0-0.1,0.2c0,0.1,0.2,0.1,0.4,0.1c0,0,0,0,0,0
			c0,0-0.2-0.1-0.3-0.1c0,0,0,0,0-0.1c0,0,0,0,0,0C25.6,16.1,25.6,16.1,25.7,16C25.7,16,25.7,16,25.7,16L25.7,16z"/>
		<path class="st4" d="M25.7,15.9c0,0-0.2-0.1-0.2-0.1c0,0,0,0-0.1-0.1c0,0-0.1-0.1-0.1-0.2c0.1-0.1,0.1,0,0.2,0c0,0,0,0,0,0.1
			c0,0,0,0-0.1,0c-0.1,0,0,0,0,0c0,0,0,0,0,0C25.6,15.8,25.6,15.8,25.7,15.9C25.7,15.8,25.7,15.9,25.7,15.9L25.7,15.9z"/>
		<path class="st4" d="M26.1,16.2c-0.1,0-0.2,0.1-0.2,0.1c-0.1,0.1-0.2,0.1-0.3,0.2c0,0-0.1,0.2,0,0.2c0,0.1,0.4-0.1,0.5-0.1
			c0,0,0,0,0-0.1c0,0-0.3,0.1-0.4,0.1c0,0,0,0,0,0c0-0.1,0.1-0.1,0.1-0.1C25.9,16.4,26,16.3,26.1,16.2
			C26.1,16.3,26.1,16.2,26.1,16.2L26.1,16.2z"/>
		<path class="st4" d="M25.7,15.6c0,0.1,0.1,0.3,0.1,0.3c0.1,0.1,0.1,0.1,0.2,0.2c0,0,0.1,0,0.1,0c0.1,0,0-0.2,0-0.2c0,0,0,0-0.1,0
			c0,0,0,0.1,0,0.2c0,0,0,0,0,0c-0.1,0-0.1-0.1-0.1-0.1c-0.1-0.1-0.1-0.2-0.1-0.3C25.8,15.7,25.7,15.6,25.7,15.6L25.7,15.6z"/>
		<path class="st4" d="M26.4,16.3c0,0,0-0.1,0-0.2c0,0,0,0-0.1-0.1v0.1C26.3,16.2,26.3,16.3,26.4,16.3
			C26.4,16.3,26.4,16.4,26.4,16.3L26.4,16.3z"/>
		<path class="st4" d="M25.9,16.5c0,0,0.2-0.1,0.3-0.1c0,0,0,0,0-0.1c0,0-0.1,0-0.1,0C26,16.4,26,16.4,25.9,16.5
			C26,16.4,25.9,16.5,25.9,16.5L25.9,16.5z"/>
		<path class="st4" d="M25.9,16.2c-0.2,0-0.2-0.1-0.3-0.1c0,0,0,0,0,0c0,0,0.1,0,0.2,0C25.8,16.1,25.8,16.2,25.9,16.2
			C25.9,16.2,25.9,16.2,25.9,16.2L25.9,16.2z"/>
		<path class="st4" d="M26,15.9c0,0,0-0.1,0-0.1c0,0,0,0-0.1,0L26,15.9C25.9,15.8,25.9,15.8,26,15.9C25.9,15.9,25.9,15.9,26,15.9
			L26,15.9z"/>
		<g>
			<path class="st5" d="M24.5,15.9c0-0.1,0-0.1,0-0.1c0-0.1,0.1-0.2,0.2-0.2c0,0,0,0.1,0,0.2c0,0,0.1,0,0,0.1
				C24.6,16,24.5,16,24.5,15.9L24.5,15.9z"/>
			<path class="st5" d="M24.5,16.4C24.5,16.4,24.5,16.4,24.5,16.4c0.2,0.1,0.2,0,0.2,0C24.7,16.4,24.6,16.4,24.5,16.4
				C24.6,16.3,24.5,16.3,24.5,16.4C24.4,16.4,24.5,16.4,24.5,16.4L24.5,16.4z"/>
			<path class="st5" d="M24.4,16.5C24.4,16.5,24.4,16.5,24.4,16.5c0.1,0.1,0.2,0,0.2,0C24.5,16.4,24.4,16.5,24.4,16.5
				C24.4,16.4,24.4,16.4,24.4,16.5C24.3,16.4,24.3,16.4,24.4,16.5L24.4,16.5z"/>
			<path class="st5" d="M24.2,16.5C24.2,16.5,24.2,16.5,24.2,16.5c0.1,0,0.1,0,0.1,0C24.3,16.5,24.3,16.5,24.2,16.5
				C24.3,16.5,24.2,16.5,24.2,16.5C24.1,16.5,24.2,16.5,24.2,16.5L24.2,16.5z"/>
			<path class="st5" d="M24.3,16.2c-0.1-0.1,0-0.2-0.1-0.4c0-0.1,0-0.1,0-0.1c0,0,0.2,0,0.2-0.1c0,0.1-0.2,0.2,0,0.4
				c0,0,0,0.1,0,0.2C24.5,16.3,24.4,16.3,24.3,16.2C24.4,16.3,24.3,16.2,24.3,16.2L24.3,16.2z"/>
			<path class="st5" d="M24.3,16.4C24.3,16.4,24.3,16.3,24.3,16.4c-0.1-0.1-0.2-0.2-0.1-0.4c0-0.1,0-0.1-0.1-0.1
				c0,0-0.1,0.1-0.1,0.1c0.1,0,0.1,0.1,0.1,0.3c0,0,0,0,0.1,0.1C24.3,16.4,24.3,16.4,24.3,16.4L24.3,16.4z"/>
			<path class="st5" d="M24.2,16.4C24.2,16.4,24.2,16.4,24.2,16.4c0-0.1-0.1-0.2-0.1-0.3c0-0.1,0-0.1-0.1-0.1c0,0-0.1,0.1-0.1,0.1
				c0,0,0.2,0.2,0.1,0.2C24,16.3,24.1,16.4,24.2,16.4C24.1,16.4,24.1,16.4,24.2,16.4L24.2,16.4z"/>
			<path class="st5" d="M25.2,15.8c0,0,0.1,0,0.1,0.1c0,0.1-0.2,0.2-0.4,0.4c0,0-0.1,0-0.1,0c-0.1,0-0.1,0-0.2-0.1c0,0,0,0,0,0
				c0.1-0.1,0.1,0,0.2,0l0-0.1c0,0-0.1-0.1-0.2-0.1c0,0-0.1,0.1-0.2,0.1c0,0,0,0.1,0,0.1c0,0,0.2,0.1,0.3,0.2c0,0,0.1,0,0.2,0
				c0-0.1,0.3-0.2,0.4-0.4c0-0.1,0-0.1,0-0.1C25.4,15.8,25.3,15.7,25.2,15.8L25.2,15.8L25.2,15.8z"/>
		</g>
		<g>
			<g id="XMLID_256_">
				<path id="XMLID_266_" class="st6" d="M23.3,12.2C23.3,12.1,23.2,12.1,23.3,12.2c-0.2,0-0.4,0.2-0.4,0.3c0,0.3,0.1,0.7,0.3,0.8
					c0.1,0,0.3,0,0.4-0.1c0,0,0-0.1,0-0.1c-0.1,0-0.2,0.1-0.3,0c-0.2-0.1-0.2-0.4-0.2-0.6L23.3,12.2c-0.1,0.1-0.2,0.2-0.2,0.2
					C23,12.3,23.2,12.1,23.3,12.2L23.3,12.2z"/>
				<path id="XMLID_265_" class="st6" d="M23.6,12.8c0,0.1-0.4,0.2-0.4,0C23.3,12.9,23.5,12.9,23.6,12.8L23.6,12.8z"/>
				<path id="XMLID_264_" class="st6" d="M24.2,13c0.3-0.1,0.6,0.5,0.3,0.8C24.6,13.5,24.6,13,24.2,13L24.2,13z"/>
				<path id="XMLID_263_" class="st6" d="M24,13.1C24.1,13,24.1,13,24,13.1C24.1,13,24.1,13,24,13.1c0.2,0,0.4,0.3,0.5,0.6
					c0,0.3-0.6,0.8-0.9,1.1c-0.1,0.2,0.1,0.5,0,0.5c-0.5-0.3-0.1-0.7-0.1-0.8c0.5-0.6,1-0.8,0.6-1.3c0,0-0.1,0-0.1-0.1
					C24,13.1,24,13.1,24,13.1L24,13.1z"/>
				<path id="XMLID_262_" class="st6" d="M24.9,16c0,0,0.1-0.1,0.1-0.2c0,0,0,0,0-0.1c0.1-0.2,0-0.5-0.2-0.6c-0.2-0.2-0.6,0-1-0.1
					c-0.2-0.1-0.2-0.4-0.2-0.3c-0.1,0.4,0.3,0.4,0.3,0.4c0.6,0.1,0.9-0.1,0.9,0.4c0,0,0,0.1,0,0.1c-0.1,0.1-0.2,0.2-0.2,0.2
					C24.8,15.9,24.9,15.9,24.9,16L24.9,16z"/>
				<path id="XMLID_261_" class="st6" d="M23.5,12.1C23.5,12.1,23.5,12.1,23.5,12.1c0.1,0,0.1,0.2,0,0.3
					C23.5,12.3,23.5,12.2,23.5,12.1L23.5,12.1z"/>
				<path id="XMLID_260_" class="st6" d="M23.7,12.4c0.1,0.1-0.5,0.5-0.6,0.3c0-0.1,0.1-0.4,0.2-0.5c0.1-0.1,0-0.2,0-0.2
					c-0.1,0,0.1-0.1,0.1-0.1c0.1-0.1,0.2,0.1,0.1,0.1c-0.2,0.2-0.1,0.2-0.1,0.2c0,0,0,0.2-0.1,0.3c0,0,0,0.1,0,0.1
					C23.4,12.6,23.6,12.5,23.7,12.4L23.7,12.4z"/>
				<path id="XMLID_259_" class="st6" d="M24.2,13.5c0,0,0,0,0-0.1C24.2,13.4,24.2,13.5,24.2,13.5c-0.3,0.3-0.7,0.4-0.9,0.8
					c-0.1,0.3-0.1,0.7,0,1c0.2,0.4,0.9,0.2,1.3,0.2c0.1,0,0,0.2,0,0.3c0,0,0.1-0.1,0.1-0.1c0.1-0.2-0.1-0.3-0.1-0.2
					c-0.7,0.1-1,0.1-1.2-0.2c-0.2-0.4-0.2-0.6,0-0.8C23.8,13.9,23.9,14,24.2,13.5L24.2,13.5z"/>
				<path id="XMLID_258_" class="st6" d="M22.7,14.2c0.2,0.1,0.3,0.3,0.4,0.3c0.1,0.3-0.2,0.5-0.1,0.7c0.1,0.2,0.3,0.1,0.5,0.4
					c0.2,0.2,0,0.3,0.3,0.5c0,0,0,0.1,0.1,0.1c-0.3,0-0.4-0.2-0.5-0.5c-0.1-0.2-0.4-0.2-0.6-0.5c0-0.3,0.1-0.4,0.1-0.7
					C23,14.4,22.7,14.3,22.7,14.2C22.6,14.3,22.7,14.2,22.7,14.2L22.7,14.2z"/>
				<path id="XMLID_257_" class="st6" d="M22.6,14.4c0.2,0.1,0.2,0.2,0.3,0.3c0.1,0.3-0.2,0.5-0.1,0.7c0.1,0.2,0.3,0.3,0.6,0.5
					c0.2,0.2,0,0.8,0.7,0.7c0,0,0.1,0.1,0.1,0.1c-0.7,0.2-0.8-0.4-0.9-0.7c-0.2-0.2-0.4-0.2-0.6-0.5c-0.1-0.4,0.2-0.5,0.1-0.7
					C22.8,14.5,22.6,14.4,22.6,14.4C22.6,14.4,22.6,14.4,22.6,14.4L22.6,14.4z"/>
			</g>
		</g>
		<path class="st5" d="M22.6,14.1c-0.1,0.1-0.2,0.1-0.1,0.3c0,0,0,0.1,0,0.1c0,0-0.1,0-0.1,0c0-0.2-0.1-0.2,0.1-0.4
			C22.6,14.1,22.6,14.1,22.6,14.1L22.6,14.1z"/>
		<path class="st5" d="M22.4,14.1c-0.1,0.1-0.2,0.1-0.1,0.3c0,0,0,0.1,0,0.1c0,0-0.1,0-0.1,0c0-0.2-0.1-0.2,0.1-0.4
			C22.4,14,22.4,14.1,22.4,14.1L22.4,14.1z"/>
		<path class="st5" d="M22.2,14c-0.1,0.1-0.2,0.1-0.1,0.3c0,0,0,0.1,0,0.1c0,0-0.1,0-0.1,0c0-0.1-0.1-0.2-0.1-0.2
			c0,0,0.1-0.1,0.2-0.2C22.2,14,22.2,14,22.2,14L22.2,14z"/>
		<path class="st4" d="M27.2,17.2c0,0-0.1,0-0.2,0c0,0,0,0.3,0,0.3c0,0,0.1,0,0.1,0c0,0,0-0.2,0.1-0.2c0,0,0.1,0,0.2,0
			c0.1,0,0.1-0.1,0.1,0c0,0,0.1,0,0.1,0c-0.1,0.1-0.2,0.2-0.3,0.2c0,0-0.1,0.1-0.1,0.1c0,0.1,0.1,0.2,0.1,0.2c0,0,0.2,0,0.2-0.1
			c0.1,0,0.3-0.3,0.3-0.3c0,0,0.1,0,0.2,0c0.1,0,0.1,0.1,0.1,0.1c0,0.1,0,0.1,0.2,0.1c0.3,0,0.3,0,0.4-0.2c0.1-0.1,0.1-0.1,0-0.2
			c0,0-0.1-0.1-0.2-0.1c-0.2,0-0.3,0-0.4-0.2c0,0-0.1,0-0.1,0c0.1,0.1,0.1,0.2,0.2,0.2c0,0,0.2,0,0.2,0.1c0,0.1-0.1,0.1-0.1,0.1
			c-0.1,0-0.1-0.1-0.2-0.1c0,0-0.2-0.2-0.2-0.2c0,0-0.1,0.1-0.2,0.1c-0.1,0-0.3,0.3-0.4,0.4c-0.1,0-0.1,0-0.1-0.1
			c0,0,0.3-0.3,0.3-0.3c0,0,0-0.1,0-0.1c0,0,0,0-0.1,0C27.5,17.2,27.2,17.3,27.2,17.2L27.2,17.2z"/>
		<path class="st4" d="M26.9,17.3c0,0.1,0,0.2,0,0.3c0,0-0.1,0-0.1,0c-0.1,0-0.1,0.1,0,0.2l0,0c-0.1,0-0.2-0.2-0.1-0.3
			C26.7,17.3,26.9,17.3,26.9,17.3L26.9,17.3z"/>
		<path class="st4" d="M27.1,17.7c0,0.1,0.1,0.1,0.1,0.2c-0.1,0-0.2,0.2,0,0.3c0,0-0.1,0-0.1,0c-0.1,0-0.2-0.1-0.2-0.3
			C27,17.8,27.1,17.7,27.1,17.7L27.1,17.7z"/>
		<path class="st4" d="M28.8,17.4c-0.1,0.1-0.1,0.1-0.1,0.2c0.1,0,0.2,0.2,0,0.3c0,0,0.1,0,0.1,0c0.1,0,0.2-0.1,0.2-0.3
			C29,17.6,28.9,17.4,28.8,17.4L28.8,17.4z"/>
		<path class="st7" d="M29.7,18c-0.1,0-0.1,0-0.2,0c-0.1,0.1,0,0.1,0.1,0.1L29.7,18L29.7,18z"/>
		<g>
			<path class="st8" d="M24.5,17.1L24.5,17.1c-0.1-0.1-0.2,0-0.2,0.1c0,0.2,0,0.3,0.1,0.3c0.1,0.1,0.2,0,0.3-0.2
				C24.8,17.1,24.7,17.1,24.5,17.1L24.5,17.1c0.1,0,0.1,0.1,0.1,0.2c0,0.1-0.1,0.2-0.1,0.2c-0.1,0-0.1-0.1-0.1-0.2
				C24.5,17.2,24.5,17.1,24.5,17.1L24.5,17.1z"/>
			<path class="st8" d="M24.3,16.9c0,0,0.1-0.1,0.1-0.1c0,0.1,0,0.1,0,0.2c0,0,0,0-0.1,0C24.4,17,24.4,16.9,24.3,16.9L24.3,16.9z"/>
			<path class="st8" d="M24.6,16.8c0.1,0,0.1,0,0.2,0c0,0.1,0,0.1-0.1,0.2c0,0,0,0-0.1,0C24.6,16.9,24.6,16.9,24.6,16.8L24.6,16.8z"
				/>
			<path class="st8" d="M24.8,16.9c0.1,0,0.1,0,0.1,0.1c0,0.1-0.1,0.1-0.1,0.1c0,0,0,0,0,0C24.8,17,24.8,16.9,24.8,16.9L24.8,16.9z"
				/>
		</g>
		<g>
			<path class="st8" d="M30.2,17.4L30.2,17.4c0-0.1-0.1-0.1-0.2,0c-0.1,0.1-0.2,0.2-0.1,0.3c0.1,0.1,0.2,0.1,0.3,0
				C30.4,17.6,30.4,17.4,30.2,17.4L30.2,17.4c0,0,0,0.1-0.1,0.2c-0.1,0.1-0.2,0.1-0.2,0c0-0.1,0-0.1,0.1-0.2
				C30.1,17.4,30.2,17.4,30.2,17.4L30.2,17.4z"/>
			<path class="st8" d="M30.3,17c0.1,0,0.1,0,0.1,0.1c0,0.1-0.1,0.1-0.1,0.1c0,0,0,0,0,0C30.3,17.1,30.3,17.1,30.3,17L30.3,17z"/>
			<path class="st8" d="M30.5,17.2c0.1,0,0.1,0,0.1,0.1c0,0-0.1,0.1-0.1,0.1c0,0,0,0,0,0C30.4,17.2,30.4,17.2,30.5,17.2L30.5,17.2z"
				/>
			<path class="st8" d="M30.6,17.4c0,0,0,0.1,0,0.1c-0.1,0-0.1,0-0.2,0c0,0,0,0,0,0C30.5,17.4,30.6,17.4,30.6,17.4L30.6,17.4z"/>
			<path class="st8" d="M30.7,17c0,0-0.1,0-0.1,0.1c0,0,0,0.1,0.1,0.1C30.7,17.2,30.7,17.1,30.7,17c0.1,0.1,0.2,0.1,0.2,0
				c0-0.1,0-0.1,0-0.2C30.8,16.8,30.7,16.9,30.7,17C30.7,16.9,30.7,17,30.7,17L30.7,17z"/>
		</g>
		<g>
			<path class="st8" d="M22.4,16.2L22.4,16.2c0.1-0.2,0.2-0.1,0.3,0c0.1,0.1,0.1,0.2,0,0.3c-0.1,0.1-0.2,0.1-0.4,0
				C22.2,16.4,22.3,16.3,22.4,16.2L22.4,16.2c0,0,0,0.1,0,0.2c0.1,0.1,0.2,0.1,0.2,0.1s0-0.1,0-0.2C22.6,16.2,22.5,16.2,22.4,16.2
				L22.4,16.2z"/>
			<path class="st8" d="M22.6,15.8c0,0-0.1,0-0.2,0c0,0.1,0,0.1,0.1,0.2c0,0,0,0,0.1,0C22.6,16,22.6,15.9,22.6,15.8L22.6,15.8z"/>
			<path class="st8" d="M22.3,15.9c-0.1,0-0.1,0-0.1,0.1c0,0.1,0.1,0.1,0.1,0.1c0,0,0,0,0,0C22.4,16,22.3,15.9,22.3,15.9L22.3,15.9z
				"/>
			<path class="st8" d="M22.1,16c0,0-0.1,0.1-0.1,0.1c0.1,0,0.1,0,0.2,0c0,0,0,0,0-0.1C22.2,16.1,22.1,16.1,22.1,16L22.1,16z"/>
			<path class="st8" d="M22.1,15.7c0,0,0.1,0.1,0.1,0.1c0,0-0.1,0.1-0.1,0.1C22.1,15.8,22.1,15.8,22.1,15.7c-0.1,0.1-0.2,0-0.2,0
				c0-0.1,0-0.1,0.1-0.1C22.1,15.5,22.1,15.5,22.1,15.7C22.2,15.6,22.2,15.6,22.1,15.7L22.1,15.7z"/>
		</g>
		<g>
			<g id="XMLID_340_">
				<path id="XMLID_368_" class="st9" d="M29.6,17.4v-0.2l-0.1,0.1l0,0.1l-0.2,0.1l-0.1-0.1l0,0.2c0,0.1-0.1,0.2-0.1,0.3
					C29,18,28.8,18,28.7,18l0,0.1c0.5,0.1,0.4-0.3,0.6-0.5c0,0,0,0,0,0c0.1-0.1,0.3-0.1,0.4-0.1c0,0,0-0.1,0.1-0.1
					C29.8,17.4,29.6,17.4,29.6,17.4L29.6,17.4z"/>
				<path id="XMLID_367_" class="st9" d="M30.1,18l0.2,0C30.2,18,30.2,18,30.1,18c-0.2,0.2-0.2,0.2-0.4,0.3l0.1,0.1
					c-0.1,0-0.2,0-0.3,0c-0.1,0.1-0.7,0-0.7,0.1v0.2c0,0-0.1-0.2-0.2-0.2c-0.1,0-0.3-0.1-0.3,0l0.1-0.1c0.4,0,0.6,0.2,1.1,0
					c0.2-0.1,0.4-0.3,0.4-0.3c0,0,0.1,0,0.1,0C30.2,17.9,30.2,18,30.1,18L30.1,18z"/>
				<path id="XMLID_366_" class="st9" d="M29.4,18.1c-0.1,0-0.2,0-0.2,0c-0.1,0.1,0,0.1,0.1,0.1L29.4,18.1L29.4,18.1z"/>
				<path id="XMLID_365_" class="st9" d="M29.5,17.7c-0.1,0.1-0.1,0.1-0.2,0.2c0,0.1,0.1,0.1,0.1,0L29.5,17.7L29.5,17.7z"/>
				<path id="XMLID_364_" class="st9" d="M29.7,17.7c-0.1,0.1-0.1,0.1-0.2,0.1c0,0.1,0.1,0.1,0.1,0L29.7,17.7L29.7,17.7z"/>
				<path id="XMLID_363_" class="st9" d="M22.5,17.1c-0.1,0-0.1,0-0.2,0c0,0.1,0.1,0.2,0.2,0.1c0.1,0.1,0.1,0.1,0.3,0.3
					c-0.1,0-0.1,0.1-0.2,0.1c0.1,0.1,0.2,0.1,0.3,0c0,0.1,0.1,0.1,0.2,0.1c0,0-0.1,0.1-0.1,0.1c0.1,0,0.2,0,0.2-0.1c0,0,0.4,0,0.4,0
					c0,0,0,0,0-0.1c-0.4-0.1-0.3,0-0.7-0.2c-0.2-0.1-0.3-0.3-0.3-0.4c0-0.1,0.3-0.3,0.3-0.3c0.1,0,0.2,0,0.3,0.1
					c0.1,0.1,0.3,0.4,0.3,0.6l0.1-0.1c0-0.1,0-0.2-0.1-0.2c0,0,0.1-0.1,0-0.3c0,0.1-0.1,0.1-0.1,0.2c-0.1-0.1-0.2-0.2-0.4-0.4
					c0-0.1,0-0.2-0.2-0.2l0,0.2C22.8,16.5,22.4,17,22.5,17.1L22.5,17.1z"/>
				<path id="XMLID_362_" class="st9" d="M23.3,17.3c0.1,0,0.2,0,0.2,0c0.1,0.1-0.1,0.1-0.1,0.1L23.3,17.3L23.3,17.3z"/>
				<path id="XMLID_361_" class="st9" d="M23.3,16.9c0,0.1,0.1,0.1,0.1,0.2c0,0.1-0.1,0-0.1,0L23.3,16.9L23.3,16.9z"/>
				<path id="XMLID_360_" class="st9" d="M23,16.8c0,0.1,0.1,0.1,0.1,0.2c0,0.1-0.1,0-0.1,0V16.8L23,16.8z"/>
				<path id="XMLID_359_" class="st9" d="M23,17.2c0.1,0,0.1,0,0.2,0.1c0,0.1-0.1,0.1-0.1,0.1L23,17.2L23,17.2z"/>
				<path id="XMLID_358_" class="st9" d="M25.5,18.3C25.4,18.4,25.4,18.4,25.5,18.3c0,0.1,0.1,0.1,0.2,0c0.1,0,0.3,0,0.4,0
					c0,0.1,0,0.1,0,0.1c0.1,0,0.2,0,0.2-0.1c0.1,0,0.2,0,0.3,0c0.1,0,0,0.2,0,0.1c0.1-0.1,0.2-0.1,0.1-0.2c0,0,0.2,0,0.2,0
					c0,0,0-0.1,0-0.2c-0.4,0.2-0.6,0.2-1,0.1c-0.1,0-0.3-0.1-0.4-0.1c-0.2-0.1,0-0.5,0-0.6c0.1-0.1,0.1-0.2,0.4-0.2
					c0.2,0,0.5,0.2,0.7,0.3l0-0.1c-0.1-0.1-0.2-0.1-0.2-0.2c0,0,0-0.2-0.2-0.3c0,0.1,0,0.1,0,0.2c-0.1,0-0.2-0.1-0.3-0.1
					c0-0.1-0.2-0.2-0.3-0.2c0,0,0.1,0.2,0,0.2c0,0-0.1,0.1-0.1,0.1c-0.1,0-0.1-0.1-0.3,0l0.1,0.2C25.1,17.6,25.1,18.3,25.5,18.3
					L25.5,18.3z"/>
				<path id="XMLID_357_" class="st9" d="M26.1,17.8c0.1,0,0.2,0,0.2,0c0.1,0.1-0.1,0.1-0.1,0.1L26.1,17.8L26.1,17.8z"/>
				<path id="XMLID_356_" class="st9" d="M26.5,17.9c0.1,0,0.2-0.1,0.2-0.1c0.1,0.1,0,0.2-0.1,0.1L26.5,17.9L26.5,17.9z"/>
				<path id="XMLID_355_" class="st9" d="M25.9,17.5c0.1,0,0.2,0,0.2,0.1c0.1,0.1-0.1,0.1-0.1,0.1L25.9,17.5L25.9,17.5z"/>
				<path id="XMLID_354_" class="st9" d="M25.6,17.7c0.1,0,0.2-0.1,0.2-0.1c0.1,0.1,0,0.2-0.1,0.1L25.6,17.7L25.6,17.7z"/>
				<path id="XMLID_353_" class="st9" d="M25.8,18.1C25.9,18,26,18,26,18c0.1,0.1,0,0.1-0.1,0.1L25.8,18.1L25.8,18.1z"/>
				<path id="XMLID_352_" class="st9" d="M23.8,17.9c0,0.1-0.1,0.2-0.2,0.1c0.1,0.1,0.2,0,0.3-0.1c0.1,0,0.2,0.1,0.4,0.1
					c0,0-0.1,0.1-0.1,0.2c0.1,0,0.2-0.1,0.2-0.1c0.1,0.1,0.6-0.1,0.6-0.1c0,0,0,0,0-0.1C24.6,18,24.7,18,24.3,18
					c-0.2,0-0.4-0.2-0.4-0.2c0-0.1,0.1-0.4,0.1-0.5c0.1-0.1,0.3,0,0.3-0.1c0,0,0-0.1,0-0.1c-0.1,0-0.1,0-0.2,0c0-0.1,0-0.1-0.2-0.1
					c0,0,0.1,0.1,0.1,0.1C23.8,17.3,23.7,17.9,23.8,17.9L23.8,17.9z"/>
				<path id="XMLID_351_" class="st9" d="M24.8,17.7c0.1,0,0.2,0,0.2,0c0.1,0.1,0,0.1-0.1,0.1L24.8,17.7L24.8,17.7z"/>
				<path id="XMLID_350_" class="st9" d="M24.9,17.3c0.1,0,0.3,0.2,0.3,0.2c0,0,0,0.1-0.1,0.1c-0.1-0.1-0.2-0.2-0.3-0.2L24.9,17.3
					L24.9,17.3z"/>
				<path id="XMLID_349_" class="st9" d="M24.1,17.6c0.1,0,0.2,0,0.2,0c0.1,0.1,0,0.1-0.1,0.1L24.1,17.6L24.1,17.6z"/>
				<path id="XMLID_348_" class="st9" d="M24.3,17.8c0.1,0,0.1,0,0.2,0c0.1,0.1,0,0.1-0.1,0.1L24.3,17.8L24.3,17.8z"/>
				<path id="XMLID_347_" class="st9" d="M27.3,18.4c0,0.1-0.1,0.1-0.1,0.2c0,0.1,0.1,0,0.1,0L27.3,18.4L27.3,18.4z"/>
				<path id="XMLID_346_" class="st9" d="M27.7,18c-0.1,0-0.2,0.1-0.2,0.1c0,0.2,0.1,0.1,0.1,0.1L27.7,18L27.7,18z"/>
				<path id="XMLID_345_" class="st9" d="M28.2,17.7c-0.1,0-0.2,0-0.3,0c-0.1,0.1,0.1,0.2,0.1,0.1L28.2,17.7L28.2,17.7z"/>
				<path id="XMLID_344_" class="st9" d="M28.2,18c-0.1,0-0.2,0-0.3,0c-0.1,0.1,0,0.2,0.1,0.1L28.2,18L28.2,18z"/>
				<path id="XMLID_343_" class="st9" d="M27.8,17.6c-0.1,0-0.2,0.1-0.2,0.1c0,0.1,0.1,0.1,0.1,0.1L27.8,17.6L27.8,17.6z"/>
				<path id="XMLID_342_" class="st9" d="M28,17.4c-0.1,0-0.1,0-0.1,0C27.8,17.5,27.9,17.5,28,17.4L28,17.4L28,17.4z"/>
				<path id="XMLID_341_" class="st9" d="M27,18.2l-0.1-0.1c-0.1,0.3-0.1,0.6,0,1c0.1,0,0.4,0,0.6,0c0-0.5,0.2-0.5,0.5-0.6
					c0.1,0,0.4,0,0.4,0c0,0-0.1-0.1-0.1-0.1c0-0.1,0.1-0.1,0.2-0.2c0.2-0.1,0.2-0.3,0.2-0.5c0,0,0,0,0,0c0,0-0.1,0-0.2,0.1
					c0,0.2,0,0.3-0.3,0.5c-0.1,0.1-0.5,0.2-0.6,0.2c-0.2,0.1-0.2,0.2-0.2,0.5c0,0-0.4,0-0.4,0C27,18.6,26.9,18.5,27,18.2L27,18.2z"
					/>
			</g>
		</g>
		<path class="st10" d="M25.9,19c-0.1,0-0.1-0.1-0.1-0.2c0-0.1,0.1-0.1,0.1-0.1c0,0,0.1,0,0.1,0.1c0,0,0.1,0,0.1,0
			c0-0.1-0.1-0.2-0.1-0.2c-0.1,0-0.2,0-0.2,0.1c0,0.1,0,0.2,0.1,0.2c0,0.3,0,0.4,0.1,0.6c0,0,0,0,0,0c0,0,0,0.1,0,0.2
			C25.8,20,25.9,20,26,20c0.1,0,0.1-0.1,0.1-0.2c0-0.1-0.1,0-0.1,0c0,0.1,0,0.1-0.1,0.1c0,0-0.1,0-0.1-0.1c0-0.1,0-0.1,0.1-0.2
			C25.9,19.5,25.8,19.2,25.9,19L25.9,19z"/>
		<path class="st10" d="M27.9,18.9c0,0,0.1-0.1,0.1-0.2c0-0.1-0.1-0.1-0.1-0.1c0,0-0.1,0.1-0.1,0.1c0,0.1-0.1,0.1-0.1,0
			c0-0.1,0.1-0.2,0.1-0.2c0.1,0,0.2,0,0.3,0.1c0,0.1,0,0.2-0.1,0.2c0.1,0.3,0.1,0.3,0,0.5c0,0,0,0,0,0c0,0,0.1,0.1,0,0.2
			c0,0.1-0.1,0.1-0.2,0.1c-0.1,0-0.2-0.1-0.1-0.2c0-0.1,0.1,0,0.1,0c0,0.1,0,0.1,0.1,0.1c0,0,0.1,0,0.1-0.1c0-0.1,0-0.1-0.1-0.2
			C28,19.4,28,19.1,27.9,18.9L27.9,18.9z"/>
		<path class="st10" d="M26.8,18.8c-0.2,0-0.4,0-0.6,0c0,0,0-0.1,0-0.1c0.2,0,0.4,0,0.6,0C26.7,18.7,26.8,18.8,26.8,18.8L26.8,18.8z
			"/>
		<path class="st10" d="M26.2,19.8c0.4,0.2,1.4,0.1,1.5,0c0,0,0.1,0,0.1,0.1c-0.2,0.2-1.6,0.2-1.7,0.1C26.2,20,26.2,19.9,26.2,19.8
			L26.2,19.8z"/>
		<path class="st10" d="M26.4,18.9c0.4,0.4,0.2,0.6,0.6,0.9c0,0-0.1,0-0.1,0c-0.4-0.4-0.3-0.6-0.6-1C26.3,18.9,26.4,18.9,26.4,18.9
			L26.4,18.9z"/>
		<path class="st10" d="M26.7,18.9c0.3,0.4,0.2,0.6,0.6,1c0,0-0.1,0-0.1,0c-0.4-0.4-0.3-0.6-0.6-0.9C26.6,18.9,26.6,18.9,26.7,18.9
			L26.7,18.9z"/>
		<path class="st10" d="M27.1,19.2c0.1,0.1,0.1,0.4,0.4,0.7c0,0-0.1,0-0.1,0c-0.3-0.2-0.2-0.4-0.4-0.7
			C27.1,19.1,27.1,19.1,27.1,19.2L27.1,19.2z"/>
		<path class="st11" d="M29,19.5l0,0.1c0.1,0,0.2,0,0.2-0.2c0-0.1,0-0.2-0.2-0.2c-0.1,0-0.2,0-0.2,0.1c0,0.1,0.1,0.3,0.2,0.3
			L29,19.5c0,0-0.1-0.1-0.1-0.1c0-0.1,0.1-0.1,0.1-0.1c0.1,0,0.1,0.1,0.1,0.1C29.1,19.4,29,19.5,29,19.5L29,19.5z"/>
		<path class="st8" d="M29.6,18.6c-0.2,0-0.3-0.1-0.5,0c-0.1,0.1-0.1,0.2,0,0.3c0.2,0.1,0.3,0,0.5-0.1c-0.1,0-0.3,0-0.4,0
			c0,0,0,0.1,0,0.1c0,0-0.1,0-0.1,0C29.1,18.6,29.5,18.7,29.6,18.6C29.6,18.7,29.6,18.6,29.6,18.6L29.6,18.6z"/>
		<path class="st11" d="M28.2,18.9c0.3,0,0.5-0.1,0.8-0.1c0,0,0,0,0,0.1C28.8,18.9,28.5,18.9,28.2,18.9
			C28.2,18.9,28.2,18.9,28.2,18.9L28.2,18.9z"/>
		<path class="st11" d="M28.3,19.6c0.1-0.1,0.3-0.1,0.4-0.2c0,0,0,0,0-0.1c-0.1,0-0.3,0-0.5,0.1C28.3,19.5,28.3,19.6,28.3,19.6
			L28.3,19.6z"/>
		<path class="st11" d="M28.7,19.2c-0.3,0,0.1-0.2,0.3-0.3c0,0,0,0,0-0.1C28.7,18.9,28.2,19.2,28.7,19.2
			C28.7,19.3,28.7,19.2,28.7,19.2L28.7,19.2z"/>
		<path class="st8" d="M24.6,19.8c0.1-0.1,0.3-0.2,0.5-0.1c0.1,0,0.1,0.2,0,0.3c-0.2,0.1-0.3,0.1-0.5,0c0.1,0,0.3-0.1,0.4-0.2
			c0,0,0.1,0.1,0,0.1c0,0,0.1,0,0.1-0.1C25,19.6,24.7,19.8,24.6,19.8C24.6,19.8,24.6,19.8,24.6,19.8L24.6,19.8z"/>
		<path class="st11" d="M24.9,18.5l0,0.1c0.1,0,0.2,0,0.2-0.2c0-0.1,0-0.2-0.1-0.2c-0.1,0-0.2,0-0.2,0.1c0,0.1,0.1,0.3,0.2,0.3
			L24.9,18.5c0,0-0.1-0.1-0.1-0.1c0-0.1,0.1-0.1,0.1-0.1c0,0,0.1,0.1,0.1,0.1C25,18.5,25,18.5,24.9,18.5L24.9,18.5z"/>
		<path class="st11" d="M24.1,19.3l0,0.1c0.1,0,0.2,0,0.2-0.2c0-0.1,0-0.2-0.2-0.2c-0.1,0-0.2,0-0.2,0.1c0,0.1,0.1,0.3,0.2,0.3
			L24.1,19.3c0,0-0.1-0.1-0.1-0.1c0-0.1,0.1-0.1,0.1-0.1c0.1,0,0.1,0.1,0.1,0.1C24.1,19.3,24.1,19.3,24.1,19.3L24.1,19.3z"/>
		<path class="st8" d="M23.3,18.3c0.2,0,0.3,0,0.5,0.1c0.1,0.1,0,0.2-0.1,0.3c-0.2,0-0.3,0-0.4-0.2c0.1,0,0.3,0.1,0.4,0.1
			c0,0,0,0.1,0,0.1c0,0,0.1,0,0.1,0C23.8,18.4,23.4,18.4,23.3,18.3C23.3,18.4,23.3,18.3,23.3,18.3L23.3,18.3z"/>
		<path class="st11" d="M24.9,18.7c0,0.2-0.9-0.3-1-0.2c0,0,0,0.1,0,0.1C24.2,18.6,25,19.1,24.9,18.7C25,18.7,24.9,18.7,24.9,18.7
			L24.9,18.7z"/>
		<path class="st11" d="M25.6,18.9c-0.1-0.1-0.3-0.2-0.4-0.3c0,0,0,0,0,0C25.1,18.8,25.4,19,25.6,18.9C25.6,19,25.5,18.9,25.6,18.9
			L25.6,18.9z"/>
		<path class="st11" d="M25.6,19.9c-0.1-0.1-0.2-0.1-0.4-0.1c0,0,0-0.1,0-0.1c0.1-0.1,0.3-0.1,0.4,0C25.6,19.8,25.6,19.8,25.6,19.9
			L25.6,19.9z"/>
		<path class="st11" d="M24.3,19c0.1-0.1-0.2-0.2-0.4-0.3c0,0,0,0,0-0.1C24.2,18.7,24.6,19,24.3,19C24.3,19.1,24.3,19,24.3,19
			L24.3,19z"/>
		<path class="st11" d="M25.1,19.6c0.3-0.2-0.5-0.3-0.8-0.3c0,0,0-0.1,0-0.1C24.7,19.1,25.6,19.3,25.1,19.6
			C25.2,19.7,25.1,19.6,25.1,19.6L25.1,19.6z"/>
		<path class="st9" d="M26.7,20.2c0.1,0,0.1,0,0.1,0c0,0.2,0,0.3,0.1,0.5c0,0-0.1,0-0.1,0C26.7,20.6,26.7,20.4,26.7,20.2L26.7,20.2z
			"/>
		<path class="st9" d="M26.7,20.8c0,0.1,0.1,0.1,0.1,0.1c-0.2,0.1-0.5,0.3-0.6,0.6c0,0,0-0.1-0.1-0.2C26.2,21.1,26.5,20.9,26.7,20.8
			L26.7,20.8z"/>
		<path class="st10" d="M27.1,20.8c0,0,0,0,0.1,0c-0.1,0.2-0.4,0.4-0.5,0.6c0,0,0-0.1-0.1-0.2C26.7,21.1,26.9,21,27.1,20.8
			L27.1,20.8z"/>
		<path class="st10" d="M28,21.1c0,0-0.1,0-0.1,0.1c-0.2,0-0.4-0.2-0.6-0.2c0-0.1,0-0.1,0.1-0.1C27.5,20.8,27.7,21,28,21.1L28,21.1z
			"/>
		<path class="st9" d="M27.8,20.7C27.8,20.8,27.7,20.7,27.8,20.7c-0.3,0-0.3-0.1-0.5-0.1c0-0.1,0-0.1,0.1-0.1
			C27.6,20.5,27.6,20.6,27.8,20.7L27.8,20.7z"/>
		<path class="st9" d="M26.2,20.8C26.2,20.8,26.3,20.8,26.2,20.8c0.3,0,0.3-0.1,0.5-0.1c0-0.1,0-0.1,0-0.1
			C26.4,20.5,26.4,20.6,26.2,20.8L26.2,20.8z"/>
		<path class="st9" d="M28,20.8C28,20.8,28,20.8,28,20.8c-0.1,0.1-0.1,0-0.2,0.1c0,0,0-0.1,0-0.1C27.8,20.7,27.9,20.7,28,20.8
			L28,20.8z"/>
		<path class="st9" d="M26,20.9C26,20.9,26,20.9,26,20.9c0.1,0.1,0.1,0,0.2,0c0-0.1,0-0.1,0-0.1C26.1,20.8,26.1,20.8,26,20.9
			L26,20.9z"/>
		<path class="st9" d="M27.6,21.3c0,0-0.1,0-0.1,0.1c-0.2,0-0.2-0.2-0.4-0.2c0-0.1,0.1-0.1,0.1-0.1C27.3,21.1,27.3,21.2,27.6,21.3
			L27.6,21.3z"/>
		<path class="st10" d="M27.2,20.2c-0.1,0-0.1,0-0.2,0c0,0.2,0,0.3-0.1,0.5c0,0,0.1,0,0.1,0C27.2,20.6,27.2,20.4,27.2,20.2
			L27.2,20.2z"/>
		<path class="st9" d="M26.6,20.3C26.6,20.3,26.6,20.3,26.6,20.3c-0.2,0.1-0.5,0.3-0.6,0.4c0,0-0.1-0.2-0.2-0.3l0,0.1l-0.2,0
			l-0.3-0.3l0.1,0.3l-0.1,0l-0.4-0.3l0.1,0.2l-0.2,0l-0.4-0.2l0.1,0.2l-0.4,0.1l0.7,0l-0.2,0.3l0.3-0.2l0.3,0L25.1,21l0.3-0.3l0.3,0
			l-0.1,0.3l0.3-0.3l0.1,0l0.1,0.1L25.6,21l-0.1,0l0.1-0.3l-0.1,0l-0.3,0.3l-0.2,0l0-0.1l0.2-0.2l-0.2,0l-0.3,0.2l-0.2,0l0.2-0.3
			l-0.3,0l0,0.1l-0.4,0l0-0.1l0.3-0.2l-0.1-0.1l0.2-0.1l0.4,0.1l-0.2-0.3l0.2,0l0.3,0.2l-0.1-0.3l0.2,0l0.3,0.3l0.1-0.1l0.1,0
			l0.2,0.1C26.1,20.3,26.4,20.3,26.6,20.3L26.6,20.3z"/>
		<polygon class="st9" points="24.2,20.2 23.8,19.9 23.7,19.6 23.6,19.6 23.6,19.7 23.5,19.6 23.5,19.3 23.2,19.1 23.2,19.4 
			23.1,19.3 23.1,18.9 22.9,18.8 22.9,19.1 22.7,18.8 22.6,18.9 22.7,19.1 22.7,19.1 22.4,19.2 22.4,19.2 22.5,19.3 22.8,19.5 
			22.4,19.5 22.5,19.6 23,19.7 23,19.8 22.6,19.9 22.9,20.1 23.3,20 23.3,20.2 23.9,20.1 23.8,20 23.4,20.1 23.4,19.9 23,20 
			22.9,19.9 23.2,19.9 23.2,19.8 23,19.6 22.7,19.6 23,19.6 22.9,19.4 22.6,19.2 22.8,19.2 22.8,19.1 22.9,19.3 23,19 23,19.4 
			23.3,19.7 23.3,19.3 23.4,19.4 23.4,19.8 23.6,19.9 23.7,19.8 23.7,20 24.1,20.3 24.2,20.2 		"/>
		<path class="st10" d="M24.2,20.2c-0.1-0.1-0.1-0.2,0-0.3c0,0,0,0,0-0.1c-0.1,0-0.1,0-0.2,0.1c0,0-0.1,0.1,0,0.1
			C24.1,20,24.1,20.2,24.2,20.2L24.2,20.2z"/>
		<path class="st10" d="M24,20.4c-0.1,0-0.2,0-0.3,0.1c0,0,0,0-0.1,0c0-0.1-0.1-0.1-0.1-0.2c0-0.1,0-0.1,0.1-0.1
			C23.8,20.3,24,20.3,24,20.4L24,20.4z"/>
		<path class="st10" d="M24,19.8C24.1,19.8,24.1,19.7,24,19.8c0.1-0.1,0-0.2,0-0.2C24,19.6,23.9,19.6,24,19.8
			C23.9,19.7,24,19.8,24,19.8L24,19.8z"/>
		<path class="st10" d="M23.4,20.5c0,0,0-0.1,0-0.1c0,0,0.1,0,0.1,0c0,0,0,0.1,0,0.1C23.5,20.5,23.5,20.5,23.4,20.5L23.4,20.5z"/>
		<path class="st10" d="M22.5,18.9c0-0.1,0-0.2,0.1-0.3c0,0,0,0,0-0.1c-0.1,0-0.1,0-0.3,0c0,0-0.1,0.1,0,0.1
			C22.4,18.7,22.4,18.9,22.5,18.9L22.5,18.9z"/>
		<path class="st10" d="M22.3,19.1c-0.1,0-0.2-0.1-0.3,0c0,0,0,0-0.1,0c0-0.1,0-0.1,0-0.3c0,0,0.1-0.1,0.1,0
			C22.1,19,22.3,19,22.3,19.1L22.3,19.1z"/>
		<path class="st10" d="M22.5,18.3c0,0-0.1,0-0.1,0.1c0,0,0,0.1,0.1,0.1c0,0,0.1,0,0.1-0.1C22.5,18.4,22.5,18.3,22.5,18.3L22.5,18.3
			z"/>
		<path class="st10" d="M21.7,19c0,0,0-0.1,0.1-0.1c0.1,0,0.1,0,0.1,0.1c0,0,0,0.1-0.1,0.1C21.8,19.1,21.7,19.1,21.7,19L21.7,19z"/>
		<polygon class="st9" points="22.5,19.1 22.5,19 22.4,19 22.2,18.7 22.2,18.1 22.1,18 22,18.2 22,17.6 21.8,17.6 21.7,17.9 
			21.6,17.9 21.6,17.5 21.5,17.5 21.4,17.7 21.3,17.5 21.2,17.5 21.2,17.6 21,17.6 21.2,17.8 20.9,17.8 21,18 21.4,18.1 21.5,18.1 
			21.1,18.1 21.1,18.3 21.4,18.4 21.6,18.4 21.7,18.5 21.5,18.5 21.5,18.6 21.7,18.7 22.2,18.9 22.1,18.7 21.7,18.6 21.9,18.6 
			21.7,18.4 21.3,18.2 21.7,18.2 21.5,18 21.1,17.9 21.4,17.9 21.2,17.7 21.3,17.8 21.3,17.7 21.4,17.8 21.5,17.7 21.5,18 
			21.8,18.1 21.9,17.7 21.9,18.2 21.9,18.4 22.1,18.2 22,18.7 22.2,18.9 22.3,19.1 22.5,19.1 		"/>
		<path class="st10" d="M21.4,17.4c0-0.1,0.1-0.2,0.2-0.2c0,0,0,0,0-0.1c-0.1,0-0.1-0.1-0.2-0.1c-0.1,0-0.1,0-0.1,0.1
			C21.4,17.2,21.3,17.3,21.4,17.4L21.4,17.4z"/>
		<path class="st10" d="M21.1,17.5c-0.1-0.1-0.2-0.1-0.3-0.1c0,0-0.1,0-0.1,0c0-0.1,0-0.1,0.1-0.2c0,0,0.1,0,0.1,0
			C20.9,17.3,21.1,17.4,21.1,17.5L21.1,17.5z"/>
		<path class="st10" d="M21.6,16.8c0,0-0.1,0-0.1,0c0,0,0,0.1,0,0.1c0,0,0.1,0,0.1,0C21.6,16.9,21.6,16.8,21.6,16.8L21.6,16.8z"/>
		<path class="st10" d="M20.6,17.1c0,0,0.1-0.1,0.1-0.1c0,0,0.1,0.1,0.1,0.1c0,0-0.1,0.1-0.1,0.1C20.6,17.2,20.6,17.2,20.6,17.1
			L20.6,17.1z"/>
		<polygon class="st9" points="21.3,17.5 21.1,17 21.2,16.9 21.2,16.8 21.1,16.8 21.3,16.6 21.3,16.4 21,16.5 21.1,16.4 21.3,16.1 
			21.4,15.9 21.1,16.1 21.1,16 21.2,15.8 21.2,15.6 21.1,15.7 21,15.8 20.9,15.6 20.8,15.7 20.8,16.1 20.6,15.9 20.5,16.2 
			20.7,16.5 20.4,16.4 20.5,16.7 20.6,16.7 20.8,16.8 20.8,16.9 21,17.1 21,17 20.9,16.9 20.9,16.8 20.6,16.6 20.8,16.6 20.8,16.5 
			20.6,16.1 20.8,16.3 20.9,15.8 20.9,15.9 21.1,15.8 21,16 20.9,16.2 21.2,16.1 20.9,16.4 21,16.6 21.2,16.5 21,16.7 21,16.9 
			21.1,16.9 21,17 21,17.1 21.2,17.5 21.3,17.5 		"/>
		<path class="st9" d="M27.3,20.3c0.2,0,0.6,0.1,0.7,0.2c0.2,0.1,0.7-0.4,1.5-0.5l0,0c0,0,0,0,0.1,0c-0.4,0-0.7,0.3-1.3,0.5
			c0,0,0,0,0,0c0.5,0.1,0.7-0.2,1.2-0.4c0,0,0.1,0,0.2,0c-0.2,0.2-0.8,0.6-1.4,0.6c-0.2,0-0.8-0.3-1.1-0.3
			C27.3,20.3,27.3,20.3,27.3,20.3L27.3,20.3z"/>
		<path class="st9" d="M29.3,19.8c0,0-0.1,0-0.1,0c-0.2,0-0.3,0.1-0.5,0.2c-0.2,0.1-0.4,0.2-0.6,0.4c-0.1,0-0.1,0-0.2,0
			c0,0,0.1,0.1,0.1,0.1c0.1,0,0.2,0.1,0.2,0c0.4-0.2,0.8-0.4,1.2-0.5C29.3,19.9,29.3,19.9,29.3,19.8c-0.1,0.1-0.3,0.1-0.9,0.4
			c0,0,0,0,0,0c0.2-0.1,0.2-0.2,0.3-0.2C28.9,19.9,29.1,19.8,29.3,19.8L29.3,19.8z"/>
		<path class="st9" d="M29.6,20.4c0,0-0.1-0.1-0.1-0.1c-0.2,0-0.3,0.2-0.8,0.3c0,0-0.1,0-0.2,0.1c-0.1,0-0.2,0-0.2,0
			c0,0,0,0,0.1,0.1c0.1,0,0.1,0,0.1,0c0.4,0.1,0.9-0.3,1.3-0.4c0,0-0.1,0-0.1,0c-0.3,0-0.8,0.4-1,0.3c0,0-0.1,0,0,0
			C29,20.7,29.3,20.5,29.6,20.4L29.6,20.4z"/>
		<path class="st10" d="M30.1,20c0,0-0.1,0-0.1-0.1c0,0,0,0.1,0,0.1c0,0,0.1,0,0.1,0.1c0,0.1,0.1,0.1,0.1,0.1c0.1,0,0.1,0,0.1-0.1
			C30.3,20,30.2,20,30.1,20C30.1,20,30.1,20,30.1,20L30.1,20z"/>
		<path class="st10" d="M29.6,19.5c0,0.1,0,0.1,0,0.2c0,0,0,0.1,0,0.1c0,0,0.1-0.1,0.1-0.1c0,0,0-0.1,0-0.1c0.1,0,0.1-0.1,0-0.2
			c0,0-0.1-0.1-0.1-0.1C29.6,19.4,29.6,19.4,29.6,19.5C29.6,19.5,29.6,19.5,29.6,19.5L29.6,19.5z"/>
		<path class="st9" d="M29.7,19.9c0.1-0.2,0.1-0.2,0.3-0.3c0.5-0.7,0.7-0.7,1.1-1.1c0,0.1,0,0.2-0.1,0.2c-0.2,0.3-0.3,0.2-0.8,0.8
			c0,0.1,0,0,0.1,0c0.4-0.4,0.8-0.6,0.9-0.9c0,0.1,0,0.2-0.1,0.4c-0.2,0.3-0.4,0.4-0.7,0.6c-0.1,0.1-0.6,0.2-0.6,0.4
			C29.8,20,29.8,19.9,29.7,19.9L29.7,19.9z"/>
		<path class="st9" d="M30.7,18.4c-0.2,0.3-0.3,0.4-0.4,0.4c-0.3,0.2-0.2,0.5-0.2,0.7c0.1,0,0-0.1,0.1-0.1c0.3-0.4,0.2-0.3,0.5-0.5
			c0,0,0.1-0.2,0-0.2c-0.4,0.5-0.5,0.5-0.5,0.6c0,0-0.1,0.1,0,0c0-0.3,0.2-0.3,0.2-0.3c0.2-0.1,0.2-0.2,0.3-0.3
			C30.7,18.5,30.7,18.4,30.7,18.4L30.7,18.4z"/>
		<path class="st9" d="M31.3,18.9c-0.2,0.3-0.7,0.7-0.8,0.7c0,0,0,0-0.1,0.1c-0.1,0-0.2,0.1-0.3,0.1c0,0,0.1,0,0.2,0
			c0.1,0,0.1,0,0.1,0c0.2,0,0.3-0.1,0.5-0.2c0.1-0.1,0.3-0.3,0.4-0.4c0,0,0-0.1,0-0.2c-0.2,0.4-0.5,0.5-0.7,0.7c0,0-0.1,0,0-0.1
			c0.4-0.2,0.4-0.3,0.6-0.6C31.3,19,31.3,18.9,31.3,18.9L31.3,18.9z"/>
		<path class="st10" d="M31.7,18.4c0,0-0.1,0-0.2,0c0,0,0,0.1,0,0.1c0.1,0,0.1,0,0.1,0c0,0.1,0.1,0.1,0.2,0c0.1,0,0.1-0.1,0.1-0.1
			C31.9,18.4,31.8,18.4,31.7,18.4C31.7,18.4,31.7,18.4,31.7,18.4L31.7,18.4z"/>
		<path class="st10" d="M31,18.2c0,0.1,0,0.1,0.1,0.1c0,0,0,0,0,0c0,0,0-0.1,0.1-0.1c0,0,0-0.1-0.1-0.1c0,0,0-0.1,0-0.2
			c0,0-0.1,0-0.2,0C30.9,18,30.9,18.1,31,18.2C31,18.1,31,18.2,31,18.2L31,18.2z"/>
		<path class="st9" d="M31.3,18.5c0-0.2,0.1-0.3,0.2-0.4c0.1-0.8,0.5-1.3,0.5-1.3c-0.2,0.4,0,0.2-0.4,1c-0.1,0.2,0.1,0.1,0.1,0.1
			c0.2-0.2,0.3-0.8,0.4-1.2c0.1,0.1,0.1,0.2,0,0.4c-0.1,0.3-0.1,0.7-0.4,0.9c-0.1,0.2-0.5,0.4-0.4,0.6
			C31.3,18.6,31.3,18.5,31.3,18.5L31.3,18.5z"/>
		<path class="st9" d="M31.6,16.8c-0.2,0.4-0.5,0.8-0.2,1.2c0.1-0.1,0-0.1,0-0.2c0.2-0.4,0.3-1,0.3-0.9c-0.1,0.2-0.2,0.5-0.4,0.8
			c0,0-0.1,0.1-0.1,0C31.3,17.3,31.5,17.1,31.6,16.8L31.6,16.8z"/>
		<path class="st9" d="M32.4,17c-0.3,0.1-0.2,0.4-0.5,0.9c-0.1,0.1-0.2,0.2-0.2,0.3c0,0,0.1,0,0.2,0c0.1,0,0.2-0.1,0.2-0.1
			C32.2,17.8,32.5,17.3,32.4,17c-0.1,0.5-0.3,0.8-0.3,0.9c-0.2,0.1-0.2,0.2-0.1,0C32.3,17.5,32.2,17.2,32.4,17L32.4,17z"/>
		<path class="st10" d="M32.4,16.5c-0.1,0-0.1,0-0.1,0.1c0,0,0,0.1,0,0.1c0,0,0.1,0,0.1-0.1c0,0.1,0.1,0,0.2,0s0-0.1,0-0.2
			C32.6,16.4,32.5,16.4,32.4,16.5C32.4,16.4,32.4,16.4,32.4,16.5L32.4,16.5z"/>
		<path class="st10" d="M31.8,16.4c0,0,0.1,0.1,0.1,0.1c0,0,0,0,0.1,0c0,0,0-0.1,0-0.1C31.9,16.4,31.9,16.4,31.8,16.4
			c0.1-0.1,0-0.2,0-0.2c-0.1,0-0.1,0-0.1,0.1C31.6,16.3,31.6,16.4,31.8,16.4C31.7,16.4,31.7,16.4,31.8,16.4L31.8,16.4z"/>
		<path class="st9" d="M32,16.6c0.1-0.2,0-0.3,0.1-0.4c-0.2-0.7,0-1.3,0.1-1.3c0.1,0.4-0.2,0.6-0.1,1c0,0.2,0.1,0.1,0.1,0.1
			c0-1,0.1-0.4,0-1c0.2,0,0.1,1,0,1.1C32.3,16.2,32.1,16.2,32,16.6C32.1,16.6,32.1,16.6,32,16.6L32,16.6z"/>
		<path class="st9" d="M31.7,14.9c0,0.8-0.1,0.7,0.3,1.2c0-0.1,0-0.1,0-0.2c-0.1-0.3,0-0.6-0.1-0.7c0,0.2,0,0.3,0,0.6
			c0,0-0.1,0.1-0.1,0C31.7,15.4,31.8,15.3,31.7,14.9L31.7,14.9z"/>
		<path class="st9" d="M32.6,15.1c-0.1,0.2,0,0.4-0.1,0.9c0,0-0.2,0.3-0.2,0.4c0-0.1,0.1-0.2,0.2-0.2c0.1,0,0.2-0.1,0.2-0.1
			C32.8,15.8,32.8,15.2,32.6,15.1c0.1,0.6,0,0.8,0,0.9c-0.1,0.1-0.1,0.1-0.1,0C32.7,15.5,32.6,15.3,32.6,15.1L32.6,15.1z"/>
	</g>
</g>
<g>
	<g>
		<rect x="17.2" class="st12" width="17.3" height="31.9"/>
		<path class="st12" d="M25.9,15.9"/>
	</g>
	<g>
		<rect x="0" class="st13" width="17.3" height="31.9"/>
		<path class="st14" d="M8.6,15.9"/>
	</g>
	<g>
		<rect x="34.5" class="st13" width="17.3" height="31.9"/>
		<path class="st14" d="M43.1,15.9"/>
	</g>
	<g>
		<g>
			<path class="st15" d="M26.2,9.8c0.3,0.1,0.8,0.1,1.1-0.1c-0.1-0.1-0.2-0.2-0.2-0.2c0.3,0,0.5-0.2,0.6-0.4l-0.2-0.1
				C27.7,9,28,8.7,28,8.6h-0.2c0.2-0.2,0.3-0.5,0.3-0.8L28,7.9c0.1-0.3,0-0.6,0-0.8c0,0-0.2,0.2-0.2,0.3c0-0.2-0.1-0.5-0.2-0.7
				l-0.1,0.2c-0.1-0.2-0.3-0.3-0.4-0.4c0,0.1,0,0.2,0,0.2c-0.1-0.2-0.3-0.3-0.4-0.3c0,0.1,0.1,0.4,0.1,0.5c-0.2-0.1-0.2,0-0.3,0
				c0.1,0.2,0.2,0.3,0.4,0.4c-0.1,0.2,0,0.8,0.1,1c-0.1,0.1-0.1,0.2-0.1,0.4c-0.2,0-0.5,0.1-0.6,0.6C26.2,9.5,26.3,9.6,26.2,9.8z"/>
			<path class="st16" d="M26.2,9.8c0.2-0.2,0.4-0.4,1-0.3"/>
			<path class="st16" d="M26.8,9.5c0.1-0.2,0.3-0.5,0.8-0.4"/>
			<path class="st16" d="M27.1,9.2c0.1-0.3,0.4-0.6,0.7-0.6"/>
			<path class="st16" d="M28,7.9c-0.2,0.1-0.5,0.5-0.6,0.8"/>
			<path class="st16" d="M27.7,8.2c0-0.3-0.2-0.8-0.5-0.9c0-0.2-0.2-0.4-0.5-0.4"/>
			<path class="st16" d="M27.5,6.9c0,0.1,0,0.4-0.1,0.5"/>
			<path class="st16" d="M27.8,7.4c0,0.2,0,0.3-0.1,0.5"/>
			<path class="st16" d="M27.5,8.6c-0.2,0-0.4-0.2-0.5-0.3"/>
			<path class="st16" d="M27.3,7.3c-0.2,0-0.3,0-0.4,0c0,0.2,0.2,0.4,0.4,0.6l0.1-0.2c0.2,0.2,0.3,0.3,0.3,0.6"/>
			<line class="st16" x1="27.6" y1="7.8" x2="27.5" y2="8"/>
			<path class="st16" d="M27.2,7.9c-0.1,0.2,0,0.5,0,0.7"/>
			<path class="st16" d="M27.2,9.1c-0.2,0-0.6-0.2-0.8,0.5"/>
			<path class="st16" d="M27.4,8.6c-0.2,0-0.4,0.2-0.4,0.4"/>
			<path class="st16" d="M26.9,8.7c0,0.1,0.1,0.2,0.1,0.2"/>
			<path class="st16" d="M26.8,8.7c-0.1,0.1-0.1,0.3,0,0.4"/>
			<path class="st17" d="M27.4,10c-0.2,0-0.5,0.1-0.6-0.1c-0.1-0.1-0.5-0.2-0.7-0.2c-0.2,0.1-0.3,0.1-0.3,0.1l0,0.2
				c0.2-0.1,0.4-0.1,0.5,0.1c0.2,0.2,0.6,0.3,1,0.2L27.4,10z"/>
			<path class="st16" d="M27.1,6.7c0,0.1,0,0.3,0,0.3"/>
			<path class="st18" d="M25.9,19.5c0.3-0.5,1-0.8,1.9-0.9c0.9-0.1,1.5-0.4,2-1.3c0.5-0.9-0.2-2.3-0.6-3.5c-0.5-1.2,0.3-2.4,0.7-2.9
				l-1-1.1c-1.4,1.1-2.6,0.5-2.9,0.1c-0.3,0.3-1.5,1-2.9-0.1l-1,1.1c0.5,0.5,1.2,1.7,0.7,2.9c-0.5,1.2-1.1,2.6-0.6,3.5
				c0.5,0.9,1.1,1.2,2,1.3C24.9,18.7,25.7,19,25.9,19.5z"/>
			<path class="st19" d="M29.2,14.8c0,0.1,0.1,0.2,0.1,0.4c0.3,0.8,0.5,1.7-0.1,2.3c-0.6,0.7-1.4,0.8-1.7,0.8
				c-0.3,0.1-1.2,0.2-1.6,0.7c-0.4-0.5-1.3-0.6-1.6-0.7c-0.3-0.1-1.1-0.2-1.7-0.8c-0.6-0.7-0.4-1.6-0.1-2.3c0.1-0.1,0.1-0.3,0.1-0.4
				H29.2z"/>
			<path class="st20" d="M25.8,10.5c-0.4,0.2-1.5,0.6-2.7-0.3l-0.6,0.6c0.3,0.5,0.8,1.4,0.7,2.3c-0.1,0.6-0.2,0.9-0.3,1.2h2.9V10.5z
				"/>
			<path class="st21" d="M26.1,10.5c0.4,0.2,1.5,0.6,2.7-0.3l0.6,0.6c-0.3,0.5-0.8,1.4-0.7,2.3c0.1,0.6,0.2,0.9,0.3,1.2h-2.9V10.5z"
				/>
			<path class="st22" d="M23.7,13c0,0.1,0,0.3,0,0.4c0,0.1-0.1,0.3-0.2,0.3c-0.1,0.1-0.2,0.1-0.2,0.3l0,0.4h0.1l0-0.4
				c0.1-0.1,0.2-0.2,0.2-0.3c0,0.1-0.1,0.2-0.1,0.3c0,0.1,0.2,0.3,0.2,0.3l0.1,0l-0.1-0.3c0-0.1,0-0.2,0-0.2c0.1,0,0.2-0.3,0.2-0.4
				c0.1,0,0.3,0,0.3,0c0.1,0,0.4,0.1,0.5,0l0,0.8H25l0.1-0.6l0.1,0.1l0.1,0.5l0.1,0l-0.1-0.6l-0.1-0.4c0.1,0,0.2-0.3,0.1-0.6
				c0.1,0,0.1-0.1,0-0.3c-0.1-0.2-0.3-0.4-0.1-0.6c0,0,0.1,0,0.2,0c0.1,0,0.1-0.1,0-0.2c-0.1,0-0.1,0-0.1,0c0-0.1,0-0.1-0.1-0.2
				c-0.1,0-0.2,0-0.2-0.1c0-0.1-0.1,0-0.1,0c0,0,0,0.1-0.1,0.1c0,0-0.2,0,0,0.1c0,0.1,0,0.2,0,0.3c0,0.1,0.2,0.6,0.1,0.7
				c-0.1,0.1-0.3,0.2-0.5,0.1c-0.2-0.1-0.5-0.1-0.7,0c-0.2,0.1-0.3,0.2-0.3,0.5C23.4,13.1,23.5,13,23.7,13z"/>
			<line class="st16" x1="24.1" y1="13.5" x2="24.2" y2="13.2"/>
			<line class="st16" x1="24.9" y1="13.3" x2="25.1" y2="13.7"/>
			<line class="st16" x1="24.8" y1="13.5" x2="25" y2="13.5"/>
			<polygon class="st23" points="27.6,14.1 27.6,11.6 27.8,11.6 27.8,14.1 			"/>
			<path class="st24" d="M26.1,14.4c0.1-0.1,1.4-0.3,1.6-0.3c0.2,0,1,0.1,1.4,0.3H26.1z"/>
			<path class="st24" d="M27.6,13.2c-0.1,0-0.2-0.1-0.3-0.1c-0.1,0-0.3,0-0.3,0.1c-0.1,0.1-0.2,0-0.2-0.1c0.1-0.1,0.1-0.2,0-0.3
				c-0.1-0.1-0.2-0.1-0.2,0c0,0-0.1,0.1-0.1,0.1c0,0-0.2,0-0.1-0.2c0.1-0.2,0.1-0.2,0.1-0.3c0,0,0-0.1-0.1,0c-0.1,0-0.1-0.1-0.1-0.2
				c0.1,0,0.1-0.2,0-0.3c0-0.1,0.1-0.2,0.1-0.1c0.1,0.1,0.1,0.2,0.1,0.2c0.1,0,0.2,0.1,0.1,0.2c-0.1,0.1,0,0.1,0,0.2
				c0,0.1,0.1,0.1,0.2,0.1c0-0.1,0.1-0.1,0.2,0c0,0.1,0,0.2,0.1,0.2c0.1,0,0.1,0,0.1-0.1c0-0.1,0.1-0.1,0.2,0c0,0.1,0.1,0.2,0.1,0.3
				c0.1,0,0.1,0,0.1-0.1L27.6,13.2z"/>
			<path class="st24" d="M27.6,12.7c0-0.1-0.2-0.3-0.2-0.3c-0.1-0.1-0.2-0.1-0.2-0.1c-0.1,0-0.2-0.1-0.1-0.2c0.1,0,0.1-0.1,0-0.1
				c-0.1,0-0.2,0-0.2,0c0,0,0-0.1,0-0.1c0.1,0,0.1-0.1,0.1-0.2c0-0.1,0-0.1-0.1-0.1c-0.1,0-0.2,0-0.2-0.1c0-0.1,0.1-0.1,0.1-0.1
				c0.1,0,0.1,0,0-0.1c0-0.1,0.1-0.2,0.1-0.1c0.1,0.1,0.1,0.1,0.2,0.1c0.1,0,0.2,0.1,0.1,0.2c-0.1,0.1-0.1,0.2,0,0.2
				c0,0.1,0.1,0.1,0.1,0c0.1-0.1,0.2,0,0.1,0.1c-0.1,0.1,0,0.3,0,0.4c0.1,0.1,0.1,0.1,0.1,0.1V12.7z"/>
			<path class="st24" d="M27.6,11.8c0-0.1-0.1-0.2-0.2-0.3c-0.1-0.1-0.1-0.2-0.1-0.3c0-0.1,0.1-0.1,0.2-0.1c0,0,0.1,0,0.1-0.1
				c0-0.1,0-0.2,0.1-0.2c0.1,0,0.1,0,0.1,0.2c0,0.1,0,0.1,0.1,0.1c0.1,0,0.2,0.1,0.1,0.2c0,0.1-0.2,0.4-0.2,0.5
				C27.8,11.9,27.7,12,27.6,11.8z"/>
			<path class="st24" d="M27.8,12.5c0-0.1,0.1-0.3,0.1-0.4c0-0.1-0.1-0.3,0-0.3c0.1,0,0.2,0.1,0.2-0.1c0-0.2,0-0.3,0-0.4
				c0-0.1,0.1-0.1,0.1,0s0.1,0.2,0.2,0c0-0.1,0.1-0.3,0.2-0.3c0.1,0,0.2,0,0.1,0.1c0,0.1-0.1,0.2-0.1,0.2c0,0.1,0,0.2,0,0.2
				c0.1,0,0.1,0.2,0,0.2c-0.1,0-0.2,0.1-0.1,0.2c0.1,0,0.1,0.1,0,0.2c-0.1,0.1-0.2,0.2-0.3,0.2c-0.1,0.1-0.1,0.3-0.3,0.4V12.5z"/>
			<path class="st24" d="M27.8,13.1c0.1,0,0.1-0.1,0.1-0.2c0-0.1,0-0.2,0-0.2c0.1,0,0.1,0,0.1,0s0.1,0,0.1,0c0-0.1,0.1-0.2,0-0.2
				c0-0.1,0.1-0.1,0.1,0c0,0.1,0.1,0,0.2-0.1c0-0.1,0.1-0.2,0.1-0.1c0,0.1,0,0.2-0.1,0.3c0,0.1,0,0.2,0,0.2c0,0.1,0,0.2-0.1,0.1
				c-0.1,0-0.1,0.1-0.1,0.2c0.1,0.1,0,0.1,0,0.2c-0.1,0-0.1,0-0.1-0.1c0-0.1-0.1-0.1-0.1,0c0,0.1-0.1,0.2-0.1,0.2
				c0.1,0.1,0.1,0.1,0,0.1c-0.1,0-0.1,0-0.1-0.1c0-0.1-0.1-0.1-0.2,0L27.8,13.1z"/>
			<path class="st22" d="M24.5,15.1C24.4,15.1,24,15,24,15.4c-0.1-0.1-0.6,0-0.5,0.3c-0.2,0-0.3,0.1-0.3,0.2c0,0.1,0,0.2,0.2,0.3
				c-0.1,0.1-0.1,0.2-0.1,0.3c-0.2,0-0.2,0.3-0.2,0.4c-0.1,0-0.1,0.2,0,0.3c-0.1,0-0.1,0.2-0.1,0.3c0.1,0.1,0.2,0,0.2,0
				c0,0.1,0,0.3,0.2,0.3c0,0.1,0.2,0.3,0.4,0.2c0.1,0,0.2,0,0.3-0.1c0,0.1,0.4,0.3,0.5,0.1c0.1,0.1,0.3,0.2,0.5,0
				c0,0.1,0.2,0.2,0.3,0.1c0.1,0.1,0.3,0.1,0.3,0C25.8,18,26,18,26,18c0,0.1,0.2,0.1,0.3,0c0.1,0.1,0.4,0.2,0.5,0
				c0-0.1-0.1-0.3-0.4-0.2c0-0.1-0.1-0.2-0.4-0.2c0,0-0.1,0-0.1,0c0-0.1-0.1-0.3-0.3-0.2c0-0.1,0-0.3-0.3-0.3c0.1,0,0.1-0.2,0.1-0.3
				c0.1,0,0.2-0.2,0.1-0.3c0.1,0,0.2-0.1,0.2-0.2c0.1,0,0.2,0.1,0.2,0c0,0.1,0.2,0.1,0.2,0.1c0,0.1,0.1,0.3,0.3,0.3
				c0,0.1,0.2,0.4,0.4,0.4c0,0.1,0.3,0.3,0.4,0.2c0.1,0.1,0.3,0.3,0.5,0.1c0,0.1,0.3,0.1,0.3,0c0.1,0.1,0.3,0,0.3-0.1
				c0.1,0,0.3-0.1,0.3-0.3c0.1,0,0.4-0.2,0.3-0.4c0.1-0.1,0.1-0.3-0.1-0.4c0.1-0.1,0-0.2-0.1-0.3c0-0.1,0-0.3-0.2-0.3
				c0-0.1-0.2-0.3-0.3-0.2c-0.1-0.1-0.2-0.1-0.4-0.1c-0.1,0-0.2,0-0.3,0c-0.1,0-0.2,0.2-0.1,0.3c0,0.1,0.1,0.2,0.1,0.2
				c0.1,0,0.1-0.1,0.1-0.2c0.1,0,0.1-0.1,0.1-0.1c0.1,0,0.2,0,0.2-0.1c0.1,0.1,0.2,0.1,0.3,0.1c0,0.1,0.1,0.2,0.1,0.2
				c0,0.1,0,0.3,0.1,0.3c-0.1,0.1-0.1,0.2,0,0.3c-0.1,0-0.2,0.1-0.1,0.2c-0.1,0-0.2,0.1-0.2,0.1c-0.1-0.1-0.2,0-0.2,0.1
				c-0.1-0.1-0.2-0.1-0.2,0c0-0.1-0.2-0.1-0.3-0.1c-0.1-0.1-0.2-0.2-0.3-0.2c0-0.1-0.2-0.3-0.3-0.2c0-0.1-0.2-0.3-0.3-0.3
				c0-0.1-0.2-0.3-0.3-0.3c0-0.1-0.2-0.4-0.5-0.4c0-0.1-0.3-0.4-0.6-0.2C25,15,24.7,14.9,24.5,15.1z"/>
			<path class="st22" d="M23.3,16.2c0.2,0,1.1-0.1,2.1,0.7"/>
			<path class="st22" d="M25.5,16.5c-0.6-0.5-1.9-0.8-2.1-0.8"/>
			<path class="st22" d="M24,15.4c0.2,0.1,1.2,0.7,1.5,1.1"/>
			<path class="st22" d="M24.5,15.1c0.2,0.1,0.9,1,1.1,1.3"/>
			<path class="st22" d="M25.1,15.1c0.1,0.2,0.5,0.9,0.6,1.2"/>
			<path class="st22" d="M25.8,15.3c0.1,0.2,0.2,0.4,0.2,0.9"/>
			<path class="st22" d="M26.3,15.7c0.1,0.2,0,0.5-0.1,0.7"/>
			<path class="st22" d="M26.6,16c0.1,0.2-0.1,0.6-0.1,0.7"/>
			<path class="st22" d="M26.9,16.3c0,0.1-0.1,0.6,0,0.8"/>
			<path class="st22" d="M27.2,16.5c0,0.2,0,0.6,0,0.7"/>
			<path class="st22" d="M27.5,16.7c0,0.2,0.1,0.5,0.2,0.6"/>
			<path class="st22" d="M27.8,16.8c0,0.1,0.1,0.4,0.2,0.6"/>
			<path class="st22" d="M28,16.8c0.1,0.1,0.3,0.4,0.3,0.5"/>
			<path class="st22" d="M28.3,16.7c0.1,0.1,0.3,0.3,0.4,0.3"/>
			<path class="st22" d="M28.4,16.6c0.1,0,0.4,0.1,0.5,0"/>
			<path class="st22" d="M28.5,16.4c0.1,0,0.3-0.1,0.3-0.2"/>
			<path class="st22" d="M28.5,16.1c0.1,0,0.2-0.1,0.2-0.2"/>
			<path class="st22" d="M28.5,15.8c0.1,0,0.2-0.1,0.1-0.2"/>
			<path class="st22" d="M28.3,15.4c0.1,0.1,0.1,0.2,0,0.2"/>
			<path class="st22" d="M27.9,15.3c0.1,0.1,0.1,0.1,0.1,0.2"/>
			<path class="st22" d="M27.6,15.4c0.1,0,0.2,0.1,0.2,0.2"/>
			<path class="st22" d="M27.5,15.7c0.1,0,0.2,0,0.2,0"/>
			<path class="st22" d="M23.2,16.5c0.1,0,0.4,0,0.4-0.3"/>
			<path class="st22" d="M23.5,16.4c0.1,0.1,0.3,0.2,0.5,0.1c0.1,0,0.1-0.2,0.1-0.2"/>
			<path class="st22" d="M24,16.4c0,0.1,0.1,0.2,0.2,0.2c0.1,0,0.4-0.1,0.4-0.2"/>
			<path class="st22" d="M24.5,16.5c0,0.1,0.2,0.4,0.5,0.1"/>
			<path class="st16" d="M23.3,16.5c0,0.1,0,0.4,0.1,0.5c0.2,0.1,0.4-0.1,0.4-0.4"/>
			<path class="st22" d="M23.8,16.7c0,0.2,0.4,0.3,0.5-0.1"/>
			<path class="st22" d="M23,16.8c0,0.1,0.3,0.1,0.3,0"/>
			<path class="st22" d="M24.2,16.8c0.1,0.1,0.3,0.3,0.5-0.1"/>
			<path class="st22" d="M23,17.1c0,0,0.1,0.1,0.2,0"/>
			<path class="st22" d="M23.2,16.9c-0.1,0.1-0.1,0.3,0,0.4c0.1,0.1,0.3,0.1,0.4-0.1"/>
			<path class="st22" d="M23.7,16.9c0,0.1,0,0.3,0.2,0.3c0.2,0.1,0.5-0.1,0.5-0.4"/>
			<path class="st22" d="M23.6,17.3c0,0.1,0,0.3,0.2,0.4"/>
			<path class="st22" d="M23.4,17.6c0.1,0,0.2-0.1,0.1-0.2"/>
			<path class="st22" d="M24.5,16.9c0.1,0.1,0.2,0.3,0.4,0.2c0.2-0.1,0.2-0.3,0.1-0.4"/>
			<path class="st22" d="M24.1,17.3c0.1,0.1,0.3,0.2,0.4,0.2c0.1,0,0.2-0.2,0.2-0.3"/>
			<path class="st22" d="M24.1,17.7c0.1-0.1,0.1-0.2,0.1-0.3"/>
			<path class="st22" d="M24.6,17.8c0.1-0.1,0.1-0.2,0-0.4"/>
			<path class="st22" d="M25.3,17.1c-0.1,0-0.2,0.1-0.3-0.1"/>
			<path class="st22" d="M24.6,17.3c0.1,0.1,0.5,0.2,0.6-0.2"/>
			<path class="st22" d="M25.1,17.4c0.1,0.1,0.1,0.3,0,0.4"/>
			<path class="st22" d="M25.6,17.4c0,0.1-0.2,0.3-0.5,0.1"/>
			<path class="st22" d="M26.4,17.8c0,0.1,0,0.2-0.1,0.2"/>
			<path class="st22" d="M26,17.6c0.1,0.1,0.1,0.3,0,0.3"/>
			<path class="st22" d="M25.9,17.6c-0.1,0-0.2,0.1-0.1,0.3"/>
			<path class="st22" d="M25.6,17.5c0.1,0,0.2,0.1,0.2,0.2"/>
			<path class="st22" d="M25.4,17.9c0-0.1-0.1-0.2,0-0.3"/>
			<path class="st15" d="M25.6,9.8c-0.3,0.1-0.8,0.1-1.1-0.1c0.1-0.1,0.2-0.2,0.2-0.2c-0.3,0-0.5-0.2-0.6-0.4l0.2-0.1
				C24,9,23.8,8.7,23.8,8.6h0.2c-0.2-0.2-0.3-0.5-0.3-0.8l0.1,0.1c-0.1-0.3,0-0.6,0-0.8c0,0,0.2,0.2,0.2,0.3c0-0.2,0.1-0.5,0.2-0.7
				l0.1,0.2c0.1-0.2,0.3-0.3,0.4-0.4c0,0.1,0,0.2,0,0.2c0.1-0.2,0.3-0.3,0.4-0.3c0,0.1-0.1,0.4-0.1,0.5c0.2-0.1,0.2,0,0.3,0
				C25.2,7,25,7.2,24.9,7.3c0.1,0.2,0,0.8-0.1,1c0.1,0.1,0.1,0.2,0.1,0.4c0.2,0,0.5,0.1,0.6,0.6C25.5,9.5,25.5,9.6,25.6,9.8z"/>
			<path class="st16" d="M25.6,9.8c-0.2-0.2-0.4-0.4-1-0.3"/>
			<path class="st16" d="M25,9.5c-0.1-0.2-0.3-0.5-0.8-0.4"/>
			<path class="st16" d="M24.6,9.2c-0.1-0.3-0.4-0.6-0.7-0.6"/>
			<path class="st16" d="M23.7,7.9c0.2,0.1,0.5,0.5,0.6,0.8"/>
			<path class="st16" d="M24,8.2c0-0.3,0.2-0.8,0.5-0.9c0-0.2,0.2-0.4,0.5-0.4"/>
			<path class="st16" d="M24.3,6.9c0,0.1,0,0.4,0.1,0.5"/>
			<path class="st16" d="M24,7.4c0,0.2,0,0.3,0.1,0.5"/>
			<path class="st16" d="M24.3,8.6c0.2,0,0.4-0.2,0.5-0.3"/>
			<path class="st16" d="M24.5,7.3c0.2,0,0.3,0,0.4,0c0,0.2-0.2,0.4-0.4,0.6l-0.1-0.2c-0.2,0.2-0.3,0.3-0.3,0.6"/>
			<line class="st16" x1="24.1" y1="7.8" x2="24.2" y2="8"/>
			<path class="st16" d="M24.5,7.9c0.1,0.2,0,0.5,0,0.7"/>
			<path class="st16" d="M24.6,9.1c0.2,0,0.6-0.2,0.8,0.5"/>
			<path class="st16" d="M24.4,8.6c0.2,0,0.4,0.2,0.4,0.4"/>
			<path class="st16" d="M24.9,8.7c0,0.1-0.1,0.2-0.1,0.2"/>
			<path class="st16" d="M25,8.7c0.1,0.1,0.1,0.3,0,0.4"/>
			<path class="st17" d="M24.3,10c0.2,0,0.5,0.1,0.6-0.1c0.1-0.1,0.5-0.2,0.7-0.2c0.2,0.1,0.3,0.1,0.3,0.1l0,0.2
				c-0.2-0.1-0.4-0.1-0.5,0.1c-0.2,0.2-0.6,0.3-1,0.2L24.3,10z"/>
			<g>
				<ellipse class="st17" cx="25.6" cy="9.5" rx="0.3" ry="0.4"/>
				<path class="st17" d="M25.6,9.5"/>
			</g>
			<g>
				<ellipse class="st25" cx="25.6" cy="9.5" rx="0.1" ry="0.2"/>
				<path class="st25" d="M25.6,9.5"/>
			</g>
			<path class="st17" d="M27.5,10c-0.2,0-0.5,0.1-0.6-0.1c-0.1-0.1-0.5-0.2-0.7-0.2C26,9.8,26,9.8,26,9.8l0,0.2
				c0.2-0.1,0.4-0.1,0.5,0.1c0.2,0.2,0.6,0.3,1,0.2L27.5,10z"/>
			<g>
				<ellipse class="st17" cx="26.3" cy="9.5" rx="0.3" ry="0.4"/>
				<path class="st17" d="M26.3,9.5"/>
			</g>
			<g>
				<ellipse class="st25" cx="26.3" cy="9.5" rx="0.1" ry="0.2"/>
				<path class="st25" d="M26.3,9.5"/>
			</g>
			<g>
				<circle class="st17" cx="25.9" cy="9.9" r="0.2"/>
				<path class="st17" d="M25.9,9.9"/>
			</g>
			<path class="st16" d="M24.7,6.7c0,0.1,0,0.3,0,0.3"/>
		</g>
		<path class="st15" d="M20.3,9.8c0,0.4,0,0.9-0.1,1.1c-0.1,0.2-0.3,1.4,0.5,1.4c0.8,0.1,0.8-0.7,0.8-0.9c0-0.2,0.2-0.9,0.5-1.1
			c-0.2,0-0.6,0-0.8,0.2c0-0.2,0-0.6,0-0.8c-0.2,0.1-0.4,0.5-0.4,0.6C20.7,10.2,20.5,9.9,20.3,9.8z"/>
		<path class="st16" d="M20.7,10.4c-0.2,0.3-0.6,1.9-0.1,2c0.2,0,0.6,0,0.6-1.8"/>
		<path class="st15" d="M19.8,12.3c0,0.4,0,0.9-0.1,1.1c-0.1,0.2-0.3,1.4,0.5,1.4c0.8,0.1,0.8-0.7,0.8-0.9c0-0.2,0.2-0.9,0.5-1.1
			c-0.2,0-0.6,0-0.8,0.2c0-0.2,0-0.6,0-0.8c-0.2,0.1-0.4,0.5-0.4,0.6C20.2,12.6,20,12.4,19.8,12.3z"/>
		<path class="st16" d="M20.2,12.8c-0.2,0.3-0.6,1.9-0.1,2c0.2,0,0.6,0,0.6-1.8"/>
		<path class="st15" d="M19.4,14.9c0.1,0.3,0.2,0.9,0.2,1.1c0,0.3,0,1.4,0.8,1.2c0.8-0.1,0.6-0.8,0.5-1.1c0-0.2-0.1-0.9,0.2-1.2
			c-0.2,0-0.6,0.1-0.7,0.4c-0.1-0.2-0.2-0.6-0.2-0.8c-0.1,0.2-0.2,0.6-0.3,0.7C19.9,15.1,19.6,14.9,19.4,14.9z"/>
		<path class="st16" d="M20,15.3c-0.1,0.4-0.1,1.9,0.4,2c0.2,0,0.6-0.1,0.1-1.9"/>
		<path class="st15" d="M19.7,17.5c0.2,0.3,0.4,0.8,0.5,1c0,0.3,0.4,1.3,1.1,1c0.7-0.3,0.3-1,0.2-1.2c-0.1-0.2-0.3-0.9-0.1-1.2
			c-0.2,0.1-0.5,0.3-0.6,0.5c-0.1-0.2-0.3-0.5-0.4-0.7c-0.1,0.2-0.1,0.6-0.1,0.8C20.2,17.6,19.9,17.6,19.7,17.5z"/>
		<path class="st16" d="M20.4,17.8c0,0.4,0.4,1.9,0.9,1.8c0.2-0.1,0.5-0.3-0.4-1.9"/>
		<path class="st15" d="M21,19.9c0.3,0.2,0.7,0.5,0.9,0.7c0.2,0.2,0.9,1,1.4,0.4c0.5-0.6-0.1-1-0.3-1.2c-0.2-0.2-0.6-0.6-0.6-1
			c-0.1,0.1-0.4,0.5-0.3,0.7c-0.2-0.1-0.5-0.3-0.7-0.4c0,0.2,0.2,0.6,0.3,0.7C21.5,19.8,21.2,19.8,21,19.9z"/>
		<path class="st16" d="M21.7,19.8c0.2,0.3,1.2,1.5,1.6,1.2c0.1-0.1,0.4-0.5-1.1-1.5"/>
		<path class="st15" d="M22.4,21.5c0.3,0.2,1.5,0.4,2-0.1c0.1-0.3-0.1-1.2-0.8-1.7c-0.1,0.3,0,1,0.2,1.3
			C23.4,21,22.9,21.2,22.4,21.5z"/>
		<path class="st15" d="M31.6,9.8c0,0.4,0,0.9,0.1,1.1c0.1,0.2,0.3,1.4-0.5,1.4c-0.8,0.1-0.8-0.7-0.8-0.9c0-0.2-0.2-0.9-0.5-1.1
			c0.2,0,0.6,0,0.8,0.2c0-0.2,0-0.6,0-0.8c0.2,0.1,0.4,0.5,0.4,0.6C31.2,10.2,31.4,9.9,31.6,9.8z"/>
		<path class="st16" d="M31.1,10.4c0.2,0.3,0.6,1.9,0.1,2c-0.2,0-0.6,0-0.6-1.8"/>
		<path class="st15" d="M32.1,12.3c0,0.4,0,0.9,0.1,1.1c0.1,0.2,0.3,1.4-0.5,1.4c-0.8,0.1-0.8-0.7-0.8-0.9c0-0.2-0.2-0.9-0.5-1.1
			c0.2,0,0.6,0,0.8,0.2c0-0.2,0-0.6,0-0.8c0.2,0.1,0.4,0.5,0.4,0.6C31.7,12.6,31.9,12.4,32.1,12.3z"/>
		<path class="st16" d="M31.6,12.8c0.2,0.3,0.6,1.9,0.1,2c-0.2,0-0.6,0-0.6-1.8"/>
		<path class="st15" d="M32.5,14.9c-0.1,0.3-0.2,0.9-0.2,1.1c0,0.3,0,1.4-0.8,1.2c-0.8-0.1-0.6-0.8-0.5-1.1c0-0.2,0.1-0.9-0.2-1.2
			c0.2,0,0.6,0.1,0.7,0.4c0.1-0.2,0.2-0.6,0.2-0.8c0.1,0.2,0.2,0.6,0.3,0.7C32,15.1,32.3,14.9,32.5,14.9z"/>
		<path class="st16" d="M31.9,15.3c0.1,0.4,0.1,1.9-0.4,2c-0.2,0-0.6-0.1-0.1-1.9"/>
		<path class="st15" d="M32.2,17.5c-0.2,0.3-0.4,0.8-0.5,1c0,0.3-0.4,1.3-1.1,1c-0.7-0.3-0.3-1-0.2-1.2c0.1-0.2,0.3-0.9,0.1-1.2
			c0.2,0.1,0.5,0.3,0.6,0.5c0.1-0.2,0.3-0.5,0.4-0.7c0.1,0.2,0.1,0.6,0.1,0.8C31.7,17.6,32,17.6,32.2,17.5z"/>
		<path class="st16" d="M31.5,17.8c0,0.4-0.4,1.9-0.9,1.8c-0.2-0.1-0.5-0.3,0.4-1.9"/>
		<path class="st15" d="M30.9,19.9c-0.3,0.2-0.7,0.5-0.9,0.7c-0.2,0.2-0.9,1-1.4,0.4c-0.5-0.6,0.1-1,0.3-1.2c0.2-0.2,0.6-0.6,0.6-1
			c0.1,0.1,0.4,0.5,0.3,0.7c0.2-0.1,0.5-0.3,0.7-0.4c0,0.2-0.2,0.6-0.3,0.7C30.4,19.8,30.7,19.8,30.9,19.9z"/>
		<path class="st16" d="M30.2,19.8c-0.2,0.3-1.2,1.5-1.6,1.2c-0.1-0.1-0.4-0.5,1.1-1.5"/>
		<path class="st15" d="M29.5,21.5c-0.3,0.2-1.5,0.4-2-0.1c-0.1-0.3,0.1-1.2,0.8-1.7c0.1,0.3,0,1-0.2,1.3C28.4,21,29,21.2,29.5,21.5
			z"/>
		<path class="st17" d="M25.9,21.8l0.2,0.3h1l-0.7-0.5l0.6,0.1c0.2,0,0.3-0.1,0.3-0.4v-1c0-0.3-0.2-0.2-0.3-0.2l-1.1,0.6l-1.1-0.6
			c-0.1-0.1-0.3-0.1-0.3,0.2v1c0,0.3,0.1,0.4,0.3,0.4l0.6-0.1l-0.7,0.5h1L25.9,21.8z"/>
		<polygon class="st25" points="25.1,21 25.1,21.4 25.7,21.3 		"/>
		<polygon class="st25" points="26.8,21 26.8,21.4 26.2,21.3 		"/>
	</g>
</g>
</svg>
